<?xml version="1.0" encoding="UTF-8" standalone="no"?>
<!-- Created with Inkscape (http://www.inkscape.org/) -->

<svg
   xmlns:dc="http://purl.org/dc/elements/1.1/"
   xmlns:cc="http://creativecommons.org/ns#"
   xmlns:rdf="http://www.w3.org/1999/02/22-rdf-syntax-ns#"
   xmlns:svg="http://www.w3.org/2000/svg"
   xmlns="http://www.w3.org/2000/svg"
   xmlns:sodipodi="http://sodipodi.sourceforge.net/DTD/sodipodi-0.dtd"
   xmlns:inkscape="http://www.inkscape.org/namespaces/inkscape"
   width="453.5433"
   height="340.15747"
   id="svg2"
   sodipodi:version="0.32"
   inkscape:version="0.48.3.1 r9886"
   sodipodi:docname="activelearn.svg"
   version="1.0">
  <defs
     id="defs4" />
  <sodipodi:namedview
     id="base"
     pagecolor="#ffffff"
     bordercolor="#666666"
     borderopacity="1.0"
     inkscape:pageopacity="0.0"
     inkscape:pageshadow="2"
     inkscape:zoom="2.1785437"
     inkscape:cx="280.08284"
     inkscape:cy="92.819882"
     inkscape:document-units="mm"
     inkscape:current-layer="layer1"
     inkscape:window-width="1680"
     inkscape:window-height="1028"
     inkscape:window-x="0"
     inkscape:window-y="0"
     width="12.8cm"
     height="9.6cm"
     units="cm"
     showgrid="true"
     grid_units="mm"
     inkscape:object-paths="false"
     inkscape:grid-points="true"
     inkscape:grid-bbox="true"
     inkscape:guide-points="true"
     showguides="true"
     inkscape:guide-bbox="true"
     inkscape:window-maximized="1"
     inkscape:snap-global="false">
    <sodipodi:guide
       orientation="vertical"
       position="56.476527"
       id="guide3573" />
    <sodipodi:guide
       orientation="horizontal"
       position="11.035643"
       id="guide3579" />
    <sodipodi:guide
       orientation="horizontal"
       position="24.018753"
       id="guide3886" />
    <sodipodi:guide
       orientation="horizontal"
       position="285.62841"
       id="guide3988" />
    <sodipodi:guide
       orientation="horizontal"
       position="303.15561"
       id="guide4081" />
    <inkscape:grid
       id="GridFromPre046Settings"
       type="xygrid"
       originx="0px"
       originy="0px"
       spacingx="2mm"
       spacingy="2mm"
       color="#3f3fff"
       empcolor="#3f3fff"
       opacity="0.15"
       empopacity="0.38"
       empspacing="5" />
  </sodipodi:namedview>
  <metadata
     id="metadata7">
    <rdf:RDF>
      <cc:Work
         rdf:about="">
        <dc:format>image/svg+xml</dc:format>
        <dc:type
           rdf:resource="http://purl.org/dc/dcmitype/StillImage" />
        <dc:title></dc:title>
      </cc:Work>
    </rdf:RDF>
  </metadata>
  <g
     inkscape:groupmode="layer"
     id="layer2"
     inkscape:label="Layer0"
     sodipodi:insensitive="true">
    <rect
       transform="translate(4.149475e-6,-698.0315)"
       style="fill:#c6c2c5;fill-opacity:1;stroke:none"
       id="rect2995"
       width="134.64568"
       height="141.73227"
       x="14.173224"
       y="861.02362"
       ry="1.15342e-05" />
    <rect
       transform="translate(4.149475e-6,-698.0315)"
       style="fill:#c6c2c5;fill-opacity:1;stroke:none"
       id="rect2995-1"
       width="134.64568"
       height="141.73227"
       x="155.9055"
       y="861.02362"
       ry="1.15342e-05" />
    <rect
       transform="translate(4.149475e-6,-698.0315)"
       style="fill:#c6c2c5;fill-opacity:1;stroke:none"
       id="rect2995-1-2"
       width="134.64568"
       height="141.73227"
       x="297.63779"
       y="861.02362"
       ry="1.15342e-05" />
  </g>
  <g
     inkscape:label="Layer 1"
     inkscape:groupmode="layer"
     id="layer1"
     transform="translate(4.149475e-6,-698.0315)">
    <path
       sodipodi:type="arc"
       style="fill:none;stroke:#000000;stroke-opacity:1"
       id="path3828"
       sodipodi:cx="124.01575"
       sodipodi:cy="148.81889"
       sodipodi:rx="3.5433071"
       sodipodi:ry="7.0866141"
       d="m 127.55905,148.81889 a 3.5433071,7.0866141 0 1 1 -7.08661,0 3.5433071,7.0866141 0 1 1 7.08661,0 z"
       transform="matrix(1.000001,0,0,0.50000048,-88.582804,825.59047)" />
    <path
       sodipodi:type="arc"
       style="fill:none;stroke:#000000;stroke-opacity:1"
       id="path3828-3"
       sodipodi:cx="124.01575"
       sodipodi:cy="148.81889"
       sodipodi:rx="3.5433071"
       sodipodi:ry="7.0866141"
       d="m 127.55905,148.81889 a 3.5433071,7.0866141 0 1 1 -7.08661,0 3.5433071,7.0866141 0 1 1 7.08661,0 z"
       transform="matrix(1.000001,0,0,0.50000048,-58.834717,828.82691)" />
    <path
       sodipodi:type="arc"
       style="fill:none;stroke:#000000;stroke-opacity:1"
       id="path3828-8"
       sodipodi:cx="124.01575"
       sodipodi:cy="148.81889"
       sodipodi:rx="3.5433071"
       sodipodi:ry="7.0866141"
       d="m 127.55905,148.81889 a 3.5433071,7.0866141 0 1 1 -7.08661,0 3.5433071,7.0866141 0 1 1 7.08661,0 z"
       transform="matrix(1.000001,0,0,0.50000048,-34.047516,832.04007)" />
    <path
       sodipodi:type="arc"
       style="fill:none;stroke:#000000;stroke-opacity:1"
       id="path3828-36"
       sodipodi:cx="124.01575"
       sodipodi:cy="148.81889"
       sodipodi:rx="3.5433071"
       sodipodi:ry="7.0866141"
       d="m 127.55905,148.81889 a 3.5433071,7.0866141 0 1 1 -7.08661,0 3.5433071,7.0866141 0 1 1 7.08661,0 z"
       transform="matrix(1.000001,0,0,0.50000048,-45.523072,859.5814)" />
    <path
       sodipodi:type="arc"
       style="fill:none;stroke:#000000;stroke-opacity:1"
       id="path3828-7"
       sodipodi:cx="124.01575"
       sodipodi:cy="148.81889"
       sodipodi:rx="3.5433071"
       sodipodi:ry="7.0866141"
       d="m 127.55905,148.81889 a 3.5433071,7.0866141 0 1 1 -7.08661,0 3.5433071,7.0866141 0 1 1 7.08661,0 z"
       transform="matrix(1.000001,0,0,0.50000048,-82.244851,866.00771)" />
    <path
       sodipodi:type="arc"
       style="fill:none;stroke:#000000;stroke-opacity:1"
       id="path3828-2"
       sodipodi:cx="124.01575"
       sodipodi:cy="148.81889"
       sodipodi:rx="3.5433071"
       sodipodi:ry="7.0866141"
       d="m 127.55905,148.81889 a 3.5433071,7.0866141 0 1 1 -7.08661,0 3.5433071,7.0866141 0 1 1 7.08661,0 z"
       transform="matrix(1.000001,0,0,0.50000048,-23.030982,896.30318)" />
    <path
       sodipodi:type="arc"
       style="fill:none;stroke:#000000;stroke-opacity:1"
       id="path3828-4"
       sodipodi:cx="124.01575"
       sodipodi:cy="148.81889"
       sodipodi:rx="3.5433071"
       sodipodi:ry="7.0866141"
       d="m 127.55905,148.81889 a 3.5433071,7.0866141 0 1 1 -7.08661,0 3.5433071,7.0866141 0 1 1 7.08661,0 z"
       transform="matrix(1.000001,0,0,0.50000048,2.6742638,883.45056)" />
    <path
       sodipodi:type="arc"
       style="fill:none;stroke:#000000;stroke-opacity:1"
       id="path3828-80"
       sodipodi:cx="124.01575"
       sodipodi:cy="148.81889"
       sodipodi:rx="3.5433071"
       sodipodi:ry="7.0866141"
       d="m 127.55905,148.81889 a 3.5433071,7.0866141 0 1 1 -7.08661,0 3.5433071,7.0866141 0 1 1 7.08661,0 z"
       transform="matrix(1.000001,0,0,0.50000048,-4.2110698,900.89341)" />
    <path
       sodipodi:type="arc"
       style="fill:none;stroke:#000000;stroke-opacity:1"
       id="path3828-6"
       sodipodi:cx="124.01575"
       sodipodi:cy="148.81889"
       sodipodi:rx="3.5433071"
       sodipodi:ry="7.0866141"
       d="m 127.55905,148.81889 a 3.5433071,7.0866141 0 1 1 -7.08661,0 3.5433071,7.0866141 0 1 1 7.08661,0 z"
       transform="matrix(1.000001,0,0,0.50000048,3.5923083,866.00771)" />
    <path
       sodipodi:type="arc"
       style="fill:none;stroke:#000000;stroke-opacity:1"
       id="path3828-71"
       sodipodi:cx="124.01575"
       sodipodi:cy="148.81889"
       sodipodi:rx="3.5433071"
       sodipodi:ry="7.0866141"
       d="m 127.55905,148.81889 a 3.5433071,7.0866141 0 1 1 -7.08661,0 3.5433071,7.0866141 0 1 1 7.08661,0 z"
       transform="matrix(1.000001,0,0,0.50000048,-18.440759,877.02425)" />
    <path
       sodipodi:type="arc"
       style="fill:none;stroke:#000000;stroke-opacity:1"
       id="path3828-82"
       sodipodi:cx="124.01575"
       sodipodi:cy="148.81889"
       sodipodi:rx="3.5433071"
       sodipodi:ry="7.0866141"
       d="m 127.55905,148.81889 a 3.5433071,7.0866141 0 1 1 -7.08661,0 3.5433071,7.0866141 0 1 1 7.08661,0 z"
       transform="matrix(1.000001,0,0,0.50000048,-42.309916,896.76221)" />
    <path
       sodipodi:type="arc"
       style="fill:none;stroke:#000000;stroke-opacity:1"
       id="path3828-29"
       sodipodi:cx="124.01575"
       sodipodi:cy="148.81889"
       sodipodi:rx="3.5433071"
       sodipodi:ry="7.0866141"
       d="m 127.55905,148.81889 a 3.5433071,7.0866141 0 1 1 -7.08661,0 3.5433071,7.0866141 0 1 1 7.08661,0 z"
       transform="matrix(1.000001,0,0,0.50000048,-29.457293,913.74603)" />
    <path
       sodipodi:type="arc"
       style="fill:none;stroke:#000000;stroke-opacity:1"
       id="path3828-715"
       sodipodi:cx="124.01575"
       sodipodi:cy="148.81889"
       sodipodi:rx="3.5433071"
       sodipodi:ry="7.0866141"
       d="m 127.55905,148.81889 a 3.5433071,7.0866141 0 1 1 -7.08661,0 3.5433071,7.0866141 0 1 1 7.08661,0 z"
       transform="matrix(1.000001,0,0,0.50000048,-10.178359,914.66407)" />
    <path
       sodipodi:type="arc"
       style="fill:none;stroke:#000000;stroke-opacity:1"
       id="path3828-46"
       sodipodi:cx="124.01575"
       sodipodi:cy="148.81889"
       sodipodi:rx="3.5433071"
       sodipodi:ry="7.0866141"
       d="m 127.55905,148.81889 a 3.5433071,7.0866141 0 1 1 -7.08661,0 3.5433071,7.0866141 0 1 1 7.08661,0 z"
       transform="matrix(1.000001,0,0,0.50000048,14.14982,900.89341)" />
    <path
       sodipodi:type="arc"
       style="fill:none;stroke:#000000;stroke-opacity:1"
       id="path3828-7150"
       sodipodi:cx="124.01575"
       sodipodi:cy="148.81889"
       sodipodi:rx="3.5433071"
       sodipodi:ry="7.0866141"
       d="m 127.55905,148.81889 a 3.5433071,7.0866141 0 1 1 -7.08661,0 3.5433071,7.0866141 0 1 1 7.08661,0 z"
       transform="matrix(1.000001,0,0,0.50000048,-60.670806,906.86069)" />
    <path
       sodipodi:type="arc"
       style="fill:none;stroke:#000000;stroke-opacity:1"
       id="path3828-1"
       sodipodi:cx="124.01575"
       sodipodi:cy="148.81889"
       sodipodi:rx="3.5433071"
       sodipodi:ry="7.0866141"
       d="m 127.55905,148.81889 a 3.5433071,7.0866141 0 1 1 -7.08661,0 3.5433071,7.0866141 0 1 1 7.08661,0 z"
       transform="matrix(1.000001,0,0,0.50000048,-70.769295,850.85998)" />
    <path
       sodipodi:type="arc"
       style="fill:none;stroke:#000000;stroke-opacity:1"
       id="path3828-65"
       sodipodi:cx="124.01575"
       sodipodi:cy="148.81889"
       sodipodi:rx="3.5433071"
       sodipodi:ry="7.0866141"
       d="m 127.55905,148.81889 a 3.5433071,7.0866141 0 1 1 -7.08661,0 3.5433071,7.0866141 0 1 1 7.08661,0 z"
       transform="matrix(1.000001,0,0,0.50000048,-45.982094,843.51562)" />
    <path
       sodipodi:type="arc"
       style="fill:none;stroke:#000000;stroke-opacity:1"
       id="path3828-5"
       sodipodi:cx="124.01575"
       sodipodi:cy="148.81889"
       sodipodi:rx="3.5433071"
       sodipodi:ry="7.0866141"
       d="m 127.55905,148.81889 a 3.5433071,7.0866141 0 1 1 -7.08661,0 3.5433071,7.0866141 0 1 1 7.08661,0 z"
       transform="matrix(1.000001,0,0,0.50000048,-48.736227,817.81038)" />
    <path
       sodipodi:type="arc"
       style="fill:none;stroke:#000000;stroke-opacity:1"
       id="path3828-81"
       sodipodi:cx="124.01575"
       sodipodi:cy="148.81889"
       sodipodi:rx="3.5433071"
       sodipodi:ry="7.0866141"
       d="m 127.55905,148.81889 a 3.5433071,7.0866141 0 1 1 -7.08661,0 3.5433071,7.0866141 0 1 1 7.08661,0 z"
       transform="matrix(1.000001,0,0,0.50000048,-78.113651,838.9254)" />
    <path
       sodipodi:type="arc"
       style="fill:none;stroke:#000000;stroke-opacity:1"
       id="path3828-53"
       sodipodi:cx="124.01575"
       sodipodi:cy="148.81889"
       sodipodi:rx="3.5433071"
       sodipodi:ry="7.0866141"
       d="m 127.55905,148.81889 a 3.5433071,7.0866141 0 1 1 -7.08661,0 3.5433071,7.0866141 0 1 1 7.08661,0 z"
       transform="matrix(1.000001,0,0,0.50000048,-32.211427,817.81038)" />
    <path
       sodipodi:type="arc"
       style="fill:none;stroke:#000000;stroke-opacity:1"
       id="path3828-47"
       sodipodi:cx="124.01575"
       sodipodi:cy="148.81889"
       sodipodi:rx="3.5433071"
       sodipodi:ry="7.0866141"
       d="m 127.55905,148.81889 a 3.5433071,7.0866141 0 1 1 -7.08661,0 3.5433071,7.0866141 0 1 1 7.08661,0 z"
       transform="matrix(1.000001,0,0,0.50000048,-22.57196,821.02354)" />
    <path
       sodipodi:type="arc"
       style="fill:none;stroke:#000000;stroke-opacity:1"
       id="path3828-87"
       sodipodi:cx="124.01575"
       sodipodi:cy="148.81889"
       sodipodi:rx="3.5433071"
       sodipodi:ry="7.0866141"
       d="m 127.55905,148.81889 a 3.5433071,7.0866141 0 1 1 -7.08661,0 3.5433071,7.0866141 0 1 1 7.08661,0 z"
       transform="matrix(1.000001,0,0,0.50000048,-69.392228,879.77838)" />
    <path
       sodipodi:type="arc"
       style="fill:#c60000;stroke:#000000;stroke-opacity:1;fill-opacity:1"
       id="path3828-46-2"
       sodipodi:cx="124.01575"
       sodipodi:cy="148.81889"
       sodipodi:rx="3.5433071"
       sodipodi:ry="7.0866141"
       d="m 127.55905,148.81889 a 3.5433071,7.0866141 0 1 1 -7.08661,0 3.5433071,7.0866141 0 1 1 7.08661,0 z"
       transform="matrix(1.000001,0,0,0.50000048,80.708045,838.9254)" />
    <path
       sodipodi:type="arc"
       style="fill:#0000ff;fill-opacity:1;stroke:#000000;stroke-opacity:1"
       id="path3828-46-2-2"
       sodipodi:cx="124.01575"
       sodipodi:cy="148.81889"
       sodipodi:rx="3.5433071"
       sodipodi:ry="7.0866141"
       d="m 127.55905,148.81889 a 3.5433071,7.0866141 0 1 1 -7.08661,0 3.5433071,7.0866141 0 1 1 7.08661,0 z"
       transform="matrix(1.000001,0,0,0.50000048,132.57755,869.67989)" />
    <path
       sodipodi:type="arc"
       style="fill:#0000ff;fill-opacity:1;stroke:#000000;stroke-opacity:1"
       id="path3828-46-2-2-0"
       sodipodi:cx="124.01575"
       sodipodi:cy="148.81889"
       sodipodi:rx="3.5433071"
       sodipodi:ry="7.0866141"
       d="m 127.55905,148.81889 a 3.5433071,7.0866141 0 1 1 -7.08661,0 3.5433071,7.0866141 0 1 1 7.08661,0 z"
       transform="matrix(1.000001,0,0,0.50000048,117.88885,888.4998)" />
    <path
       sodipodi:type="arc"
       style="fill:#0000ff;fill-opacity:1;stroke:#000000;stroke-opacity:1"
       id="path3828-46-2-2-2"
       sodipodi:cx="124.01575"
       sodipodi:cy="148.81889"
       sodipodi:rx="3.5433071"
       sodipodi:ry="7.0866141"
       d="m 127.55905,148.81889 a 3.5433071,7.0866141 0 1 1 -7.08661,0 3.5433071,7.0866141 0 1 1 7.08661,0 z"
       transform="matrix(1.000001,0,0,0.50000048,142.21703,898.59829)" />
    <path
       sodipodi:type="arc"
       style="fill:#c60000;fill-opacity:1;stroke:#000000;stroke-opacity:1"
       id="path3828-46-2-6"
       sodipodi:cx="124.01575"
       sodipodi:cy="148.81889"
       sodipodi:rx="3.5433071"
       sodipodi:ry="7.0866141"
       d="m 127.55905,148.81889 a 3.5433071,7.0866141 0 1 1 -7.08661,0 3.5433071,7.0866141 0 1 1 7.08661,0 z"
       transform="matrix(1.000001,0,0,0.50000048,70.150534,857.28629)" />
    <path
       sodipodi:type="arc"
       style="fill:#c60000;fill-opacity:1;stroke:#000000;stroke-opacity:1"
       id="path3828-46-2-4"
       sodipodi:cx="124.01575"
       sodipodi:cy="148.81889"
       sodipodi:rx="3.5433071"
       sodipodi:ry="7.0866141"
       d="m 127.55905,148.81889 a 3.5433071,7.0866141 0 1 1 -7.08661,0 3.5433071,7.0866141 0 1 1 7.08661,0 z"
       transform="matrix(1.000001,0,0,0.50000048,102.74111,839.84345)" />
    <path
       sodipodi:type="arc"
       style="fill:#c60000;fill-opacity:1;stroke:#000000;stroke-opacity:1"
       id="path3828-46-2-9"
       sodipodi:cx="124.01575"
       sodipodi:cy="148.81889"
       sodipodi:rx="3.5433071"
       sodipodi:ry="7.0866141"
       d="m 127.55905,148.81889 a 3.5433071,7.0866141 0 1 1 -7.08661,0 3.5433071,7.0866141 0 1 1 7.08661,0 z"
       transform="matrix(1.000001,0,0,0.50000048,83.462179,815.51527)" />
    <path
       sodipodi:type="arc"
       style="fill:none;stroke:#000000;stroke-opacity:1"
       id="path3828-13"
       sodipodi:cx="124.01575"
       sodipodi:cy="148.81889"
       sodipodi:rx="3.5433071"
       sodipodi:ry="7.0866141"
       d="m 127.55905,148.81889 a 3.5433071,7.0866141 0 1 1 -7.08661,0 3.5433071,7.0866141 0 1 1 7.08661,0 z"
       transform="matrix(1.000001,0,0,0.50000048,191.8356,824.90194)" />
    <path
       sodipodi:type="arc"
       style="fill:#f60000;stroke:#000000;stroke-opacity:1;fill-opacity:1"
       id="path3828-3-9"
       sodipodi:cx="124.01575"
       sodipodi:cy="148.81889"
       sodipodi:rx="3.5433071"
       sodipodi:ry="7.0866141"
       d="m 127.55905,148.81889 a 3.5433071,7.0866141 0 1 1 -7.08661,0 3.5433071,7.0866141 0 1 1 7.08661,0 z"
       transform="matrix(1.000001,0,0,0.50000048,221.58369,828.13838)" />
    <path
       sodipodi:type="arc"
       style="fill:#ff0000;stroke:#000000;stroke-opacity:1;fill-opacity:1"
       id="path3828-8-0"
       sodipodi:cx="124.01575"
       sodipodi:cy="148.81889"
       sodipodi:rx="3.5433071"
       sodipodi:ry="7.0866141"
       d="m 127.55905,148.81889 a 3.5433071,7.0866141 0 1 1 -7.08661,0 3.5433071,7.0866141 0 1 1 7.08661,0 z"
       transform="matrix(1.000001,0,0,0.50000048,246.37089,831.35154)" />
    <path
       sodipodi:type="arc"
       style="fill:#ff00ff;stroke:#000000;stroke-opacity:1;fill-opacity:1"
       id="path3828-36-1"
       sodipodi:cx="124.01575"
       sodipodi:cy="148.81889"
       sodipodi:rx="3.5433071"
       sodipodi:ry="7.0866141"
       d="m 127.55905,148.81889 a 3.5433071,7.0866141 0 1 1 -7.08661,0 3.5433071,7.0866141 0 1 1 7.08661,0 z"
       transform="matrix(1.000001,0,0,0.50000048,234.89533,858.89287)" />
    <path
       sodipodi:type="arc"
       style="fill:none;stroke:#000000;stroke-opacity:1"
       id="path3828-7-2"
       sodipodi:cx="124.01575"
       sodipodi:cy="148.81889"
       sodipodi:rx="3.5433071"
       sodipodi:ry="7.0866141"
       d="m 127.55905,148.81889 a 3.5433071,7.0866141 0 1 1 -7.08661,0 3.5433071,7.0866141 0 1 1 7.08661,0 z"
       transform="matrix(1.000001,0,0,0.50000048,198.17356,865.31918)" />
    <path
       sodipodi:type="arc"
       style="fill:#0000ff;stroke:#000000;stroke-opacity:1;fill-opacity:1"
       id="path3828-2-2"
       sodipodi:cx="124.01575"
       sodipodi:cy="148.81889"
       sodipodi:rx="3.5433071"
       sodipodi:ry="7.0866141"
       d="m 127.55905,148.81889 a 3.5433071,7.0866141 0 1 1 -7.08661,0 3.5433071,7.0866141 0 1 1 7.08661,0 z"
       transform="matrix(1.000001,0,0,0.50000048,257.38742,895.61465)" />
    <path
       sodipodi:type="arc"
       style="fill:#0000ff;stroke:#000000;stroke-opacity:1;fill-opacity:1"
       id="path3828-4-5"
       sodipodi:cx="124.01575"
       sodipodi:cy="148.81889"
       sodipodi:rx="3.5433071"
       sodipodi:ry="7.0866141"
       d="m 127.55905,148.81889 a 3.5433071,7.0866141 0 1 1 -7.08661,0 3.5433071,7.0866141 0 1 1 7.08661,0 z"
       transform="matrix(1.000001,0,0,0.50000048,283.09267,882.76203)" />
    <path
       sodipodi:type="arc"
       style="fill:none;stroke:#000000;stroke-opacity:1"
       id="path3828-80-2"
       sodipodi:cx="124.01575"
       sodipodi:cy="148.81889"
       sodipodi:rx="3.5433071"
       sodipodi:ry="7.0866141"
       d="m 127.55905,148.81889 a 3.5433071,7.0866141 0 1 1 -7.08661,0 3.5433071,7.0866141 0 1 1 7.08661,0 z"
       transform="matrix(1.000001,0,0,0.50000048,276.20734,900.20488)" />
    <path
       sodipodi:type="arc"
       style="fill:none;stroke:#000000;stroke-opacity:1"
       id="path3828-6-2"
       sodipodi:cx="124.01575"
       sodipodi:cy="148.81889"
       sodipodi:rx="3.5433071"
       sodipodi:ry="7.0866141"
       d="m 127.55905,148.81889 a 3.5433071,7.0866141 0 1 1 -7.08661,0 3.5433071,7.0866141 0 1 1 7.08661,0 z"
       transform="matrix(1.000001,0,0,0.50000048,284.01072,865.31918)" />
    <path
       sodipodi:type="arc"
       style="fill:none;stroke:#000000;stroke-opacity:1"
       id="path3828-71-2"
       sodipodi:cx="124.01575"
       sodipodi:cy="148.81889"
       sodipodi:rx="3.5433071"
       sodipodi:ry="7.0866141"
       d="m 127.55905,148.81889 a 3.5433071,7.0866141 0 1 1 -7.08661,0 3.5433071,7.0866141 0 1 1 7.08661,0 z"
       transform="matrix(1.000001,0,0,0.50000048,261.97765,876.33572)" />
    <path
       sodipodi:type="arc"
       style="fill:none;stroke:#000000;stroke-opacity:1"
       id="path3828-82-2"
       sodipodi:cx="124.01575"
       sodipodi:cy="148.81889"
       sodipodi:rx="3.5433071"
       sodipodi:ry="7.0866141"
       d="m 127.55905,148.81889 a 3.5433071,7.0866141 0 1 1 -7.08661,0 3.5433071,7.0866141 0 1 1 7.08661,0 z"
       transform="matrix(1.000001,0,0,0.50000048,238.10849,896.07368)" />
    <path
       sodipodi:type="arc"
       style="fill:none;stroke:#000000;stroke-opacity:1"
       id="path3828-29-5"
       sodipodi:cx="124.01575"
       sodipodi:cy="148.81889"
       sodipodi:rx="3.5433071"
       sodipodi:ry="7.0866141"
       d="m 127.55905,148.81889 a 3.5433071,7.0866141 0 1 1 -7.08661,0 3.5433071,7.0866141 0 1 1 7.08661,0 z"
       transform="matrix(1.000001,0,0,0.50000048,250.96111,913.0575)" />
    <path
       sodipodi:type="arc"
       style="fill:#0000ff;stroke:#000000;stroke-opacity:1;fill-opacity:1"
       id="path3828-715-7"
       sodipodi:cx="124.01575"
       sodipodi:cy="148.81889"
       sodipodi:rx="3.5433071"
       sodipodi:ry="7.0866141"
       d="m 127.55905,148.81889 a 3.5433071,7.0866141 0 1 1 -7.08661,0 3.5433071,7.0866141 0 1 1 7.08661,0 z"
       transform="matrix(1.000001,0,0,0.50000048,270.24005,913.97554)" />
    <path
       sodipodi:type="arc"
       style="fill:none;stroke:#000000;stroke-opacity:1"
       id="path3828-46-5"
       sodipodi:cx="124.01575"
       sodipodi:cy="148.81889"
       sodipodi:rx="3.5433071"
       sodipodi:ry="7.0866141"
       d="m 127.55905,148.81889 a 3.5433071,7.0866141 0 1 1 -7.08661,0 3.5433071,7.0866141 0 1 1 7.08661,0 z"
       transform="matrix(1.000001,0,0,0.50000048,294.56823,900.20488)" />
    <path
       sodipodi:type="arc"
       style="fill:#ff00ff;stroke:#000000;stroke-opacity:1;fill-opacity:1"
       id="path3828-7150-6"
       sodipodi:cx="124.01575"
       sodipodi:cy="148.81889"
       sodipodi:rx="3.5433071"
       sodipodi:ry="7.0866141"
       d="m 127.55905,148.81889 a 3.5433071,7.0866141 0 1 1 -7.08661,0 3.5433071,7.0866141 0 1 1 7.08661,0 z"
       transform="matrix(1.000001,0,0,0.50000048,219.7476,906.17216)" />
    <path
       sodipodi:type="arc"
       style="fill:#f60000;stroke:#000000;stroke-opacity:1;fill-opacity:1"
       id="path3828-1-0"
       sodipodi:cx="124.01575"
       sodipodi:cy="148.81889"
       sodipodi:rx="3.5433071"
       sodipodi:ry="7.0866141"
       d="m 127.55905,148.81889 a 3.5433071,7.0866141 0 1 1 -7.08661,0 3.5433071,7.0866141 0 1 1 7.08661,0 z"
       transform="matrix(1.000001,0,0,0.50000048,209.64911,850.17145)" />
    <path
       sodipodi:type="arc"
       style="fill:none;stroke:#000000;stroke-opacity:1"
       id="path3828-65-0"
       sodipodi:cx="124.01575"
       sodipodi:cy="148.81889"
       sodipodi:rx="3.5433071"
       sodipodi:ry="7.0866141"
       d="m 127.55905,148.81889 a 3.5433071,7.0866141 0 1 1 -7.08661,0 3.5433071,7.0866141 0 1 1 7.08661,0 z"
       transform="matrix(1.000001,0,0,0.50000048,234.43631,842.82709)" />
    <path
       sodipodi:type="arc"
       style="fill:none;stroke:#000000;stroke-opacity:1"
       id="path3828-5-3"
       sodipodi:cx="124.01575"
       sodipodi:cy="148.81889"
       sodipodi:rx="3.5433071"
       sodipodi:ry="7.0866141"
       d="m 127.55905,148.81889 a 3.5433071,7.0866141 0 1 1 -7.08661,0 3.5433071,7.0866141 0 1 1 7.08661,0 z"
       transform="matrix(1.000001,0,0,0.50000048,231.68218,817.12185)" />
    <path
       sodipodi:type="arc"
       style="fill:none;stroke:#000000;stroke-opacity:1"
       id="path3828-81-2"
       sodipodi:cx="124.01575"
       sodipodi:cy="148.81889"
       sodipodi:rx="3.5433071"
       sodipodi:ry="7.0866141"
       d="m 127.55905,148.81889 a 3.5433071,7.0866141 0 1 1 -7.08661,0 3.5433071,7.0866141 0 1 1 7.08661,0 z"
       transform="matrix(1.000001,0,0,0.50000048,202.30476,838.23687)" />
    <path
       sodipodi:type="arc"
       style="fill:none;stroke:#000000;stroke-opacity:1"
       id="path3828-53-5"
       sodipodi:cx="124.01575"
       sodipodi:cy="148.81889"
       sodipodi:rx="3.5433071"
       sodipodi:ry="7.0866141"
       d="m 127.55905,148.81889 a 3.5433071,7.0866141 0 1 1 -7.08661,0 3.5433071,7.0866141 0 1 1 7.08661,0 z"
       transform="matrix(1.000001,0,0,0.50000048,248.20698,817.12185)" />
    <path
       sodipodi:type="arc"
       style="fill:none;stroke:#000000;stroke-opacity:1"
       id="path3828-47-3"
       sodipodi:cx="124.01575"
       sodipodi:cy="148.81889"
       sodipodi:rx="3.5433071"
       sodipodi:ry="7.0866141"
       d="m 127.55905,148.81889 a 3.5433071,7.0866141 0 1 1 -7.08661,0 3.5433071,7.0866141 0 1 1 7.08661,0 z"
       transform="matrix(1.000001,0,0,0.50000048,257.84645,820.33501)" />
    <path
       sodipodi:type="arc"
       style="fill:#0000ff;stroke:#000000;stroke-opacity:1;fill-opacity:1"
       id="path3828-87-0"
       sodipodi:cx="124.01575"
       sodipodi:cy="148.81889"
       sodipodi:rx="3.5433071"
       sodipodi:ry="7.0866141"
       d="m 127.55905,148.81889 a 3.5433071,7.0866141 0 1 1 -7.08661,0 3.5433071,7.0866141 0 1 1 7.08661,0 z"
       transform="matrix(1.000001,0,0,0.50000048,211.02618,879.08985)" />
    <path
       style="fill:none;stroke:#000000;stroke-width:1px;stroke-linecap:butt;stroke-linejoin:miter;stroke-opacity:1"
       d="m 412.66099,892.67892 c -2.75413,0.45903 -94.55858,99.60783 -94.55858,99.60783"
       id="path4295"
       inkscape:connector-curvature="0" />
    <path
       style="fill:none;stroke:#000000;stroke-width:0.99921262;stroke-linecap:butt;stroke-linejoin:miter;stroke-miterlimit:4;stroke-opacity:1;stroke-dasharray:1.9984252, 0.9992126;stroke-dashoffset:0"
       d="m 280.00356,886.48212 c -2.75413,0.45903 -94.55858,99.60785 -94.55858,99.60785"
       id="path4295-1"
       inkscape:connector-curvature="0" />
    <path
       style="fill:none;stroke:#000000;stroke-width:0.99921262;stroke-linecap:butt;stroke-linejoin:miter;stroke-miterlimit:4;stroke-opacity:1;stroke-dasharray:1.9984252, 0.9992126;stroke-dashoffset:0"
       d="m 287.10879,905.81804 c -2.76122,-0.41418 -120.70362,65.52621 -120.70362,65.52621"
       id="path4295-1-7"
       inkscape:connector-curvature="0" />
    <text
       xml:space="preserve"
       style="font-size:12px;font-style:normal;font-weight:normal;line-height:125%;letter-spacing:0px;word-spacing:0px;fill:#000000;fill-opacity:1;stroke:none;font-family:Arial;-inkscape-font-specification:Arial"
       x="47.738308"
       y="1015.2379"
       id="text4333"
       sodipodi:linespacing="125%"><tspan
         sodipodi:role="line"
         id="tspan4335"
         x="47.738308"
         y="1015.2379">unlabeled</tspan></text>
    <text
       xml:space="preserve"
       style="font-size:12px;font-style:normal;font-weight:normal;line-height:125%;letter-spacing:0px;word-spacing:0px;fill:#000000;fill-opacity:1;stroke:none;font-family:Arial;-inkscape-font-specification:Arial"
       x="173.51041"
       y="1013.8608"
       id="text4337"
       sodipodi:linespacing="125%"><tspan
         sodipodi:role="line"
         id="tspan4339"
         x="173.51041"
         y="1013.8608">supervised learning</tspan></text>
    <text
       xml:space="preserve"
       style="font-size:12px;font-style:normal;font-weight:normal;line-height:125%;letter-spacing:0px;word-spacing:0px;fill:#000000;fill-opacity:1;stroke:none;font-family:Arial;-inkscape-font-specification:Arial"
       x="323.15164"
       y="1014.3198"
       id="text4341"
       sodipodi:linespacing="125%"><tspan
         sodipodi:role="line"
         id="tspan4343"
         x="323.15164"
         y="1014.3198">semi-supervised</tspan><tspan
         sodipodi:role="line"
         x="323.15164"
         y="1029.3198"
         id="tspan4345">active learning</tspan></text>
  </g>
</svg>
