<?xml version="1.0"?><svg width="640" height="480" xmlns="http://www.w3.org/2000/svg">
 <metadata id="metadata7">image/svg+xml</metadata>
 <g>
  <title>Layer 1</title>
  <g display="inline" id="layer5">
   <g display="inline" id="g4625">
    <path fill="none" fill-rule="evenodd" stroke="#000000" stroke-width="2" stroke-linecap="round" stroke-linejoin="round" stroke-miterlimit="4" d="m240.847275,299.049774c8.488129,12.949829 12.732178,26.226135 31.340744,31.993713c6.734039,2.443848 12.989319,-1.621338 16.442505,5.119507c13.316376,17.911926 31.629425,36.940674 48.022858,52.842407c5.980133,3.329285 9.056274,11.908997 16.822632,11.721985c6.667664,-1.3125 15.150879,-0.026306 19.629242,-6.335754c1.335968,-8.703308 -10.07724,-9.295654 -14.177887,-14.73407c-3.640686,-4.060303 -5.689087,-9.200134 -8.713898,-13.68219" id="path4610"/>
    <path fill="none" fill-rule="evenodd" stroke="#000000" stroke-width="2" stroke-linecap="round" stroke-linejoin="round" stroke-miterlimit="4" d="m279.3703,331.696381c13.058655,-5.549927 14.037994,-12.405701 14.037994,-12.405701" id="path4623"/>
   </g>
  </g>
  <g display="inline" id="layer3">
   <path fill="none" fill-rule="evenodd" stroke="#000000" stroke-width="3" stroke-linecap="round" stroke-linejoin="round" stroke-miterlimit="4" id="path4219" d="m464.401978,257.173492c7.638885,15.424744 4.50061,34.489685 -5.461975,48.116455c-9.832947,16.728638 -20.346497,34.293945 -37.06076,44.982483c-11.437469,6.326782 -23.575165,11.593445 -36.090973,15.308899c-12.578125,2.15448 -25.503296,0.828613 -38.037781,-0.88562c-22.541382,-5.364624 -38.784821,-23.623352 -52.043884,-41.492798c-7.093933,-7.536316 -8.193848,-17.787048 -8.763733,-27.59082c-0.560791,-4.018677 -1.526733,-8.026978 -3.358246,-11.669495"/>
   <path fill="none" fill-rule="evenodd" stroke="#000000" stroke-width="1px" stroke-linecap="round" stroke-linejoin="round" id="path4318" d="m339.946411,316.571381c4.206421,-11.072083 13.15094,-20.400574 24.653473,-23.777405c15.561951,-4.928162 29.177734,-15.566895 45.817108,-16.996887c14.021423,-2.204102 28.270447,-3.41449 41.820496,-7.906921c4.477936,-1.211731 8.984924,-2.750916 12.708923,-5.604492"/>
   <path fill="none" fill-rule="evenodd" stroke="#000000" stroke-width="1px" stroke-linecap="round" stroke-linejoin="round" id="path4320" d="m334.946411,315.142853c4.297913,-11.448425 10.534698,-23.70166 22.533142,-28.539734c5.631134,-2.517517 11.278564,-5.446594 15.218872,-10.319153c9.299133,-7.241455 20.927551,-10.821533 32.237793,-13.411926c13.601135,-1.224243 26.34906,-7.257507 40.010193,-7.729187"/>
   <path fill="none" fill-rule="evenodd" stroke="#000000" stroke-width="1px" stroke-linecap="round" stroke-linejoin="round" id="path4322" d="m370.660706,285.142853c9.50415,-5.481201 19.19281,-12.755249 30.78595,-11.732239c13.848511,-1.814697 25.966644,-10.6297 40.1763,-10.658875c5.88681,-0.883911 11.752655,-1.901306 17.609161,-2.966064"/>
   <path fill="none" fill-rule="evenodd" stroke="#000000" stroke-width="1px" stroke-linecap="round" stroke-linejoin="round" id="path4324" d="m329.946411,315.499969c3.346375,-10.326477 4.918701,-22.726379 14.999023,-28.995544c7.09198,-4.084534 15.355347,-5.680969 21.786682,-11.004456"/>
   <path fill="none" fill-rule="evenodd" stroke="#000000" stroke-width="1px" stroke-linecap="round" stroke-linejoin="round" id="path4326" d="m325.303528,315.857147c2.768982,-11.91217 3.59021,-26.080933 14.256744,-34.036194c7.354218,-6.120056 15.931641,-10.477051 23.95755,-15.606689"/>
   <path fill="none" fill-rule="evenodd" stroke="#000000" stroke-width="1px" stroke-linecap="round" stroke-linejoin="round" id="path4328" d="m354.589233,276.571381c21.262512,-9.142212 41.955505,-21.462036 65.524841,-23.322144c1.371643,-0.209045 2.743774,-0.415222 4.118042,-0.606384"/>
   <path fill="none" fill-rule="evenodd" stroke="#000000" stroke-width="1px" stroke-linecap="round" stroke-linejoin="round" id="path4330" d="m346.732117,312.642853c6.189423,-6.869507 14.059204,-11.843811 22.60791,-15.206543c10.049622,-4.616028 20.762634,-7.85553 30.164063,-13.761841c16.456482,-6.72583 35.249268,-1.928711 51.623444,-9.179321c4.781281,-1.915527 9.405975,-4.192078 14.176056,-6.138"/>
   <path fill="none" fill-rule="evenodd" stroke="#000000" stroke-width="1px" stroke-linecap="round" stroke-linejoin="round" id="path4332" d="m344.232117,318.357147c10.060059,-5.959167 20.419556,-11.773743 31.87973,-14.509155c12.962006,-5.256714 24.238861,-15.227661 38.678131,-16.329224c11.599182,-2.660522 23.580627,-3.067932 35.269653,-4.960938c5.879028,-1.809631 11.672546,-4.007507 17.029663,-7.057861"/>
   <path fill="none" fill-rule="evenodd" stroke="#000000" stroke-width="1px" stroke-linecap="round" stroke-linejoin="round" id="path4334" d="m355.660706,317.999969c22.944214,-4.111328 42.023132,-18.872681 64.162231,-25.262146c13.675629,-2.673462 28.583923,-0.913452 41.014648,-8.334045c1.369629,-0.586975 2.739197,-1.17395 4.108826,-1.760925"/>
   <path fill="none" fill-rule="evenodd" stroke="#000000" stroke-width="1px" stroke-linecap="round" stroke-linejoin="round" id="path4336" d="m364.589233,319.785675c18.594849,-1.770142 35.132629,-13.484375 54.226837,-12.013367c8.603577,-0.300964 16.531952,3.679749 24.484711,5.68634c2.215179,0.085205 4.43042,0.17041 6.64563,0.255615"/>
   <path fill="none" fill-rule="evenodd" stroke="#000000" stroke-width="1px" stroke-linecap="round" stroke-linejoin="round" id="path4338" d="m397.446411,307.285675c13.075226,-6.783691 27.260925,-12.698975 42.270996,-12.101685c8.382904,-0.877136 17.070129,-1.842224 24.514709,-6.11261"/>
   <path fill="none" fill-rule="evenodd" stroke="#000000" stroke-width="1px" stroke-linecap="round" stroke-linejoin="round" id="path4340" d="m414.946411,305.857147c14.41925,-4.876038 29.503845,-6.779419 44.642853,-7.5"/>
   <path fill="none" fill-rule="evenodd" stroke="#000000" stroke-width="1px" stroke-linecap="round" stroke-linejoin="round" id="path4342" d="m431.374969,306.928558c7.001373,-0.516724 14.078278,-1.522827 21.071442,-0.357178"/>
   <path fill="none" fill-rule="evenodd" stroke="#000000" stroke-width="1px" stroke-linecap="round" stroke-linejoin="round" id="path4344" d="m333.517822,320.499969c11.183594,7.606445 23.299927,15.645691 37.382874,15.499023c12.936218,-0.358704 25.843689,-1.680786 38.513275,-4.370667c9.151459,-1.780579 18.556244,-1.164368 27.318146,2.085938"/>
   <path fill="none" fill-rule="evenodd" stroke="#000000" stroke-width="1px" stroke-linecap="round" stroke-linejoin="round" id="path4346" d="m347.089264,322.642853c20.287262,8.348633 43.285706,8.375732 64.187408,2.308289c9.239594,-1.871704 18.432373,0.625916 27.598328,1.620239"/>
   <path fill="none" fill-rule="evenodd" stroke="#000000" stroke-width="1px" stroke-linecap="round" stroke-linejoin="round" id="path4348" d="m367.446411,322.285675c10.501312,0.244385 21.380524,1.369629 31.422913,-2.455933c15.074646,-2.375671 30.682556,-2.137146 45.71994,0.31311"/>
   <path fill="none" fill-rule="evenodd" stroke="#000000" stroke-width="1px" stroke-linecap="round" stroke-linejoin="round" id="path4350" d="m328.517822,322.285675c9.906128,9.074646 21.678345,18.107117 35.7258,18.334534c9.407623,2.07843 19.456604,3.675659 28.616974,-0.223755c11.230286,-2.307007 23.036133,-2.028198 34.235657,0.161316l1.242188,0.344482l1.250824,0.312012"/>
   <path fill="none" fill-rule="evenodd" stroke="#000000" stroke-width="1px" stroke-linecap="round" stroke-linejoin="round" id="path4352" d="m322.446411,324.071381c8.270294,7.593384 17.346649,14.63324 28.210785,18.026123c11.627777,3.952332 23.726349,7.228271 36.106567,6.889954c8.798096,0.176819 17.598175,-0.004883 26.396942,0.083923"/>
   <path fill="none" fill-rule="evenodd" stroke="#000000" stroke-width="1px" stroke-linecap="round" stroke-linejoin="round" id="path4354" d="m318.517822,325.499969c7.348785,7.030823 14.480164,14.845032 24.197021,18.574341c17.225159,9.497925 37.189484,12.347168 56.618713,12.343079l1.378174,0.071106l1.377533,0.082886"/>
   <path fill="none" fill-rule="evenodd" stroke="#000000" stroke-width="1px" stroke-linecap="round" stroke-linejoin="round" id="path4356" d="m312.446411,326.571381c9.417511,8.826599 18.382446,18.523193 30.141327,24.288391c14.566376,8.382385 31.907257,10.485779 48.430084,10.711609"/>
   <path fill="none" fill-rule="evenodd" stroke="#000000" stroke-width="1px" stroke-linecap="round" stroke-linejoin="round" id="path4358" d="m306.732117,327.999969c11.914917,12.814697 24.737152,26.068237 41.979675,31.282959c7.865723,2.768555 16.120667,4.167297 24.091766,6.574219"/>
   <path fill="none" fill-rule="evenodd" stroke="#000000" stroke-width="1px" stroke-linecap="round" stroke-linejoin="round" id="path4360" d="m320.660706,319.428558c0.59021,-13.059937 1.419128,-27.353943 10.555389,-37.635925c2.324738,-2.675659 4.912018,-5.105774 7.301727,-7.721252"/>
   <path fill="none" fill-rule="evenodd" stroke="#000000" stroke-width="1px" stroke-linecap="round" stroke-linejoin="round" id="path4362" d="m313.875,320.857147c1.99353,-13.721191 3.878479,-28.439148 12.142822,-40"/>
   <path fill="none" fill-rule="evenodd" stroke="#000000" stroke-width="1px" stroke-linecap="round" stroke-linejoin="round" id="path4364" d="m306.017822,320.142853c3.833252,-12.657104 5.253845,-27.061279 14.642883,-37.142883"/>
   <path fill="none" fill-rule="evenodd" stroke="#000000" stroke-width="1px" stroke-linecap="round" stroke-linejoin="round" id="path4366" d="m299.232117,315.857147c2.138794,-12.414307 9.360107,-22.874207 16.071411,-33.214294"/>
   <path fill="none" fill-rule="evenodd" stroke="#000000" stroke-width="1px" stroke-linecap="round" stroke-linejoin="round" id="path4368" d="m293.875,307.999969c0.849976,-9.845459 7.962067,-17.393188 13.928558,-24.642822"/>
   <path fill="none" fill-rule="evenodd" stroke="#000000" stroke-width="1px" stroke-linecap="round" stroke-linejoin="round" id="path4370" d="m288.7883,297.433624c3.80957,-5 7.619049,-10 11.428589,-15"/>
  </g>
  <g display="inline" id="layer1">
   <path fill="none" fill-rule="evenodd" stroke="#000000" stroke-width="3.75" stroke-linecap="round" stroke-linejoin="round" stroke-miterlimit="4" id="path2453" d="m82.564285,262.224274c-15.476379,-5.705811 -28.828979,-16.175293 -38.91893,-29.468506c-6.86235,-7.774353 -16.030762,-14.17041 -17.508957,-25.162872c-2.019653,-6.348175 -6.084457,-14.744446 -3.658539,-19.266357c-12.332489,-6.286652 -6.467567,-22.297028 -3.656425,-32.507263c4.930183,-8.865845 -5.597542,-18.05246 0.60833,-26.430054c8.74498,-3.381195 0.913795,-12.210754 6.293915,-18.487701c3.962677,-6.508759 10.355164,-12.982208 18.454819,-13.837158c-0.82399,-10.266815 9.136566,-15.687714 13.131989,-24.243683c8.649094,-7.467285 15.999573,-17.152069 27.98378,-18.924377c10.225861,-5.920715 22.303772,-7.127472 31.909698,-14.330536c9.279541,-6.363831 19.519745,-10.234894 30.654831,-11.784027c14.884476,-2.896332 29.576736,-6.409912 43.29689,-13.04483c24.742523,-4.118256 50.14212,-9.326721 75.181534,-6.16037c10.312256,3.816498 20.624207,-3.641174 31.294189,-2.811554c14.879791,-1.183441 29.48468,4.34256 44.246643,6.036133c12.303314,3.808411 24.80307,8.21524 36.533417,13.334656c5.762238,7.542023 16.949921,4.747742 23.093353,12.11969c9.138062,7.370911 21.654297,12.579712 26.531677,23.626068c0.547699,7.04126 9.96582,9.819824 14.479126,14.70047c12.021606,7.724731 20.144165,19.892609 28.30304,31.207184c1.769287,6.238312 5.502625,13.814911 3.518127,18.897827c11.483337,10.064056 16.598022,25.037689 24.915466,37.542328c1.47168,8.428436 7.678772,16.726166 5.555847,25.253815c6.162781,4.736877 6.843323,13.898895 8.978271,20.885437c-1.249084,10.142975 -0.065308,21.126129 -7.700867,29.063751c-3.837402,8.035217 -9.947327,13.800781 -17.870544,17.755371c-7.565369,4.580872 -17.403198,3.775452 -25.481201,0.721436c-19.852905,-6.017029 -40.652832,-5.884888 -60.961243,-9.332092c-11.097046,4.700073 -20.872925,11.979675 -32.893921,14.500183c-11.187012,3.570007 -22.885529,9.549011 -34.786316,5.702881c0.299744,10.575745 -12.312195,9.97876 -19.875,11.383362c-14.457062,2.873596 -29.367371,3.518555 -43.817017,5.321228c-15.958786,8.706177 -33.224533,15.683472 -47.998886,26.16626c-6.294464,7.787781 -16.090942,12.463623 -26.118591,10.010681c-10.966583,-0.776489 -19.680298,-9.35791 -29.761139,-13.332581c-8.619598,-5.538696 -20.185455,-2.022034 -28.07843,-9.467407c-6.477997,-3.132385 -11.0867,-9.766846 -14.594406,-15.609741c-4.047409,-5.43689 5.288589,-17.733459 -2.430313,-17.714905c-12.951401,-0.770935 -21.862198,0.478455 -38.854218,-2.312744z"/>
   <path fill="none" fill-rule="evenodd" stroke="#000000" stroke-width="2.5" stroke-linecap="round" stroke-linejoin="round" stroke-miterlimit="4" id="path3230" d="m143.678528,283.437469c19.408585,-6.949707 24.674515,-29.405029 40.799667,-40.456116c11.968872,-8.243347 25.047028,-21.525757 40.911713,-15.392639c20.366058,6.75061 42.57402,-0.792175 58.509933,-14.118408c11.526886,-10.221863 26.669281,-15.475433 42.02243,-13.251007c17.795502,4.677032 21.76358,-12.830811 27.252136,-25.209106c6.882294,-13.483063 23.247345,-18.608917 26.81369,-34.428741c8.909546,-13.769073 14.540588,-29.365265 17.166199,-45.543884c0.260559,-11.914398 8.000854,-20.904846 15.462463,-29.353943c1.091919,-1.563538 2.056183,-3.222961 2.792786,-4.984772"/>
   <path fill="none" fill-rule="evenodd" stroke="#000000" stroke-width="1.25" stroke-linecap="round" stroke-linejoin="round" stroke-miterlimit="4" id="path3235" d="m182.064316,309.701447c10.674408,-7.366577 20.459198,-16.206116 27.762878,-26.970764c6.294708,-5.743225 15.446198,-4.007141 23.126953,-5.861389c7.173035,-0.166992 13.782471,-3.143433 19.634552,-7.102173c5.175827,-4.241394 10.90593,0.572388 15.573105,3.189636c5.246338,3.430481 10.327759,7.124023 15.927948,9.975647"/>
   <path fill="none" fill-rule="evenodd" stroke="#000000" stroke-width="3.75" stroke-linecap="round" stroke-linejoin="round" stroke-miterlimit="4" id="path3250" d="m123.980545,264.749664c8.78331,-20.295715 17.605331,-41.369263 36.765167,-54.199829c19.892853,-15.410553 43.349426,-33.773743 69.891876,-31.400055c25.977768,9.365479 30.509811,-22.394897 49.053207,-31.480865c16.204529,-9.150818 41.201904,2.626221 51.655457,-17.936707c8.908813,-17.621674 11.600647,-15.667114 16.252747,-21.42276"/>
   <path fill="none" fill-rule="evenodd" stroke="#000000" stroke-width="2.5" stroke-linecap="round" stroke-linejoin="round" stroke-miterlimit="4" id="path3255" d="m263.886658,162.219177c-5.344055,-20.049042 -12.927841,-32.555603 -8.113327,-53.361572c1.766464,-9.978027 13.334702,-30.306427 21.177048,-36.576904c17.185669,-26.567719 17.082092,-20.359833 41.045044,-27.549957"/>
   <path fill="none" fill-rule="evenodd" stroke="#000000" stroke-width="1.25" stroke-linecap="round" stroke-linejoin="round" stroke-miterlimit="4" id="path3264" d="m390.749329,117.033997c-6.020203,-21.32608 -27.742401,-15.660645 -35.797668,-35.960205c-5.456055,-8.705261 -10.834747,-34.567657 -16.073334,-43.430542c-10.722809,-5.2164 -19.454437,-15.43335 -20.719147,-27.553833c-0.244812,-0.807861 -0.489624,-1.615723 -0.734436,-2.423584"/>
   <path fill="none" fill-rule="evenodd" stroke="#000000" stroke-width="1.25" stroke-linecap="round" stroke-linejoin="round" stroke-miterlimit="4" id="path3278" d="m405.308014,136.460297c3.168732,4.694733 6.702667,9.14212 9.643524,13.989868c1.365967,12.942902 5.328583,26.379883 0.97522,39.178772c-2.77243,9.251617 -6.220581,18.711639 -5.281189,28.531982c-3.073334,5.253174 0.528473,13.154602 6.688202,13.854797c5.436584,2.570618 12.919952,3.262634 17.283783,-1.67334c6.651062,-5.725891 15.323853,-9.985535 24.301636,-8.851563c5.506104,-0.282227 10.920166,-5.43811 9.59021,-11.214294c-0.147766,-1.58017 -0.540161,-3.129974 -1.076965,-4.620789"/>
   <path fill="none" fill-rule="evenodd" stroke="#000000" stroke-width="2.5" stroke-linecap="round" stroke-linejoin="round" stroke-miterlimit="4" id="path3306" d="m434.602478,195.55423c13.741699,-2.916931 27.451385,-6.057495 40.911194,-10.101532c3.650818,0.880341 8.083984,0.636871 10.716125,3.787354c4.420654,3.465576 8.710938,7.247467 11.742065,12.030212c5.084473,6.231262 8.871765,13.352203 12.375,20.551178l0.261047,0.503479l0.261047,0.503418"/>
   <path fill="none" fill-rule="evenodd" stroke="#000000" stroke-width="1.25" stroke-linecap="round" stroke-linejoin="round" stroke-miterlimit="4" id="path3308" d="m474.503479,184.947632c2.016357,-6.798767 5.723938,-14.159607 2.759827,-21.253845c-3.502563,-9.458466 -11.070435,-16.582214 -15.612366,-25.449036c-1.768768,-4.610046 -3.761108,-9.652252 -8.335175,-12.162842c-4.341705,-3.062531 -9.782135,-3.467194 -14.867004,-4.134003c-8.228973,-2.278259 -11.930145,-10.778534 -16.978302,-16.802338"/>
   <path fill="none" fill-rule="evenodd" stroke="#000000" stroke-width="1.25" stroke-linecap="round" stroke-linejoin="round" stroke-miterlimit="4" id="path3329" d="m390.155762,226.868927c-6.79718,1.711487 -13.390747,4.351196 -20.357544,5.31012c-10.064026,1.050659 -20.179871,1.759277 -30.300232,1.707214c-3.3703,-0.000427 -6.354065,-1.874207 -8.516724,-4.344299c-3.391235,-3.743286 -6.172729,-7.988281 -9.537231,-11.759033c-0.835419,-1.011322 -1.6716,-2.022034 -2.504028,-3.035797"/>
   <path fill="none" fill-rule="evenodd" stroke="#000000" stroke-width="1.25" stroke-linecap="round" stroke-linejoin="round" stroke-miterlimit="4" id="path3335" d="m325.505981,263.234467c-9.689056,-11.185974 -24.662842,-16.9151 -31.797974,-30.521912c-4.253387,-6.249573 -6.273376,-13.969421 -5.577667,-21.500977"/>
   <path fill="none" fill-rule="evenodd" stroke="#000000" stroke-width="1.25" stroke-linecap="round" stroke-linejoin="round" stroke-miterlimit="4" id="path3337" d="m289.140503,257.173492c5.742645,-2.950195 13.028198,-4.181152 16.66748,-10.101501"/>
   <path fill="none" fill-rule="evenodd" stroke="#000000" stroke-width="1.25" stroke-linecap="round" stroke-linejoin="round" stroke-miterlimit="4" id="path3339" d="m370.457764,179.896851c11.276489,3.059479 25.798218,12.541504 15.673492,25.311462c-1.076294,2.169586 -2.42807,4.208038 -4.056732,6.003265"/>
   <path fill="none" fill-rule="evenodd" stroke="#000000" stroke-width="1.25" stroke-linecap="round" stroke-linejoin="round" stroke-miterlimit="4" id="path3341" d="m388.640533,189.998383c4.545685,-2.020294 9.091339,-4.040619 13.637054,-6.060913"/>
   <path fill="none" fill-rule="evenodd" stroke="#000000" stroke-width="1.25" stroke-linecap="round" stroke-linejoin="round" stroke-miterlimit="4" id="path3343" d="m416.419739,165.249634c-6.829224,2.631775 -13.565002,5.504517 -20.203064,8.586304"/>
   <path fill="none" fill-rule="evenodd" stroke="#000000" stroke-width="1.25" stroke-linecap="round" stroke-linejoin="round" stroke-miterlimit="4" id="path3347" d="m397.731873,122.318176c10.671875,-10.284943 23.096466,-18.499756 35.637299,-26.300903c2.583344,-4.294983 2.619171,-9.474976 4.263763,-14.105225"/>
   <path fill="none" fill-rule="evenodd" stroke="#000000" stroke-width="1.25" stroke-linecap="round" stroke-linejoin="round" stroke-miterlimit="4" id="path3349" d="m468.442566,253.63797c12.699036,-7.850342 21.838715,-22.558411 18.657166,-37.832733c-0.497253,-3.83075 -1.487762,-7.602661 -2.999756,-11.159637"/>
   <path fill="none" fill-rule="evenodd" stroke="#000000" stroke-width="1.25" stroke-linecap="round" stroke-linejoin="round" stroke-miterlimit="4" id="path3351" d="m346.719177,194.544067c4.233795,3.625244 13.141083,5.250793 11.61676,12.626892"/>
   <path fill="none" fill-rule="evenodd" stroke="#000000" stroke-width="1.25" stroke-linecap="round" stroke-linejoin="round" stroke-miterlimit="4" id="path3353" d="m358.335938,201.615143c2.18866,-1.010162 4.377319,-2.020294 6.565979,-3.030457"/>
   <path fill="none" fill-rule="evenodd" stroke="#000000" stroke-width="1.25" stroke-linecap="round" stroke-linejoin="round" stroke-miterlimit="4" id="path3355" d="m237.11763,263.739532c-9.654572,-3.393738 -20.343231,-13.688171 -15.152283,-24.748779"/>
   <path fill="none" fill-rule="evenodd" stroke="#000000" stroke-width="1.25" stroke-linecap="round" stroke-linejoin="round" stroke-miterlimit="4" id="path3357" d="m361.366425,262.72934l-7.071075,-8.081177"/>
   <path fill="none" fill-rule="evenodd" stroke="#000000" stroke-width="1.25" stroke-linecap="round" stroke-linejoin="round" stroke-miterlimit="4" d="m455.815643,169.795319c0.000946,-9.449219 -0.162018,-32.736694 -15.152252,-26.769012c-10.747162,4.862335 -12.161743,20.304749 -21.213196,21.718262" id="path3345"/>
   <path fill="none" fill-rule="evenodd" stroke="#000000" stroke-width="1.25" stroke-linecap="round" stroke-linejoin="round" stroke-miterlimit="4" id="path3361" d="m458.341034,128.379059l1.515228,-13.637054l-3.535522,-12.626892l-2.525421,-10.101532"/>
   <path fill="none" fill-rule="evenodd" stroke="#000000" stroke-width="1.25" stroke-linecap="round" stroke-linejoin="round" stroke-miterlimit="4" id="path3363" d="m479.55426,167.775024c3.367188,-2.357025 6.734283,-4.71405 10.101501,-7.071075"/>
   <path fill="none" fill-rule="evenodd" stroke="#000000" stroke-width="1.25" stroke-miterlimit="4" id="path3572" d="m123.980545,195.55423c-5.647781,-2.449585 -11.572052,-5.866699 -13.79985,-11.973053c-2.371719,-5.042969 -2.107239,-12.058472 -7.629517,-15.041016c-3.783859,-4.004761 -11.002853,-4.804779 -12.453781,-10.830261c-0.315857,-6.37854 -1.446106,-13.728729 -7.16423,-17.60614c-4.357452,-3.055298 -7.604233,-8.949158 -13.616135,-8.634644c-5.396225,0.107147 -10.562027,6.136139 -15.803009,3.190033c-6.10376,-4.056152 -8.933334,-11.18161 -12.240417,-17.411682c-2.37326,-5.344238 -3.038483,-11.991394 0.494354,-17.00531c0.475433,-0.886292 0.959747,-1.76828 1.400375,-2.672729"/>
   <path fill="none" fill-rule="evenodd" stroke="#000000" stroke-width="1.25" stroke-miterlimit="4" id="path3702" d="m84.079514,221.313141c-3.198807,-3.872253 -6.397629,-7.744537 -9.596451,-11.616791c-0.673431,-3.030457 -1.346863,-6.060913 -2.020294,-9.09137c1.221161,-6.11145 3.320618,-12.170715 7.078049,-17.199066c0.978973,-2.398285 -0.616531,-5.654297 -3.306992,-5.906738c-2.530624,0.46167 -5.258163,1.676086 -7.759995,0.448944c-5.050156,-1.158691 -10.001465,-3.851288 -12.838455,-8.313568c-0.430511,-0.472046 -0.87825,-0.929199 -1.355362,-1.354462"/>
   <path fill="none" fill-rule="evenodd" stroke="#000000" stroke-width="1.25" stroke-miterlimit="4" id="path3762" d="m64.886627,153.127808c-4.040604,-0.673431 -8.081223,-1.346863 -12.121841,-2.020294c-3.030441,1.346863 -6.060898,2.693756 -9.09137,4.040619c-1.175751,3.049103 -3.988113,5.849487 -3.16655,9.363556c0.637238,6.564941 1.258057,13.700256 5.650085,18.983154c3.867783,4.313049 6.827866,9.374939 9.057861,14.701172c1.545197,2.571167 1.85524,5.748718 1.10379,8.622559c-0.018829,0.285339 -0.026764,0.571564 -0.01828,0.857483"/>
   <path fill="none" fill-rule="evenodd" stroke="#000000" stroke-width="1.25" stroke-miterlimit="4" id="path3826" d="m116.404404,50.092255c-3.604233,2.886292 -7.294479,6.498138 -12.211258,6.603333c-6.749435,1.469208 -12.414246,5.772675 -17.352188,10.389801c-6.022202,3.612152 -13.570541,2.19397 -19.762711,5.284515c-4.508499,2.762756 -8.358063,8.226868 -6.640869,13.69458c1.185577,3.187073 4.734558,5.032257 5.176346,8.584076c0.703644,3.43811 2.684006,6.598419 6.045639,7.918518c0.472183,0.306091 0.924622,0.649536 1.308472,1.063263"/>
   <path fill="none" fill-rule="evenodd" stroke="#000000" stroke-width="1.25" stroke-miterlimit="4" id="path3565" d="m191.660782,70.800385c2.700897,-2.730194 5.460632,-5.402161 8.124878,-8.168549c2.821045,-5.721069 5.608215,-11.486755 9.199493,-16.776184c1.205658,-2.080139 2.451202,-4.245209 4.534698,-5.573517c2.64679,-2.117462 5.29361,-4.234894 7.94043,-6.352325"/>
   <path fill="none" fill-rule="evenodd" stroke="#000000" stroke-width="1.25" stroke-miterlimit="4" id="path3689" d="m89.635361,208.686188c12.216751,-1.807648 24.457016,-3.635162 36.805923,-4.223053c2.453903,-0.10141 5.012466,-0.149445 7.220779,-1.366821c2.497025,-0.998779 4.994064,-1.997589 7.491074,-2.996399"/>
   <path fill="none" fill-rule="evenodd" stroke="#000000" stroke-width="1.25" stroke-miterlimit="4" id="path4136" d="m236.612564,134.945068l0,0c2.020294,25.758881 3.535522,26.769043 3.535522,26.769043"/>
   <path fill="none" fill-rule="evenodd" stroke="#000000" stroke-width="1.25" stroke-miterlimit="4" id="path4138" d="m185.094772,110.701416c9.09137,19.192871 4.040619,24.243652 4.040619,24.243652"/>
   <path fill="none" fill-rule="evenodd" stroke="#000000" stroke-width="1.25" stroke-miterlimit="4" id="path4140" d="m299.206116,61.673126c17.172607,14.647186 13.131958,30.809631 13.131958,30.809631"/>
   <path fill="none" fill-rule="evenodd" stroke="#000000" stroke-width="1.25" stroke-miterlimit="4" id="path4142" d="m287.661133,110.542938c1.999298,24.611328 33.529419,28.478638 33.529419,28.478638"/>
   <path fill="none" fill-rule="evenodd" stroke="#000000" stroke-width="1.25" stroke-miterlimit="4" id="path4144" d="m69.937393,247.577057c15.152283,-17.172546 40.406097,-1.010132 40.406097,-1.010132"/>
   <path fill="none" fill-rule="evenodd" stroke="#000000" stroke-width="1.25" stroke-miterlimit="4" id="path3419" d="m220.955185,226.363861c-8.477966,-7.988525 -9.767181,-21.716461 -4.545685,-31.819794"/>
   <path fill="none" fill-rule="evenodd" stroke="#000000" stroke-width="1.25" stroke-miterlimit="4" id="path3421" d="m249.744553,179.896851c-2.893036,9.194458 -8.384216,17.467499 -10.148895,27.033142c-1.058533,1.975342 -3.114044,3.0849 -4.498322,4.786682"/>
   <path fill="none" fill-rule="evenodd" stroke="#000000" stroke-width="1.25" stroke-miterlimit="4" id="path3423" d="m289.645569,174.341003c7.396301,1.532623 14.9711,4.264374 22.588867,2.548706c7.640808,1.066742 9.47998,-8.125854 12.261414,-13.155304"/>
   <path fill="none" fill-rule="evenodd" stroke="#000000" stroke-width="1.25" stroke-miterlimit="4" id="path3425" d="m328.031372,150.097351c7.870117,1.66864 16.339539,4.006805 24.180786,0.944458c6.562805,-0.266968 12.319092,3.399017 18.245605,5.621552"/>
   <path fill="none" fill-rule="evenodd" stroke="#000000" stroke-width="1.25" stroke-miterlimit="4" id="path3427" d="m360.861328,69.285156c3.872253,-0.336731 7.744507,-0.673431 11.61676,-1.010162c5.606506,-4.042389 11.320038,-7.938629 17.172607,-11.61676"/>
   <path fill="none" fill-rule="evenodd" stroke="#000000" stroke-width="1.25" stroke-miterlimit="4" id="path3429" d="m410.863892,61.203918c-6.878662,-7.909363 -17.120575,-11.42807 -26.764404,-14.658569c-7.374725,-3.052551 -16.285278,-4.233307 -23.530945,-0.18866c-2.77478,1.393433 -5.41748,3.053101 -8.293518,4.240631"/>
   <path fill="none" fill-rule="evenodd" stroke="#000000" stroke-width="1.25" stroke-miterlimit="4" id="path3431" d="m370.96283,43.526276c-1.217865,-3.293732 0.858337,-7.348297 4.222961,-8.32373c2.555481,-1.814789 4.437439,-4.387451 6.888733,-6.323486"/>
   <path fill="none" fill-rule="evenodd" stroke="#000000" stroke-width="1.25" stroke-miterlimit="4" id="path3433" d="m291.665894,12.211517c7.488403,1.750549 12.458099,15.34259 1.639465,15.759247c-9.204346,1.632111 -18.721466,3.045807 -26.593018,8.511658c-6.31134,3.975342 -15.414993,9.126251 -13.883682,17.949951c4.387619,6.294739 0.666656,12.350403 -6.436249,13.812134c-7.064758,5.370117 -9.66095,14.370514 -11.82901,22.755402c-3.714935,7.277435 -6.535889,16.406799 -13.688873,20.853241c-9.758545,3.821289 -7.463501,14.855865 -4.609589,22.298218c0.256042,9.640015 -10.117371,12.642059 -14.115051,19.686096c-1.552856,7.967102 -7.895142,12.1698 -13.631104,17.026947c-6.609741,4.866364 -1.199799,12.050842 3.798828,15.547241c0.759827,0.567719 1.552856,1.091003 2.373596,1.566406"/>
   <path fill="none" fill-rule="evenodd" stroke="#000000" stroke-width="2.5" stroke-miterlimit="4" id="path3438" d="m255.300369,13.22168c-10.564392,1.779022 -14.546661,13.281708 -16.311005,22.475433c-6.40271,6.456146 -8.754059,15.976227 -8.763275,24.118134c-5.239868,5.818726 -16.225922,10.170685 -13.515533,19.757782c1.494568,11.854523 -14.122803,11.479767 -22.128693,13.184113c-8.453613,-0.130859 -20.278687,-2.795471 -24.895844,6.627563c-4.657104,9.746429 -0.003296,20.635254 -1.216034,30.886108c-1.729553,15.24057 -11.5177,28.240417 -12.957428,43.603546c-1.514496,10.888702 -0.681763,21.948486 0.792877,32.791534"/>
   <path fill="none" fill-rule="evenodd" stroke="#000000" stroke-width="1.25" stroke-miterlimit="4" id="path3446" d="m149.23436,183.937469c-1.306595,-10.795563 -3.514725,-21.853516 -1.058533,-32.656219c0.699738,-6.152069 0.13356,-12.372223 -0.899307,-18.453156c-1.389359,-4.118988 -4.532501,-7.28186 -6.628464,-11.015015"/>
   <path fill="none" fill-rule="evenodd" stroke="#000000" stroke-width="1.25" stroke-miterlimit="4" id="path3490" d="m217.924728,16.252136c-0.473389,4.34552 -5.423157,5.536072 -9.067413,5.782532c-10.07074,1.061127 -19.34079,5.532227 -29.076233,8.029999c-6.74588,2.358368 -12.969635,5.919342 -19.435028,8.915894c-3.198822,5.050781 -6.397644,10.101532 -9.596466,15.152313c-0.069672,4.217529 0.802765,9.746948 5.464783,11.191956c4.70224,1.977753 9.234375,4.328186 13.882935,6.424408c4.953552,4.394409 7.239471,10.819214 10.667328,16.319946c0.774872,1.480591 1.539764,2.96637 2.309845,4.449463"/>
   <path fill="none" fill-rule="evenodd" stroke="#000000" stroke-width="1.25" stroke-miterlimit="4" id="path3502" d="m167.417099,102.620178c-3.356567,-2.24881 -7.103241,-4.578491 -11.317902,-4.208801c-4.080597,-0.450378 -8.147644,0.548492 -11.865921,2.167084c-5.046997,1.557556 -10.031677,3.508484 -14.342529,6.613495c-3.077103,1.726196 -5.675064,4.137512 -7.955368,6.800415c-2.447464,2.361176 -4.735611,5.032013 -5.729996,8.349457c-0.851257,2.516663 -2.725922,4.898865 -2.186417,7.660461c0.096115,3.746674 0.116119,7.692474 2.060364,11.031647c1.118515,2.684418 2.23703,5.368835 3.35553,8.053253"/>
   <path fill="none" fill-rule="evenodd" stroke="#000000" stroke-width="1.25" stroke-miterlimit="4" id="path3509" d="m112.363785,129.389221c-4.947266,0.905823 -11.315323,-1.43222 -12.376343,-6.849243c-2.945786,-5.149445 -1.738876,-12.515381 -7.101685,-16.229187c-6.028183,-1.189362 -9.949051,-7.87262 -8.341034,-13.749237c1.229568,-7.306458 8.340622,-11.128693 13.973053,-14.837006c9.35733,-5.695099 19.999939,-9.155518 28.73497,-15.889374c4.61937,-4.016296 -0.200104,-10.242218 2.015228,-14.879639c3.35498,-5.052887 9.987549,-5.38504 15.075165,-7.737122c5.290176,-2.042877 11.477005,-3.313995 16.749802,-0.509094l0.768341,0.27124"/>
   <path fill="none" fill-rule="evenodd" stroke="#000000" stroke-width="1.25" stroke-miterlimit="4" id="path3522" d="m138.490341,59.984558c-0.65976,4.581848 -7.108337,8.43869 -8.435837,14.455811c2.251953,10.490875 -1.94635,11.102905 -12.33461,11.085236c-3.956833,1.117676 -5.870102,5.20813 -7.089905,8.789307c-1.325211,3.817139 -1.780106,7.856537 -2.306808,11.84082"/>
   <path fill="none" fill-rule="evenodd" stroke="#000000" stroke-width="1px" id="path3580" d="m165.901871,68.78006c0.192505,-4.682098 1.29245,-9.447601 4.964905,-12.64621c2.314514,-2.429474 3.935303,-5.449921 4.078186,-8.830719l0.039001,-0.195007l0.009277,-0.046326"/>
  </g>
 </g>
</svg>