<?xml version="1.0" encoding="UTF-8" standalone="no"?>
<!-- Created with Inkscape (http://www.inkscape.org/) -->

<svg
   xmlns:ns0="http://www.iki.fi/pav/software/textext/"
   xmlns:dc="http://purl.org/dc/elements/1.1/"
   xmlns:cc="http://creativecommons.org/ns#"
   xmlns:rdf="http://www.w3.org/1999/02/22-rdf-syntax-ns#"
   xmlns:svg="http://www.w3.org/2000/svg"
   xmlns="http://www.w3.org/2000/svg"
   xmlns:sodipodi="http://sodipodi.sourceforge.net/DTD/sodipodi-0.dtd"
   xmlns:inkscape="http://www.inkscape.org/namespaces/inkscape"
   width="744.09448819"
   height="1052.3622047"
   id="svg2"
   version="1.1"
   inkscape:version="0.48.3.1 r9886"
   sodipodi:docname="imagechain_mcmc.svg">
  <sodipodi:namedview
     id="base"
     pagecolor="#ffffff"
     bordercolor="#666666"
     borderopacity="1.0"
     inkscape:pageopacity="0.0"
     inkscape:pageshadow="2"
     inkscape:zoom="1.1409259"
     inkscape:cx="259.52394"
     inkscape:cy="734.75101"
     inkscape:document-units="px"
     inkscape:current-layer="layer1"
     showgrid="true"
     showguides="false"
     inkscape:snap-global="false"
     inkscape:window-width="1680"
     inkscape:window-height="1028"
     inkscape:window-x="0"
     inkscape:window-y="0"
     inkscape:window-maximized="1">
    <inkscape:grid
       type="xygrid"
       id="grid2985" />
  </sodipodi:namedview>
  <defs
     id="defs4">
    <marker
       inkscape:stockid="Arrow1Mend"
       orient="auto"
       refY="0.0"
       refX="0.0"
       id="Arrow1Mend"
       style="overflow:visible;">
      <path
         id="path4908"
         d="M 0.0,0.0 L 5.0,-5.0 L -12.5,0.0 L 5.0,5.0 L 0.0,0.0 z "
         style="fill-rule:evenodd;stroke:#000000;stroke-width:1.0pt;"
         transform="scale(0.4) rotate(180) translate(10,0)" />
    </marker>
    <marker
       inkscape:stockid="Arrow1Lend"
       orient="auto"
       refY="0.0"
       refX="0.0"
       id="Arrow1Lend"
       style="overflow:visible;">
      <path
         id="path4902"
         d="M 0.0,0.0 L 5.0,-5.0 L -12.5,0.0 L 5.0,5.0 L 0.0,0.0 z "
         style="fill-rule:evenodd;stroke:#000000;stroke-width:1.0pt;"
         transform="scale(0.8) rotate(180) translate(12.5,0)" />
    </marker>
    <marker
       inkscape:stockid="Arrow1MendE"
       orient="auto"
       refY="0.0"
       refX="0.0"
       id="Arrow1MendE"
       style="overflow:visible;">
      <path
         id="path6054"
         d="M 0.0,0.0 L 5.0,-5.0 L -12.5,0.0 L 5.0,5.0 L 0.0,0.0 z "
         style="stroke:#ff0000;stroke-width:1.0pt;fill:#ff0000;fill-rule:evenodd"
         transform="scale(0.4) rotate(180) translate(10,0)" />
    </marker>
    <marker
       inkscape:stockid="Arrow1MendE"
       orient="auto"
       refY="0"
       refX="0"
       id="Arrow1MendE-9"
       style="overflow:visible">
      <path
         id="path6054-3"
         d="M 0,0 5,-5 -12.5,0 5,5 0,0 z"
         style="fill:#ff0000;fill-rule:evenodd;stroke:#ff0000;stroke-width:1pt"
         transform="matrix(-0.4,0,0,-0.4,-4,0)"
         inkscape:connector-curvature="0" />
    </marker>
    <marker
       inkscape:stockid="Arrow1MendEK"
       orient="auto"
       refY="0.0"
       refX="0.0"
       id="Arrow1MendEK"
       style="overflow:visible;">
      <path
         id="path6197"
         d="M 0.0,0.0 L 5.0,-5.0 L -12.5,0.0 L 5.0,5.0 L 0.0,0.0 z "
         style="fill-rule:evenodd;stroke:#00ff00;stroke-width:1.0pt;fill:#00ff00"
         transform="scale(0.4) rotate(180) translate(10,0)" />
    </marker>
  </defs>
  <metadata
     id="metadata7">
    <rdf:RDF>
      <cc:Work
         rdf:about="">
        <dc:format>image/svg+xml</dc:format>
        <dc:type
           rdf:resource="http://purl.org/dc/dcmitype/StillImage" />
        <dc:title></dc:title>
      </cc:Work>
    </rdf:RDF>
  </metadata>
  <g
     inkscape:label="Layer 1"
     inkscape:groupmode="layer"
     id="layer1">
    <path
       sodipodi:type="arc"
       style="opacity:1;fill:#000000;fill-opacity:0.15025906;stroke:#001bff;stroke-width:4;stroke-miterlimit:4;stroke-opacity:1;stroke-dasharray:none;stroke-dashoffset:0"
       id="path3040-8"
       sodipodi:cx="213.86139"
       sodipodi:cy="201.29904"
       sodipodi:rx="70.994972"
       sodipodi:ry="184.93752"
       d="m 284.85636,201.29904 a 70.994972,184.93752 0 1 1 -141.98994,0 70.994972,184.93752 0 1 1 141.98994,0 z"
       transform="matrix(1.1522642,0,0,0.99921042,88.428545,16.72411)" />
    <path
       sodipodi:type="arc"
       style="opacity:1;fill:#000000;fill-opacity:0.15025906;stroke:#001bff;stroke-width:4;stroke-miterlimit:4;stroke-opacity:1;stroke-dasharray:none;stroke-dashoffset:0"
       id="path3040-2"
       sodipodi:cx="213.86139"
       sodipodi:cy="201.29904"
       sodipodi:rx="70.994972"
       sodipodi:ry="184.93752"
       d="m 284.85636,201.29904 a 70.994972,184.93752 0 1 1 -141.98994,0 70.994972,184.93752 0 1 1 141.98994,0 z"
       transform="matrix(1.1522642,0,0,0.99921042,292.61106,16.72411)" />
    <path
       sodipodi:type="arc"
       style="opacity:1;fill:#000000;fill-opacity:0.15025906;stroke:#001bff;stroke-width:4;stroke-miterlimit:4;stroke-opacity:1;stroke-dasharray:none;stroke-dashoffset:0"
       id="path3040"
       sodipodi:cx="213.86139"
       sodipodi:cy="201.29904"
       sodipodi:rx="70.994972"
       sodipodi:ry="184.93752"
       d="m 284.85636,201.29904 a 70.994972,184.93752 0 1 1 -141.98994,0 70.994972,184.93752 0 1 1 141.98994,0 z"
       transform="matrix(1.1522642,0,0,0.99921042,-116.99347,16.72411)" />
    <path
       style="fill:none;stroke:#000000;stroke-width:1.20322418;stroke-linecap:butt;stroke-linejoin:miter;stroke-miterlimit:4;stroke-opacity:1;stroke-dasharray:none"
       d="M 203.20538,155.86035 62.515647,275.43361"
       id="path3844-8"
       inkscape:connector-curvature="0" />
    <path
       style="fill:none;stroke:#000000;stroke-width:1.20322418;stroke-linecap:butt;stroke-linejoin:miter;stroke-miterlimit:4;stroke-opacity:1;stroke-dasharray:none"
       d="M 202.15078,74.128603 61.461039,193.70186"
       id="path3844-3"
       inkscape:connector-curvature="0" />
    <path
       style="fill:none;stroke:#000000;stroke-width:1.20322418;stroke-linecap:butt;stroke-linejoin:miter;stroke-miterlimit:4;stroke-opacity:1;stroke-dasharray:none"
       d="M 202.61168,241.14993 61.921946,360.72319"
       id="path3844"
       inkscape:connector-curvature="0" />
    <path
       style="fill:#ff0000;fill-opacity:1;stroke:#000000;stroke-width:1.20322418;stroke-linecap:butt;stroke-linejoin:miter;stroke-miterlimit:4;stroke-opacity:1;stroke-dasharray:none"
       d="m 173.06141,292.43968 0,-222.596486"
       id="path3817-3"
       inkscape:connector-curvature="0" />
    <path
       sodipodi:type="arc"
       style="fill:#ffffff;fill-opacity:1;stroke:#0000ff;stroke-width:3;stroke-miterlimit:4;stroke-opacity:1;stroke-dasharray:none;stroke-dashoffset:0"
       id="path2987-9"
       sodipodi:cx="225"
       sodipodi:cy="262.36218"
       sodipodi:rx="25"
       sodipodi:ry="20"
       d="m 250,262.36218 a 25,20 0 1 1 -50,0 25,20 0 1 1 50,0 z"
       transform="matrix(0,-0.56379182,-0.70473975,0,357.95847,393.1658)" />
    <path
       style="fill:#ff0000;fill-opacity:1;stroke:#000000;stroke-width:1.20322418;stroke-linecap:butt;stroke-linejoin:miter;stroke-miterlimit:4;stroke-opacity:1;stroke-dasharray:none"
       d="m 130.94856,328.53641 0,-222.59649"
       id="path3817-1"
       inkscape:connector-curvature="0" />
    <path
       style="fill:#ff0000;fill-opacity:1;stroke:#000000;stroke-width:1.20322418;stroke-linecap:butt;stroke-linejoin:miter;stroke-miterlimit:4;stroke-opacity:1;stroke-dasharray:none"
       d="m 88.835714,364.63313 0,-222.59648"
       id="path3817"
       inkscape:connector-curvature="0" />
    <path
       sodipodi:type="arc"
       style="fill:#ffffff;fill-opacity:1;stroke:#0000ff;stroke-width:3;stroke-miterlimit:4;stroke-opacity:1;stroke-dasharray:none;stroke-dashoffset:0"
       id="path2987-3"
       sodipodi:cx="225"
       sodipodi:cy="262.36218"
       sodipodi:rx="25"
       sodipodi:ry="20"
       d="m 250,262.36218 a 25,20 0 1 1 -50,0 25,20 0 1 1 50,0 z"
       transform="matrix(0,-0.56379182,-0.70473975,0,315.84562,429.26252)" />
    <path
       sodipodi:type="arc"
       style="fill:#ffffff;fill-opacity:1;stroke:#0000ff;stroke-width:3;stroke-miterlimit:4;stroke-opacity:1;stroke-dasharray:none;stroke-dashoffset:0"
       id="path2987-8-9"
       sodipodi:cx="225"
       sodipodi:cy="262.36218"
       sodipodi:rx="25"
       sodipodi:ry="20"
       d="m 250,262.36218 a 25,20 0 1 1 -50,0 25,20 0 1 1 50,0 z"
       transform="matrix(0,-0.56379182,-0.70473975,0,315.84562,345.03683)" />
    <path
       sodipodi:type="arc"
       style="fill:#ff0000;fill-opacity:1;stroke:#ff0000;stroke-width:3;stroke-miterlimit:4;stroke-opacity:1;stroke-dasharray:none;stroke-dashoffset:0"
       id="path2987-4-2"
       sodipodi:cx="225"
       sodipodi:cy="262.36218"
       sodipodi:rx="25"
       sodipodi:ry="20"
       d="m 250,262.36218 a 25,20 0 1 1 -50,0 25,20 0 1 1 50,0 z"
       transform="matrix(0,-0.56379182,-0.70473975,0,315.84562,260.81113)" />
    <path
       sodipodi:type="arc"
       style="fill:#ffffff;fill-opacity:1;stroke:#0000ff;stroke-width:3;stroke-miterlimit:4;stroke-opacity:1;stroke-dasharray:none;stroke-dashoffset:0"
       id="path2987-8-8"
       sodipodi:cx="225"
       sodipodi:cy="262.36218"
       sodipodi:rx="25"
       sodipodi:ry="20"
       d="m 250,262.36218 a 25,20 0 1 1 -50,0 25,20 0 1 1 50,0 z"
       transform="matrix(0,-0.56379182,-0.70473975,0,357.95847,308.9401)" />
    <path
       sodipodi:type="arc"
       style="fill:#ffffff;fill-opacity:1;stroke:#0000ff;stroke-width:3;stroke-miterlimit:4;stroke-opacity:1;stroke-dasharray:none;stroke-dashoffset:0"
       id="path2987-4-0"
       sodipodi:cx="225"
       sodipodi:cy="262.36218"
       sodipodi:rx="25"
       sodipodi:ry="20"
       d="m 250,262.36218 a 25,20 0 1 1 -50,0 25,20 0 1 1 50,0 z"
       transform="matrix(0,-0.56379182,-0.70473975,0,357.95847,224.7144)" />
    <path
       sodipodi:type="arc"
       style="fill:#ffffff;fill-opacity:1;stroke:#0000ff;stroke-width:3;stroke-miterlimit:4;stroke-opacity:1;stroke-dasharray:none;stroke-dashoffset:0"
       id="path2987"
       sodipodi:cx="225"
       sodipodi:cy="262.36218"
       sodipodi:rx="25"
       sodipodi:ry="20"
       d="m 250,262.36218 a 25,20 0 1 1 -50,0 25,20 0 1 1 50,0 z"
       transform="matrix(0,-0.56379182,-0.70473975,0,273.73277,465.35925)" />
    <path
       sodipodi:type="arc"
       style="fill:#ffffff;fill-opacity:1;stroke:#0000ff;stroke-width:3;stroke-miterlimit:4;stroke-opacity:1;stroke-dasharray:none;stroke-dashoffset:0"
       id="path2987-8"
       sodipodi:cx="225"
       sodipodi:cy="262.36218"
       sodipodi:rx="25"
       sodipodi:ry="20"
       d="m 250,262.36218 a 25,20 0 1 1 -50,0 25,20 0 1 1 50,0 z"
       transform="matrix(0,-0.56379182,-0.70473975,0,273.73277,381.13356)" />
    <path
       sodipodi:type="arc"
       style="fill:#ffffff;fill-opacity:1;stroke:#0000ff;stroke-width:3;stroke-miterlimit:4;stroke-opacity:1;stroke-dasharray:none;stroke-dashoffset:0"
       id="path2987-4"
       sodipodi:cx="225"
       sodipodi:cy="262.36218"
       sodipodi:rx="25"
       sodipodi:ry="20"
       d="m 250,262.36218 a 25,20 0 1 1 -50,0 25,20 0 1 1 50,0 z"
       transform="matrix(0,-0.56379182,-0.70473975,0,273.73277,296.90786)" />
    <path
       style="fill:none;stroke:#000000;stroke-width:1.20322418;stroke-linecap:butt;stroke-linejoin:miter;stroke-miterlimit:4;stroke-opacity:1;stroke-dasharray:none"
       d="M 388.15833,155.86035 247.4686,275.43361"
       id="path3844-8-1"
       inkscape:connector-curvature="0" />
    <path
       style="fill:none;stroke:#000000;stroke-width:1.20322418;stroke-linecap:butt;stroke-linejoin:miter;stroke-miterlimit:4;stroke-opacity:1;stroke-dasharray:none"
       d="M 387.10373,74.128603 246.41399,193.70186"
       id="path3844-3-7"
       inkscape:connector-curvature="0" />
    <path
       style="fill:none;stroke:#000000;stroke-width:1.20322418;stroke-linecap:butt;stroke-linejoin:miter;stroke-miterlimit:4;stroke-opacity:1;stroke-dasharray:none"
       d="M 387.56463,241.14993 246.8749,360.72319"
       id="path3844-6"
       inkscape:connector-curvature="0" />
    <path
       style="fill:#ff0000;fill-opacity:1;stroke:#000000;stroke-width:1.20322418;stroke-linecap:butt;stroke-linejoin:miter;stroke-miterlimit:4;stroke-opacity:1;stroke-dasharray:none"
       d="m 358.01436,292.43968 0,-222.596486"
       id="path3817-3-1"
       inkscape:connector-curvature="0" />
    <path
       sodipodi:type="arc"
       style="fill:#ffffff;fill-opacity:1;stroke:#0000ff;stroke-width:3;stroke-miterlimit:4;stroke-opacity:1;stroke-dasharray:none;stroke-dashoffset:0"
       id="path2987-9-2"
       sodipodi:cx="225"
       sodipodi:cy="262.36218"
       sodipodi:rx="25"
       sodipodi:ry="20"
       d="m 250,262.36218 a 25,20 0 1 1 -50,0 25,20 0 1 1 50,0 z"
       transform="matrix(0,-0.56379182,-0.70473975,0,542.91142,393.1658)" />
    <path
       style="fill:#ff0000;fill-opacity:1;stroke:#000000;stroke-width:1.20322418;stroke-linecap:butt;stroke-linejoin:miter;stroke-miterlimit:4;stroke-opacity:1;stroke-dasharray:none"
       d="m 315.90151,328.53641 0,-222.59649"
       id="path3817-1-6"
       inkscape:connector-curvature="0" />
    <path
       style="fill:#ff0000;fill-opacity:1;stroke:#000000;stroke-width:1.20322418;stroke-linecap:butt;stroke-linejoin:miter;stroke-miterlimit:4;stroke-opacity:1;stroke-dasharray:none"
       d="m 273.78866,364.63313 0,-222.59648"
       id="path3817-0"
       inkscape:connector-curvature="0" />
    <path
       sodipodi:type="arc"
       style="fill:#ffffff;fill-opacity:1;stroke:#0000ff;stroke-width:3;stroke-miterlimit:4;stroke-opacity:1;stroke-dasharray:none;stroke-dashoffset:0"
       id="path2987-3-3"
       sodipodi:cx="225"
       sodipodi:cy="262.36218"
       sodipodi:rx="25"
       sodipodi:ry="20"
       d="m 250,262.36218 a 25,20 0 1 1 -50,0 25,20 0 1 1 50,0 z"
       transform="matrix(0,-0.56379182,-0.70473975,0,500.79857,429.26252)" />
    <path
       sodipodi:type="arc"
       style="fill:#ffffff;fill-opacity:1;stroke:#0000ff;stroke-width:3;stroke-miterlimit:4;stroke-opacity:1;stroke-dasharray:none;stroke-dashoffset:0"
       id="path2987-8-9-1"
       sodipodi:cx="225"
       sodipodi:cy="262.36218"
       sodipodi:rx="25"
       sodipodi:ry="20"
       d="m 250,262.36218 a 25,20 0 1 1 -50,0 25,20 0 1 1 50,0 z"
       transform="matrix(0,-0.56379182,-0.70473975,0,500.79857,345.03683)" />
    <path
       sodipodi:type="arc"
       style="fill:#ff0000;fill-opacity:1;stroke:#ff0000;stroke-width:3;stroke-miterlimit:4;stroke-opacity:1;stroke-dasharray:none;stroke-dashoffset:0"
       id="path2987-4-2-1"
       sodipodi:cx="225"
       sodipodi:cy="262.36218"
       sodipodi:rx="25"
       sodipodi:ry="20"
       d="m 250,262.36218 a 25,20 0 1 1 -50,0 25,20 0 1 1 50,0 z"
       transform="matrix(0,-0.56379182,-0.70473975,0,500.79857,260.81113)" />
    <path
       sodipodi:type="arc"
       style="fill:#ffffff;fill-opacity:1;stroke:#0000ff;stroke-width:3;stroke-miterlimit:4;stroke-opacity:1;stroke-dasharray:none;stroke-dashoffset:0"
       id="path2987-8-8-9"
       sodipodi:cx="225"
       sodipodi:cy="262.36218"
       sodipodi:rx="25"
       sodipodi:ry="20"
       d="m 250,262.36218 a 25,20 0 1 1 -50,0 25,20 0 1 1 50,0 z"
       transform="matrix(0,-0.56379182,-0.70473975,0,542.91142,308.9401)" />
    <path
       sodipodi:type="arc"
       style="fill:#00ff00;fill-opacity:1;stroke:#00ff00;stroke-width:3;stroke-miterlimit:4;stroke-opacity:1;stroke-dasharray:none;stroke-dashoffset:0"
       id="path2987-4-0-8"
       sodipodi:cx="225"
       sodipodi:cy="262.36218"
       sodipodi:rx="25"
       sodipodi:ry="20"
       d="m 250,262.36218 a 25,20 0 1 1 -50,0 25,20 0 1 1 50,0 z"
       transform="matrix(0,-0.56379182,-0.70473975,0,542.91142,224.7144)" />
    <path
       sodipodi:type="arc"
       style="fill:#ffffff;fill-opacity:1;stroke:#0000ff;stroke-width:3;stroke-miterlimit:4;stroke-opacity:1;stroke-dasharray:none;stroke-dashoffset:0"
       id="path2987-84"
       sodipodi:cx="225"
       sodipodi:cy="262.36218"
       sodipodi:rx="25"
       sodipodi:ry="20"
       d="m 250,262.36218 a 25,20 0 1 1 -50,0 25,20 0 1 1 50,0 z"
       transform="matrix(0,-0.56379182,-0.70473975,0,458.68572,465.35925)" />
    <path
       sodipodi:type="arc"
       style="fill:#ffffff;fill-opacity:1;stroke:#0000ff;stroke-width:3;stroke-miterlimit:4;stroke-opacity:1;stroke-dasharray:none;stroke-dashoffset:0"
       id="path2987-8-5"
       sodipodi:cx="225"
       sodipodi:cy="262.36218"
       sodipodi:rx="25"
       sodipodi:ry="20"
       d="m 250,262.36218 a 25,20 0 1 1 -50,0 25,20 0 1 1 50,0 z"
       transform="matrix(0,-0.56379182,-0.70473975,0,458.68572,381.13356)" />
    <path
       sodipodi:type="arc"
       style="fill:#ffffff;fill-opacity:1;stroke:#0000ff;stroke-width:3;stroke-miterlimit:4;stroke-opacity:1;stroke-dasharray:none;stroke-dashoffset:0"
       id="path2987-4-6"
       sodipodi:cx="225"
       sodipodi:cy="262.36218"
       sodipodi:rx="25"
       sodipodi:ry="20"
       d="m 250,262.36218 a 25,20 0 1 1 -50,0 25,20 0 1 1 50,0 z"
       transform="matrix(0,-0.56379182,-0.70473975,0,458.68572,296.90786)" />
    <path
       style="fill:none;stroke:#000000;stroke-width:1.20322418;stroke-linecap:butt;stroke-linejoin:miter;stroke-miterlimit:4;stroke-opacity:1;stroke-dasharray:none"
       d="M 603.77268,155.86035 463.08295,275.43361"
       id="path3844-8-0"
       inkscape:connector-curvature="0" />
    <path
       style="fill:none;stroke:#000000;stroke-width:1.20322418;stroke-linecap:butt;stroke-linejoin:miter;stroke-miterlimit:4;stroke-opacity:1;stroke-dasharray:none"
       d="M 602.71808,74.128603 462.02834,193.70186"
       id="path3844-3-72"
       inkscape:connector-curvature="0" />
    <path
       style="fill:none;stroke:#000000;stroke-width:1.20322418;stroke-linecap:butt;stroke-linejoin:miter;stroke-miterlimit:4;stroke-opacity:1;stroke-dasharray:none"
       d="M 603.17898,241.14993 462.48925,360.72319"
       id="path3844-2"
       inkscape:connector-curvature="0" />
    <path
       style="fill:#ff0000;fill-opacity:1;stroke:#000000;stroke-width:1.20322418;stroke-linecap:butt;stroke-linejoin:miter;stroke-miterlimit:4;stroke-opacity:1;stroke-dasharray:none"
       d="m 573.62871,292.43968 0,-222.596486"
       id="path3817-3-2"
       inkscape:connector-curvature="0" />
    <path
       sodipodi:type="arc"
       style="fill:#ffffff;fill-opacity:1;stroke:#0000ff;stroke-width:3;stroke-miterlimit:4;stroke-opacity:1;stroke-dasharray:none;stroke-dashoffset:0"
       id="path2987-9-4"
       sodipodi:cx="225"
       sodipodi:cy="262.36218"
       sodipodi:rx="25"
       sodipodi:ry="20"
       d="m 250,262.36218 a 25,20 0 1 1 -50,0 25,20 0 1 1 50,0 z"
       transform="matrix(0,-0.56379182,-0.70473975,0,758.52577,393.1658)" />
    <path
       style="fill:#ff0000;fill-opacity:1;stroke:#000000;stroke-width:1.20322418;stroke-linecap:butt;stroke-linejoin:miter;stroke-miterlimit:4;stroke-opacity:1;stroke-dasharray:none"
       d="m 531.51586,328.53641 0,-222.59649"
       id="path3817-1-1"
       inkscape:connector-curvature="0" />
    <path
       style="fill:#ff0000;fill-opacity:1;stroke:#000000;stroke-width:1.20322418;stroke-linecap:butt;stroke-linejoin:miter;stroke-miterlimit:4;stroke-opacity:1;stroke-dasharray:none"
       d="m 489.40301,364.63313 0,-222.59648"
       id="path3817-8"
       inkscape:connector-curvature="0" />
    <path
       sodipodi:type="arc"
       style="fill:#ffffff;fill-opacity:1;stroke:#0000ff;stroke-width:3;stroke-miterlimit:4;stroke-opacity:1;stroke-dasharray:none;stroke-dashoffset:0"
       id="path2987-3-0"
       sodipodi:cx="225"
       sodipodi:cy="262.36218"
       sodipodi:rx="25"
       sodipodi:ry="20"
       d="m 250,262.36218 a 25,20 0 1 1 -50,0 25,20 0 1 1 50,0 z"
       transform="matrix(0,-0.56379182,-0.70473975,0,716.41292,429.26252)" />
    <path
       sodipodi:type="arc"
       style="fill:#ffffff;fill-opacity:1;stroke:#0000ff;stroke-width:3;stroke-miterlimit:4;stroke-opacity:1;stroke-dasharray:none;stroke-dashoffset:0"
       id="path2987-8-9-3"
       sodipodi:cx="225"
       sodipodi:cy="262.36218"
       sodipodi:rx="25"
       sodipodi:ry="20"
       d="m 250,262.36218 a 25,20 0 1 1 -50,0 25,20 0 1 1 50,0 z"
       transform="matrix(0,-0.56379182,-0.70473975,0,716.41292,345.03683)" />
    <path
       sodipodi:type="arc"
       style="fill:#ffffff;fill-opacity:1;stroke:#0000ff;stroke-width:3;stroke-miterlimit:4;stroke-opacity:1;stroke-dasharray:none;stroke-dashoffset:0"
       id="path2987-4-2-8"
       sodipodi:cx="225"
       sodipodi:cy="262.36218"
       sodipodi:rx="25"
       sodipodi:ry="20"
       d="m 250,262.36218 a 25,20 0 1 1 -50,0 25,20 0 1 1 50,0 z"
       transform="matrix(0,-0.56379182,-0.70473975,0,716.41292,260.81113)" />
    <path
       sodipodi:type="arc"
       style="fill:#ffffff;fill-opacity:1;stroke:#0000ff;stroke-width:3;stroke-miterlimit:4;stroke-opacity:1;stroke-dasharray:none;stroke-dashoffset:0"
       id="path2987-8-8-0"
       sodipodi:cx="225"
       sodipodi:cy="262.36218"
       sodipodi:rx="25"
       sodipodi:ry="20"
       d="m 250,262.36218 a 25,20 0 1 1 -50,0 25,20 0 1 1 50,0 z"
       transform="matrix(0,-0.56379182,-0.70473975,0,758.52577,308.9401)" />
    <path
       sodipodi:type="arc"
       style="fill:#00ff00;fill-opacity:1;stroke:#00ff00;stroke-width:3;stroke-miterlimit:4;stroke-opacity:1;stroke-dasharray:none;stroke-dashoffset:0"
       id="path2987-4-0-6"
       sodipodi:cx="225"
       sodipodi:cy="262.36218"
       sodipodi:rx="25"
       sodipodi:ry="20"
       d="m 250,262.36218 a 25,20 0 1 1 -50,0 25,20 0 1 1 50,0 z"
       transform="matrix(0,-0.56379182,-0.70473975,0,758.52577,224.7144)" />
    <path
       sodipodi:type="arc"
       style="fill:#ffffff;fill-opacity:1;stroke:#0000ff;stroke-width:3;stroke-miterlimit:4;stroke-opacity:1;stroke-dasharray:none;stroke-dashoffset:0"
       id="path2987-90"
       sodipodi:cx="225"
       sodipodi:cy="262.36218"
       sodipodi:rx="25"
       sodipodi:ry="20"
       d="m 250,262.36218 a 25,20 0 1 1 -50,0 25,20 0 1 1 50,0 z"
       transform="matrix(0,-0.56379182,-0.70473975,0,674.30007,465.35925)" />
    <path
       sodipodi:type="arc"
       style="fill:#ffffff;fill-opacity:1;stroke:#0000ff;stroke-width:3;stroke-miterlimit:4;stroke-opacity:1;stroke-dasharray:none;stroke-dashoffset:0"
       id="path2987-8-2"
       sodipodi:cx="225"
       sodipodi:cy="262.36218"
       sodipodi:rx="25"
       sodipodi:ry="20"
       d="m 250,262.36218 a 25,20 0 1 1 -50,0 25,20 0 1 1 50,0 z"
       transform="matrix(0,-0.56379182,-0.70473975,0,674.30007,381.13356)" />
    <path
       sodipodi:type="arc"
       style="fill:#ffffff;fill-opacity:1;stroke:#0000ff;stroke-width:3;stroke-miterlimit:4;stroke-opacity:1;stroke-dasharray:none;stroke-dashoffset:0"
       id="path2987-4-22"
       sodipodi:cx="225"
       sodipodi:cy="262.36218"
       sodipodi:rx="25"
       sodipodi:ry="20"
       d="m 250,262.36218 a 25,20 0 1 1 -50,0 25,20 0 1 1 50,0 z"
       transform="matrix(0,-0.56379182,-0.70473975,0,674.30007,296.90786)" />
    <path
       style="fill:none;stroke:#ff0000;stroke-width:2.97795796;stroke-linecap:butt;stroke-linejoin:miter;stroke-miterlimit:4;stroke-opacity:1;stroke-dasharray:8.93387415, 2.97795804;stroke-dashoffset:0;marker-end:url(#Arrow1MendE)"
       d="m 136.2818,119.00765 c 47.31534,-57.837268 128.10895,-43.614077 166.60003,1.29218"
       id="path4891"
       inkscape:connector-curvature="0"
       sodipodi:nodetypes="cc" />
    <path
       style="stroke-linejoin:miter;marker-end:url(#Arrow1MendEK);stroke-opacity:1;stroke-dashoffset:0;stroke:#00ff00;stroke-linecap:butt;stroke-miterlimit:4;stroke-dasharray:8.93387414999999940, 2.97795803999999986;stroke-width:2.97795795999999990;fill:none"
       d="M 365.29978,83.966671 C 412.61512,26.129408 521.89437,39.47612 560.38545,84.38237"
       id="path4891-3"
       inkscape:connector-curvature="0"
       sodipodi:nodetypes="cc" />
    <path
       style="fill:#212024;fill-opacity:0.66321244;stroke:none"
       d="m 213.97315,217.78113 26.25212,0 c 0,0 0,-5 0,-5 l 10.50084,10 -10.50084,10 0,-5 -26.25212,0 z"
       id="path3865"
       inkscape:connector-curvature="0" />
    <path
       style="fill:#212024;fill-opacity:0.66321244;stroke:none"
       d="m 419.28446,216.98244 26.56514,0 c 0,0 0,-5 0,-5 l 10.62606,10 -10.62606,10 0,-5 -26.56514,0 z"
       id="path3865-4"
       inkscape:connector-curvature="0" />
    <g
       ns0:preamble=""
       ns0:text="$x^m$"
       word-spacing="normal"
       letter-spacing="normal"
       font-size-adjust="none"
       font-stretch="normal"
       font-weight="normal"
       font-variant="normal"
       font-style="normal"
       stroke-miterlimit="10.433"
       xml:space="preserve"
       transform="matrix(3.5954618,0,0,-3.5954618,-733.73748,2680.3623)"
       id="g4662"
       style="font-style:normal;font-variant:normal;font-weight:normal;font-stretch:normal;letter-spacing:normal;word-spacing:normal;text-anchor:start;fill:none;stroke:#000000;stroke-linecap:butt;stroke-linejoin:miter;stroke-miterlimit:10.43299961;stroke-opacity:1;stroke-dasharray:none;stroke-dashoffset:0">
<path
   id="path4664"
   d="m 226.76,710.12 0,0.03 0.01,0.03 0.01,0.03 0.01,0.04 0.01,0.04 0.01,0.04 0.01,0.04 0.02,0.05 0.01,0.04 0.02,0.05 0.02,0.05 0.02,0.05 0.02,0.05 0.03,0.05 0.02,0.05 0.03,0.05 0.03,0.05 0.03,0.04 0.03,0.05 0.04,0.04 0.04,0.05 0.04,0.04 0.04,0.04 0.04,0.03 0.05,0.03 0.05,0.03 0.02,0.01 0.03,0.02 0.02,0.01 0.03,0.01 0.03,0.01 0.03,0 0.03,0.01 0.02,0.01 0.04,0 0.03,0 0.03,0.01 0.03,0 c 0.05,0 0.29,0 0.5,-0.13 -0.28,-0.05 -0.48,-0.3 -0.48,-0.54 0,-0.16 0.11,-0.35 0.38,-0.35 0.22,0 0.54,0.18 0.54,0.58 0,0.52 -0.59,0.66 -0.93,0.66 -0.58,0 -0.93,-0.53 -1.04,-0.76 -0.25,0.66 -0.79,0.76 -1.08,0.76 -1.03,0 -1.6,-1.29 -1.6,-1.53 0,-0.1 0.1,-0.1 0.12,-0.1 0.08,0 0.11,0.02 0.13,0.11 0.34,1.05 0.99,1.3 1.33,1.3 0.19,0 0.54,-0.09 0.54,-0.67 0,-0.31 -0.17,-0.97 -0.54,-2.36 -0.16,-0.62 -0.51,-1.04 -0.94,-1.04 -0.06,0 -0.29,0 -0.5,0.13 0.25,0.05 0.47,0.26 0.47,0.54 0,0.27 -0.22,0.35 -0.37,0.35 -0.3,0 -0.55,-0.26 -0.55,-0.58 0,-0.46 0.5,-0.65 0.94,-0.65 0.65,0 1.01,0.69 1.04,0.75 0.12,-0.37 0.48,-0.75 1.07,-0.75 1.03,0 1.6,1.28 1.6,1.53 0,0.1 -0.09,0.1 -0.12,0.1 -0.09,0 -0.11,-0.05 -0.13,-0.11 -0.33,-1.07 -1.01,-1.31 -1.33,-1.31 -0.38,0 -0.54,0.32 -0.54,0.66 0,0.22 0.06,0.44 0.17,0.87 z"
   inkscape:connector-curvature="0"
   style="fill:#000000;stroke-width:0" />
<path
   id="path4666"
   d="m 232.15,711.3 0,-0.01 -0.01,-0.01 0,-0.02 -0.01,-0.01 0,-0.02 0,-0.01 -0.01,-0.03 -0.01,-0.04 -0.01,-0.03 -0.01,-0.03 0,-0.02 0,-0.01 -0.01,-0.02 0,-0.01 0,-0.01 -0.01,-0.02 0,-0.01 0,-0.01 -0.01,-0.02 0,-0.01 0,-0.01 0,-0.01 0,-0.01 -0.01,-0.01 0,0 0,-0.01 0,0 0,-0.01 c 0,-0.15 0.13,-0.22 0.24,-0.22 0.12,0 0.23,0.09 0.27,0.15 0.03,0.07 0.09,0.29 0.12,0.44 0.04,0.13 0.12,0.45 0.16,0.62 0.04,0.15 0.08,0.31 0.12,0.47 0.07,0.3 0.07,0.31 0.21,0.53 0.23,0.34 0.57,0.73 1.12,0.73 0.39,0 0.41,-0.32 0.41,-0.49 0,-0.41 -0.3,-1.18 -0.41,-1.48 -0.08,-0.19 -0.11,-0.25 -0.11,-0.37 0,-0.37 0.31,-0.6 0.66,-0.6 0.7,0 1.01,0.96 1.01,1.06 0,0.1 -0.09,0.1 -0.11,0.1 -0.1,0 -0.11,-0.05 -0.14,-0.12 -0.16,-0.56 -0.46,-0.85 -0.73,-0.85 -0.15,0 -0.18,0.1 -0.18,0.25 0,0.16 0.04,0.25 0.16,0.56 0.08,0.22 0.37,0.95 0.37,1.34 0,0.11 0,0.41 -0.26,0.61 -0.12,0.09 -0.32,0.19 -0.65,0.19 -0.62,0 -1.01,-0.41 -1.23,-0.71 -0.05,0.6 -0.55,0.71 -0.9,0.71 -0.58,0 -0.97,-0.36 -1.18,-0.64 -0.05,0.48 -0.46,0.64 -0.75,0.64 -0.29,0 -0.46,-0.22 -0.55,-0.38 -0.15,-0.26 -0.25,-0.65 -0.25,-0.69 0,-0.09 0.1,-0.09 0.12,-0.09 0.1,0 0.11,0.02 0.16,0.21 0.1,0.41 0.23,0.75 0.5,0.75 0.18,0 0.23,-0.15 0.23,-0.34 0,-0.13 -0.06,-0.39 -0.11,-0.58 -0.05,-0.18 -0.12,-0.47 -0.15,-0.62 l -0.22,-0.89 c -0.03,-0.09 -0.07,-0.27 -0.07,-0.29 0,-0.15 0.12,-0.22 0.23,-0.22 0.13,0 0.24,0.09 0.27,0.15 0.04,0.07 0.1,0.29 0.13,0.44 0.03,0.13 0.11,0.45 0.15,0.62 0.05,0.15 0.09,0.31 0.12,0.47 0.08,0.28 0.09,0.34 0.29,0.62 0.2,0.28 0.53,0.64 1.05,0.64 0.4,0 0.41,-0.35 0.41,-0.49 0,-0.17 -0.02,-0.26 -0.12,-0.65 z"
   inkscape:connector-curvature="0"
   style="fill:#000000;stroke-width:0" />
</g>    <g
       style="font-style:normal;font-variant:normal;font-weight:normal;font-stretch:normal;letter-spacing:normal;word-spacing:normal;text-anchor:start;fill:none;stroke:#000000;stroke-linecap:butt;stroke-linejoin:miter;stroke-miterlimit:10.43299961;stroke-opacity:1;stroke-dasharray:none;stroke-dashoffset:0"
       id="g4866"
       transform="matrix(3.315377,0,0,-3.315377,-409.36477,2489.6317)"
       xml:space="preserve"
       stroke-miterlimit="10.433"
       font-style="normal"
       font-variant="normal"
       font-weight="normal"
       font-stretch="normal"
       font-size-adjust="none"
       letter-spacing="normal"
       word-spacing="normal"
       ns0:text="$x^{m+1}$"
       ns0:preamble="">
<path
   style="fill:#000000;stroke-width:0"
   inkscape:connector-curvature="0"
   d="m 226.76,710.12 0,0.03 0.01,0.03 0.01,0.03 0.01,0.04 0.01,0.04 0.01,0.04 0.01,0.04 0.02,0.05 0.01,0.04 0.02,0.05 0.02,0.05 0.02,0.05 0.02,0.05 0.03,0.05 0.02,0.05 0.03,0.05 0.03,0.05 0.03,0.04 0.03,0.05 0.04,0.04 0.04,0.05 0.04,0.04 0.04,0.04 0.04,0.03 0.05,0.03 0.05,0.03 0.02,0.01 0.03,0.02 0.02,0.01 0.03,0.01 0.03,0.01 0.03,0 0.03,0.01 0.02,0.01 0.04,0 0.03,0 0.03,0.01 0.03,0 c 0.05,0 0.29,0 0.5,-0.13 -0.28,-0.05 -0.48,-0.3 -0.48,-0.54 0,-0.16 0.11,-0.35 0.38,-0.35 0.22,0 0.54,0.18 0.54,0.58 0,0.52 -0.59,0.66 -0.93,0.66 -0.58,0 -0.93,-0.53 -1.04,-0.76 -0.25,0.66 -0.79,0.76 -1.08,0.76 -1.03,0 -1.6,-1.29 -1.6,-1.53 0,-0.1 0.1,-0.1 0.12,-0.1 0.08,0 0.11,0.02 0.13,0.11 0.34,1.05 0.99,1.3 1.33,1.3 0.19,0 0.54,-0.09 0.54,-0.67 0,-0.31 -0.17,-0.97 -0.54,-2.36 -0.16,-0.62 -0.51,-1.04 -0.94,-1.04 -0.06,0 -0.29,0 -0.5,0.13 0.25,0.05 0.47,0.26 0.47,0.54 0,0.27 -0.22,0.35 -0.37,0.35 -0.3,0 -0.55,-0.26 -0.55,-0.58 0,-0.46 0.5,-0.65 0.94,-0.65 0.65,0 1.01,0.69 1.04,0.75 0.12,-0.37 0.48,-0.75 1.07,-0.75 1.03,0 1.6,1.28 1.6,1.53 0,0.1 -0.09,0.1 -0.12,0.1 -0.09,0 -0.11,-0.05 -0.13,-0.11 -0.33,-1.07 -1.01,-1.31 -1.33,-1.31 -0.38,0 -0.54,0.32 -0.54,0.66 0,0.22 0.06,0.44 0.17,0.87 z"
   id="path4868" />
<path
   style="fill:#000000;stroke-width:0"
   inkscape:connector-curvature="0"
   d="m 232.15,711.3 0,-0.01 -0.01,-0.01 0,-0.02 -0.01,-0.01 0,-0.02 0,-0.01 -0.01,-0.03 -0.01,-0.04 -0.01,-0.03 -0.01,-0.03 0,-0.02 0,-0.01 -0.01,-0.02 0,-0.01 0,-0.01 -0.01,-0.02 0,-0.01 0,-0.01 -0.01,-0.02 0,-0.01 0,-0.01 0,-0.01 0,-0.01 -0.01,-0.01 0,0 0,-0.01 0,0 0,-0.01 c 0,-0.15 0.13,-0.22 0.24,-0.22 0.12,0 0.23,0.09 0.27,0.15 0.03,0.07 0.09,0.29 0.12,0.44 0.04,0.13 0.12,0.45 0.16,0.62 0.04,0.15 0.08,0.31 0.12,0.47 0.07,0.3 0.07,0.31 0.21,0.53 0.23,0.34 0.57,0.73 1.12,0.73 0.39,0 0.41,-0.32 0.41,-0.49 0,-0.41 -0.3,-1.18 -0.41,-1.48 -0.08,-0.19 -0.11,-0.25 -0.11,-0.37 0,-0.37 0.31,-0.6 0.66,-0.6 0.7,0 1.01,0.96 1.01,1.06 0,0.1 -0.09,0.1 -0.11,0.1 -0.1,0 -0.11,-0.05 -0.14,-0.12 -0.16,-0.56 -0.46,-0.85 -0.73,-0.85 -0.15,0 -0.18,0.1 -0.18,0.25 0,0.16 0.04,0.25 0.16,0.56 0.08,0.22 0.37,0.95 0.37,1.34 0,0.11 0,0.41 -0.26,0.61 -0.12,0.09 -0.32,0.19 -0.65,0.19 -0.62,0 -1.01,-0.41 -1.23,-0.71 -0.05,0.6 -0.55,0.71 -0.9,0.71 -0.58,0 -0.97,-0.36 -1.18,-0.64 -0.05,0.48 -0.46,0.64 -0.75,0.64 -0.29,0 -0.46,-0.22 -0.55,-0.38 -0.15,-0.26 -0.25,-0.65 -0.25,-0.69 0,-0.09 0.1,-0.09 0.12,-0.09 0.1,0 0.11,0.02 0.16,0.21 0.1,0.41 0.23,0.75 0.5,0.75 0.18,0 0.23,-0.15 0.23,-0.34 0,-0.13 -0.06,-0.39 -0.11,-0.58 -0.05,-0.18 -0.12,-0.47 -0.15,-0.62 l -0.22,-0.89 c -0.03,-0.09 -0.07,-0.27 -0.07,-0.29 0,-0.15 0.12,-0.22 0.23,-0.22 0.13,0 0.24,0.09 0.27,0.15 0.04,0.07 0.1,0.29 0.13,0.44 0.03,0.13 0.11,0.45 0.15,0.62 0.05,0.15 0.09,0.31 0.12,0.47 0.08,0.28 0.09,0.34 0.29,0.62 0.2,0.28 0.53,0.64 1.05,0.64 0.4,0 0.41,-0.35 0.41,-0.49 0,-0.17 -0.02,-0.26 -0.12,-0.65 z"
   id="path4870" />
<path
   style="fill:#000000;stroke-width:0"
   inkscape:connector-curvature="0"
   d="m 239.42,712.31 h 2.13 c 0.09,0 0.26,0 0.26,0.17 0,0.17 -0.16,0.17 -0.26,0.17 h -2.13 v 2.14 c 0,0.09 0,0.25 -0.17,0.25 -0.17,0 -0.17,-0.16 -0.17,-0.25 v -2.14 h -2.14 c -0.09,0 -0.26,0 -0.26,-0.17 0,-0.17 0.16,-0.17 0.26,-0.17 h 2.14 v -2.13 c 0,-0.09 0,-0.26 0.17,-0.26 0.17,0 0.17,0.16 0.17,0.26 z"
   id="path4872" />
<path
   style="fill:#000000;stroke-width:0"
   inkscape:connector-curvature="0"
   d="m 244.65,715.16 -0.01,0.01 0,0.01 0,0.01 0,0.01 0,0 0,0.01 0,0.01 0,0.01 0,0 0,0.01 0,0 0,0.01 0,0.01 0,0 0,0.01 0,0 0,0.01 0,0 0,0.01 -0.01,0.01 0,0.01 0,0 -0.01,0.01 0,0.01 -0.01,0 0,0 -0.01,0.01 0,0 -0.01,0 -0.01,0.01 -0.01,0 -0.01,0 0,0 -0.01,0 0,0 -0.01,0 -0.01,0 0,0.01 -0.01,0 -0.01,0 0,0 -0.01,0 -0.01,0 0,0 -0.01,0 -0.01,0 -0.01,0 -0.01,0 0,0 -0.01,0 c -0.45,-0.44 -1.08,-0.45 -1.37,-0.45 v -0.25 c 0.17,0 0.63,0 1.01,0.2 v -3.55 c 0,-0.23 0,-0.32 -0.7,-0.32 h -0.26 v -0.25 c 0.12,0.01 0.98,0.03 1.24,0.03 0.22,0 1.09,-0.02 1.25,-0.03 v 0.25 h -0.27 c -0.69,0 -0.69,0.09 -0.69,0.32 z"
   id="path4874" />
</g>  </g>
</svg>
