<?xml version="1.0" encoding="UTF-8" standalone="no"?>
<!-- Created with Inkscape (http://www.inkscape.org/) -->

<svg
   xmlns:ns0="http://www.iki.fi/pav/software/textext/"
   xmlns:dc="http://purl.org/dc/elements/1.1/"
   xmlns:cc="http://creativecommons.org/ns#"
   xmlns:rdf="http://www.w3.org/1999/02/22-rdf-syntax-ns#"
   xmlns:svg="http://www.w3.org/2000/svg"
   xmlns="http://www.w3.org/2000/svg"
   xmlns:sodipodi="http://sodipodi.sourceforge.net/DTD/sodipodi-0.dtd"
   xmlns:inkscape="http://www.inkscape.org/namespaces/inkscape"
   width="744.09448819"
   height="1052.3622047"
   id="svg2"
   version="1.1"
   inkscape:version="0.48.3.1 r9886"
   sodipodi:docname="imagechain.svg">
  <sodipodi:namedview
     id="base"
     pagecolor="#ffffff"
     bordercolor="#666666"
     borderopacity="1.0"
     inkscape:pageopacity="0.0"
     inkscape:pageshadow="2"
     inkscape:zoom="1.1409259"
     inkscape:cx="259.52394"
     inkscape:cy="756.19336"
     inkscape:document-units="px"
     inkscape:current-layer="layer1"
     showgrid="true"
     showguides="false"
     inkscape:snap-global="false"
     inkscape:window-width="1680"
     inkscape:window-height="1028"
     inkscape:window-x="0"
     inkscape:window-y="0"
     inkscape:window-maximized="1">
    <inkscape:grid
       id="grid2985"
       type="xygrid" />
  </sodipodi:namedview>
  <defs
     id="defs4">
    <marker
       style="overflow:visible;"
       id="Arrow1Mend"
       refX="0.0"
       refY="0.0"
       orient="auto"
       inkscape:stockid="Arrow1Mend">
      <path
         transform="scale(0.4) rotate(180) translate(10,0)"
         style="fill-rule:evenodd;stroke:#000000;stroke-width:1.0pt;"
         d="M 0.0,0.0 L 5.0,-5.0 L -12.5,0.0 L 5.0,5.0 L 0.0,0.0 z "
         id="path4908" />
    </marker>
    <marker
       style="overflow:visible;"
       id="Arrow1Lend"
       refX="0.0"
       refY="0.0"
       orient="auto"
       inkscape:stockid="Arrow1Lend">
      <path
         transform="scale(0.8) rotate(180) translate(12.5,0)"
         style="fill-rule:evenodd;stroke:#000000;stroke-width:1.0pt;"
         d="M 0.0,0.0 L 5.0,-5.0 L -12.5,0.0 L 5.0,5.0 L 0.0,0.0 z "
         id="path4902" />
    </marker>
    <marker
       style="overflow:visible;"
       id="Arrow1MendE"
       refX="0.0"
       refY="0.0"
       orient="auto"
       inkscape:stockid="Arrow1MendE">
      <path
         transform="scale(0.4) rotate(180) translate(10,0)"
         style="stroke:#ff0000;stroke-width:1.0pt;fill:#ff0000;fill-rule:evenodd"
         d="M 0.0,0.0 L 5.0,-5.0 L -12.5,0.0 L 5.0,5.0 L 0.0,0.0 z "
         id="path6054" />
    </marker>
    <marker
       style="overflow:visible"
       id="Arrow1MendE-9"
       refX="0"
       refY="0"
       orient="auto"
       inkscape:stockid="Arrow1MendE">
      <path
         inkscape:connector-curvature="0"
         transform="matrix(-0.4,0,0,-0.4,-4,0)"
         style="fill:#ff0000;fill-rule:evenodd;stroke:#ff0000;stroke-width:1pt"
         d="M 0,0 5,-5 -12.5,0 5,5 0,0 z"
         id="path6054-3" />
    </marker>
    <marker
       style="overflow:visible;"
       id="Arrow1MendEK"
       refX="0.0"
       refY="0.0"
       orient="auto"
       inkscape:stockid="Arrow1MendEK">
      <path
         transform="scale(0.4) rotate(180) translate(10,0)"
         style="fill-rule:evenodd;stroke:#00ff00;stroke-width:1.0pt;fill:#00ff00"
         d="M 0.0,0.0 L 5.0,-5.0 L -12.5,0.0 L 5.0,5.0 L 0.0,0.0 z "
         id="path6197" />
    </marker>
  </defs>
  <metadata
     id="metadata7">
    <rdf:RDF>
      <cc:Work
         rdf:about="">
        <dc:format>image/svg+xml</dc:format>
        <dc:type
           rdf:resource="http://purl.org/dc/dcmitype/StillImage" />
        <dc:title />
      </cc:Work>
    </rdf:RDF>
  </metadata>
  <g
     id="layer1"
     inkscape:groupmode="layer"
     inkscape:label="Layer 1">
    <path
       transform="matrix(1.1522642,0,0,0.99921042,88.428545,16.72411)"
       d="m 284.85636,201.29904 a 70.994972,184.93752 0 1 1 -141.98994,0 70.994972,184.93752 0 1 1 141.98994,0 z"
       sodipodi:ry="184.93752"
       sodipodi:rx="70.994972"
       sodipodi:cy="201.29904"
       sodipodi:cx="213.86139"
       id="path3040-8"
       style="opacity:1;fill:#000000;fill-opacity:0.15025906;stroke:#001bff;stroke-width:4;stroke-miterlimit:4;stroke-opacity:1;stroke-dasharray:none;stroke-dashoffset:0"
       sodipodi:type="arc" />
    <path
       transform="matrix(1.1522642,0,0,0.99921042,292.61106,16.72411)"
       d="m 284.85636,201.29904 a 70.994972,184.93752 0 1 1 -141.98994,0 70.994972,184.93752 0 1 1 141.98994,0 z"
       sodipodi:ry="184.93752"
       sodipodi:rx="70.994972"
       sodipodi:cy="201.29904"
       sodipodi:cx="213.86139"
       id="path3040-2"
       style="opacity:1;fill:#000000;fill-opacity:0.15025906;stroke:#001bff;stroke-width:4;stroke-miterlimit:4;stroke-opacity:1;stroke-dasharray:none;stroke-dashoffset:0"
       sodipodi:type="arc" />
    <path
       transform="matrix(1.1522642,0,0,0.99921042,-116.99347,16.72411)"
       d="m 284.85636,201.29904 a 70.994972,184.93752 0 1 1 -141.98994,0 70.994972,184.93752 0 1 1 141.98994,0 z"
       sodipodi:ry="184.93752"
       sodipodi:rx="70.994972"
       sodipodi:cy="201.29904"
       sodipodi:cx="213.86139"
       id="path3040"
       style="opacity:1;fill:#000000;fill-opacity:0.15025906;stroke:#001bff;stroke-width:4;stroke-miterlimit:4;stroke-opacity:1;stroke-dasharray:none;stroke-dashoffset:0"
       sodipodi:type="arc" />
    <path
       inkscape:connector-curvature="0"
       id="path3844-8"
       d="M 203.20538,155.86035 62.515647,275.43361"
       style="fill:none;stroke:#000000;stroke-width:1.20322418;stroke-linecap:butt;stroke-linejoin:miter;stroke-miterlimit:4;stroke-opacity:1;stroke-dasharray:none" />
    <path
       inkscape:connector-curvature="0"
       id="path3844-3"
       d="M 202.15078,74.128603 61.461039,193.70186"
       style="fill:none;stroke:#000000;stroke-width:1.20322418;stroke-linecap:butt;stroke-linejoin:miter;stroke-miterlimit:4;stroke-opacity:1;stroke-dasharray:none" />
    <path
       inkscape:connector-curvature="0"
       id="path3844"
       d="M 202.61168,241.14993 61.921946,360.72319"
       style="fill:none;stroke:#000000;stroke-width:1.20322418;stroke-linecap:butt;stroke-linejoin:miter;stroke-miterlimit:4;stroke-opacity:1;stroke-dasharray:none" />
    <path
       inkscape:connector-curvature="0"
       id="path3817-3"
       d="m 173.06141,292.43968 0,-222.596486"
       style="fill:#ff0000;fill-opacity:1;stroke:#000000;stroke-width:1.20322418;stroke-linecap:butt;stroke-linejoin:miter;stroke-miterlimit:4;stroke-opacity:1;stroke-dasharray:none" />
    <path
       transform="matrix(0,-0.56379182,-0.70473975,0,357.95847,393.1658)"
       d="m 250,262.36218 a 25,20 0 1 1 -50,0 25,20 0 1 1 50,0 z"
       sodipodi:ry="20"
       sodipodi:rx="25"
       sodipodi:cy="262.36218"
       sodipodi:cx="225"
       id="path2987-9"
       style="fill:#ffffff;fill-opacity:1;stroke:#0000ff;stroke-width:3;stroke-miterlimit:4;stroke-opacity:1;stroke-dasharray:none;stroke-dashoffset:0"
       sodipodi:type="arc" />
    <path
       inkscape:connector-curvature="0"
       id="path3817-1"
       d="m 130.94856,328.53641 0,-222.59649"
       style="fill:#ff0000;fill-opacity:1;stroke:#000000;stroke-width:1.20322418;stroke-linecap:butt;stroke-linejoin:miter;stroke-miterlimit:4;stroke-opacity:1;stroke-dasharray:none" />
    <path
       inkscape:connector-curvature="0"
       id="path3817"
       d="m 88.835714,364.63313 0,-222.59648"
       style="fill:#ff0000;fill-opacity:1;stroke:#000000;stroke-width:1.20322418;stroke-linecap:butt;stroke-linejoin:miter;stroke-miterlimit:4;stroke-opacity:1;stroke-dasharray:none" />
    <path
       transform="matrix(0,-0.56379182,-0.70473975,0,315.84562,429.26252)"
       d="m 250,262.36218 a 25,20 0 1 1 -50,0 25,20 0 1 1 50,0 z"
       sodipodi:ry="20"
       sodipodi:rx="25"
       sodipodi:cy="262.36218"
       sodipodi:cx="225"
       id="path2987-3"
       style="fill:#ffffff;fill-opacity:1;stroke:#0000ff;stroke-width:3;stroke-miterlimit:4;stroke-opacity:1;stroke-dasharray:none;stroke-dashoffset:0"
       sodipodi:type="arc" />
    <path
       transform="matrix(0,-0.56379182,-0.70473975,0,315.84562,345.03683)"
       d="m 250,262.36218 a 25,20 0 1 1 -50,0 25,20 0 1 1 50,0 z"
       sodipodi:ry="20"
       sodipodi:rx="25"
       sodipodi:cy="262.36218"
       sodipodi:cx="225"
       id="path2987-8-9"
       style="fill:#ffffff;fill-opacity:1;stroke:#0000ff;stroke-width:3;stroke-miterlimit:4;stroke-opacity:1;stroke-dasharray:none;stroke-dashoffset:0"
       sodipodi:type="arc" />
    <path
       transform="matrix(0,-0.56379182,-0.70473975,0,315.84562,260.81113)"
       d="m 250,262.36218 a 25,20 0 1 1 -50,0 25,20 0 1 1 50,0 z"
       sodipodi:ry="20"
       sodipodi:rx="25"
       sodipodi:cy="262.36218"
       sodipodi:cx="225"
       id="path2987-4-2"
       style="fill:#ff0000;fill-opacity:1;stroke:#ff0000;stroke-width:3;stroke-miterlimit:4;stroke-opacity:1;stroke-dasharray:none;stroke-dashoffset:0"
       sodipodi:type="arc" />
    <path
       transform="matrix(0,-0.56379182,-0.70473975,0,357.95847,308.9401)"
       d="m 250,262.36218 a 25,20 0 1 1 -50,0 25,20 0 1 1 50,0 z"
       sodipodi:ry="20"
       sodipodi:rx="25"
       sodipodi:cy="262.36218"
       sodipodi:cx="225"
       id="path2987-8-8"
       style="fill:#ffffff;fill-opacity:1;stroke:#0000ff;stroke-width:3;stroke-miterlimit:4;stroke-opacity:1;stroke-dasharray:none;stroke-dashoffset:0"
       sodipodi:type="arc" />
    <path
       transform="matrix(0,-0.56379182,-0.70473975,0,357.95847,224.7144)"
       d="m 250,262.36218 a 25,20 0 1 1 -50,0 25,20 0 1 1 50,0 z"
       sodipodi:ry="20"
       sodipodi:rx="25"
       sodipodi:cy="262.36218"
       sodipodi:cx="225"
       id="path2987-4-0"
       style="fill:#ffffff;fill-opacity:1;stroke:#0000ff;stroke-width:3;stroke-miterlimit:4;stroke-opacity:1;stroke-dasharray:none;stroke-dashoffset:0"
       sodipodi:type="arc" />
    <path
       transform="matrix(0,-0.56379182,-0.70473975,0,273.73277,465.35925)"
       d="m 250,262.36218 a 25,20 0 1 1 -50,0 25,20 0 1 1 50,0 z"
       sodipodi:ry="20"
       sodipodi:rx="25"
       sodipodi:cy="262.36218"
       sodipodi:cx="225"
       id="path2987"
       style="fill:#ffffff;fill-opacity:1;stroke:#0000ff;stroke-width:3;stroke-miterlimit:4;stroke-opacity:1;stroke-dasharray:none;stroke-dashoffset:0"
       sodipodi:type="arc" />
    <path
       transform="matrix(0,-0.56379182,-0.70473975,0,273.73277,381.13356)"
       d="m 250,262.36218 a 25,20 0 1 1 -50,0 25,20 0 1 1 50,0 z"
       sodipodi:ry="20"
       sodipodi:rx="25"
       sodipodi:cy="262.36218"
       sodipodi:cx="225"
       id="path2987-8"
       style="fill:#ffffff;fill-opacity:1;stroke:#0000ff;stroke-width:3;stroke-miterlimit:4;stroke-opacity:1;stroke-dasharray:none;stroke-dashoffset:0"
       sodipodi:type="arc" />
    <path
       transform="matrix(0,-0.56379182,-0.70473975,0,273.73277,296.90786)"
       d="m 250,262.36218 a 25,20 0 1 1 -50,0 25,20 0 1 1 50,0 z"
       sodipodi:ry="20"
       sodipodi:rx="25"
       sodipodi:cy="262.36218"
       sodipodi:cx="225"
       id="path2987-4"
       style="fill:#ffffff;fill-opacity:1;stroke:#0000ff;stroke-width:3;stroke-miterlimit:4;stroke-opacity:1;stroke-dasharray:none;stroke-dashoffset:0"
       sodipodi:type="arc" />
    <path
       inkscape:connector-curvature="0"
       id="path3844-8-1"
       d="M 388.15833,155.86035 247.4686,275.43361"
       style="fill:none;stroke:#000000;stroke-width:1.20322418;stroke-linecap:butt;stroke-linejoin:miter;stroke-miterlimit:4;stroke-opacity:1;stroke-dasharray:none" />
    <path
       inkscape:connector-curvature="0"
       id="path3844-3-7"
       d="M 387.10373,74.128603 246.41399,193.70186"
       style="fill:none;stroke:#000000;stroke-width:1.20322418;stroke-linecap:butt;stroke-linejoin:miter;stroke-miterlimit:4;stroke-opacity:1;stroke-dasharray:none" />
    <path
       inkscape:connector-curvature="0"
       id="path3844-6"
       d="M 387.56463,241.14993 246.8749,360.72319"
       style="fill:none;stroke:#000000;stroke-width:1.20322418;stroke-linecap:butt;stroke-linejoin:miter;stroke-miterlimit:4;stroke-opacity:1;stroke-dasharray:none" />
    <path
       inkscape:connector-curvature="0"
       id="path3817-3-1"
       d="m 358.01436,292.43968 0,-222.596486"
       style="fill:#ff0000;fill-opacity:1;stroke:#000000;stroke-width:1.20322418;stroke-linecap:butt;stroke-linejoin:miter;stroke-miterlimit:4;stroke-opacity:1;stroke-dasharray:none" />
    <path
       transform="matrix(0,-0.56379182,-0.70473975,0,542.91142,393.1658)"
       d="m 250,262.36218 a 25,20 0 1 1 -50,0 25,20 0 1 1 50,0 z"
       sodipodi:ry="20"
       sodipodi:rx="25"
       sodipodi:cy="262.36218"
       sodipodi:cx="225"
       id="path2987-9-2"
       style="fill:#ffffff;fill-opacity:1;stroke:#0000ff;stroke-width:3;stroke-miterlimit:4;stroke-opacity:1;stroke-dasharray:none;stroke-dashoffset:0"
       sodipodi:type="arc" />
    <path
       inkscape:connector-curvature="0"
       id="path3817-1-6"
       d="m 315.90151,328.53641 0,-222.59649"
       style="fill:#ff0000;fill-opacity:1;stroke:#000000;stroke-width:1.20322418;stroke-linecap:butt;stroke-linejoin:miter;stroke-miterlimit:4;stroke-opacity:1;stroke-dasharray:none" />
    <path
       inkscape:connector-curvature="0"
       id="path3817-0"
       d="m 273.78866,364.63313 0,-222.59648"
       style="fill:#ff0000;fill-opacity:1;stroke:#000000;stroke-width:1.20322418;stroke-linecap:butt;stroke-linejoin:miter;stroke-miterlimit:4;stroke-opacity:1;stroke-dasharray:none" />
    <path
       transform="matrix(0,-0.56379182,-0.70473975,0,500.79857,429.26252)"
       d="m 250,262.36218 a 25,20 0 1 1 -50,0 25,20 0 1 1 50,0 z"
       sodipodi:ry="20"
       sodipodi:rx="25"
       sodipodi:cy="262.36218"
       sodipodi:cx="225"
       id="path2987-3-3"
       style="fill:#ffffff;fill-opacity:1;stroke:#0000ff;stroke-width:3;stroke-miterlimit:4;stroke-opacity:1;stroke-dasharray:none;stroke-dashoffset:0"
       sodipodi:type="arc" />
    <path
       transform="matrix(0,-0.56379182,-0.70473975,0,500.79857,345.03683)"
       d="m 250,262.36218 a 25,20 0 1 1 -50,0 25,20 0 1 1 50,0 z"
       sodipodi:ry="20"
       sodipodi:rx="25"
       sodipodi:cy="262.36218"
       sodipodi:cx="225"
       id="path2987-8-9-1"
       style="fill:#ffffff;fill-opacity:1;stroke:#0000ff;stroke-width:3;stroke-miterlimit:4;stroke-opacity:1;stroke-dasharray:none;stroke-dashoffset:0"
       sodipodi:type="arc" />
    <path
       transform="matrix(0,-0.56379182,-0.70473975,0,500.79857,260.81113)"
       d="m 250,262.36218 a 25,20 0 1 1 -50,0 25,20 0 1 1 50,0 z"
       sodipodi:ry="20"
       sodipodi:rx="25"
       sodipodi:cy="262.36218"
       sodipodi:cx="225"
       id="path2987-4-2-1"
       style="fill:#ff0000;fill-opacity:1;stroke:#ff0000;stroke-width:3;stroke-miterlimit:4;stroke-opacity:1;stroke-dasharray:none;stroke-dashoffset:0"
       sodipodi:type="arc" />
    <path
       transform="matrix(0,-0.56379182,-0.70473975,0,542.91142,308.9401)"
       d="m 250,262.36218 a 25,20 0 1 1 -50,0 25,20 0 1 1 50,0 z"
       sodipodi:ry="20"
       sodipodi:rx="25"
       sodipodi:cy="262.36218"
       sodipodi:cx="225"
       id="path2987-8-8-9"
       style="fill:#ffffff;fill-opacity:1;stroke:#0000ff;stroke-width:3;stroke-miterlimit:4;stroke-opacity:1;stroke-dasharray:none;stroke-dashoffset:0"
       sodipodi:type="arc" />
    <path
       transform="matrix(0,-0.56379182,-0.70473975,0,542.91142,224.7144)"
       d="m 250,262.36218 a 25,20 0 1 1 -50,0 25,20 0 1 1 50,0 z"
       sodipodi:ry="20"
       sodipodi:rx="25"
       sodipodi:cy="262.36218"
       sodipodi:cx="225"
       id="path2987-4-0-8"
       style="fill:#00ff00;fill-opacity:1;stroke:#00ff00;stroke-width:3;stroke-miterlimit:4;stroke-opacity:1;stroke-dasharray:none;stroke-dashoffset:0"
       sodipodi:type="arc" />
    <path
       transform="matrix(0,-0.56379182,-0.70473975,0,458.68572,465.35925)"
       d="m 250,262.36218 a 25,20 0 1 1 -50,0 25,20 0 1 1 50,0 z"
       sodipodi:ry="20"
       sodipodi:rx="25"
       sodipodi:cy="262.36218"
       sodipodi:cx="225"
       id="path2987-84"
       style="fill:#ffffff;fill-opacity:1;stroke:#0000ff;stroke-width:3;stroke-miterlimit:4;stroke-opacity:1;stroke-dasharray:none;stroke-dashoffset:0"
       sodipodi:type="arc" />
    <path
       transform="matrix(0,-0.56379182,-0.70473975,0,458.68572,381.13356)"
       d="m 250,262.36218 a 25,20 0 1 1 -50,0 25,20 0 1 1 50,0 z"
       sodipodi:ry="20"
       sodipodi:rx="25"
       sodipodi:cy="262.36218"
       sodipodi:cx="225"
       id="path2987-8-5"
       style="fill:#ffffff;fill-opacity:1;stroke:#0000ff;stroke-width:3;stroke-miterlimit:4;stroke-opacity:1;stroke-dasharray:none;stroke-dashoffset:0"
       sodipodi:type="arc" />
    <path
       transform="matrix(0,-0.56379182,-0.70473975,0,458.68572,296.90786)"
       d="m 250,262.36218 a 25,20 0 1 1 -50,0 25,20 0 1 1 50,0 z"
       sodipodi:ry="20"
       sodipodi:rx="25"
       sodipodi:cy="262.36218"
       sodipodi:cx="225"
       id="path2987-4-6"
       style="fill:#ffffff;fill-opacity:1;stroke:#0000ff;stroke-width:3;stroke-miterlimit:4;stroke-opacity:1;stroke-dasharray:none;stroke-dashoffset:0"
       sodipodi:type="arc" />
    <path
       inkscape:connector-curvature="0"
       id="path3844-8-0"
       d="M 603.77268,155.86035 463.08295,275.43361"
       style="fill:none;stroke:#000000;stroke-width:1.20322418;stroke-linecap:butt;stroke-linejoin:miter;stroke-miterlimit:4;stroke-opacity:1;stroke-dasharray:none" />
    <path
       inkscape:connector-curvature="0"
       id="path3844-3-72"
       d="M 602.71808,74.128603 462.02834,193.70186"
       style="fill:none;stroke:#000000;stroke-width:1.20322418;stroke-linecap:butt;stroke-linejoin:miter;stroke-miterlimit:4;stroke-opacity:1;stroke-dasharray:none" />
    <path
       inkscape:connector-curvature="0"
       id="path3844-2"
       d="M 603.17898,241.14993 462.48925,360.72319"
       style="fill:none;stroke:#000000;stroke-width:1.20322418;stroke-linecap:butt;stroke-linejoin:miter;stroke-miterlimit:4;stroke-opacity:1;stroke-dasharray:none" />
    <path
       inkscape:connector-curvature="0"
       id="path3817-3-2"
       d="m 573.62871,292.43968 0,-222.596486"
       style="fill:#ff0000;fill-opacity:1;stroke:#000000;stroke-width:1.20322418;stroke-linecap:butt;stroke-linejoin:miter;stroke-miterlimit:4;stroke-opacity:1;stroke-dasharray:none" />
    <path
       transform="matrix(0,-0.56379182,-0.70473975,0,758.52577,393.1658)"
       d="m 250,262.36218 a 25,20 0 1 1 -50,0 25,20 0 1 1 50,0 z"
       sodipodi:ry="20"
       sodipodi:rx="25"
       sodipodi:cy="262.36218"
       sodipodi:cx="225"
       id="path2987-9-4"
       style="fill:#ffffff;fill-opacity:1;stroke:#0000ff;stroke-width:3;stroke-miterlimit:4;stroke-opacity:1;stroke-dasharray:none;stroke-dashoffset:0"
       sodipodi:type="arc" />
    <path
       inkscape:connector-curvature="0"
       id="path3817-1-1"
       d="m 531.51586,328.53641 0,-222.59649"
       style="fill:#ff0000;fill-opacity:1;stroke:#000000;stroke-width:1.20322418;stroke-linecap:butt;stroke-linejoin:miter;stroke-miterlimit:4;stroke-opacity:1;stroke-dasharray:none" />
    <path
       inkscape:connector-curvature="0"
       id="path3817-8"
       d="m 489.40301,364.63313 0,-222.59648"
       style="fill:#ff0000;fill-opacity:1;stroke:#000000;stroke-width:1.20322418;stroke-linecap:butt;stroke-linejoin:miter;stroke-miterlimit:4;stroke-opacity:1;stroke-dasharray:none" />
    <path
       transform="matrix(0,-0.56379182,-0.70473975,0,716.41292,429.26252)"
       d="m 250,262.36218 a 25,20 0 1 1 -50,0 25,20 0 1 1 50,0 z"
       sodipodi:ry="20"
       sodipodi:rx="25"
       sodipodi:cy="262.36218"
       sodipodi:cx="225"
       id="path2987-3-0"
       style="fill:#ffffff;fill-opacity:1;stroke:#0000ff;stroke-width:3;stroke-miterlimit:4;stroke-opacity:1;stroke-dasharray:none;stroke-dashoffset:0"
       sodipodi:type="arc" />
    <path
       transform="matrix(0,-0.56379182,-0.70473975,0,716.41292,345.03683)"
       d="m 250,262.36218 a 25,20 0 1 1 -50,0 25,20 0 1 1 50,0 z"
       sodipodi:ry="20"
       sodipodi:rx="25"
       sodipodi:cy="262.36218"
       sodipodi:cx="225"
       id="path2987-8-9-3"
       style="fill:#ffffff;fill-opacity:1;stroke:#0000ff;stroke-width:3;stroke-miterlimit:4;stroke-opacity:1;stroke-dasharray:none;stroke-dashoffset:0"
       sodipodi:type="arc" />
    <path
       transform="matrix(0,-0.56379182,-0.70473975,0,716.41292,260.81113)"
       d="m 250,262.36218 a 25,20 0 1 1 -50,0 25,20 0 1 1 50,0 z"
       sodipodi:ry="20"
       sodipodi:rx="25"
       sodipodi:cy="262.36218"
       sodipodi:cx="225"
       id="path2987-4-2-8"
       style="fill:#ffffff;fill-opacity:1;stroke:#0000ff;stroke-width:3;stroke-miterlimit:4;stroke-opacity:1;stroke-dasharray:none;stroke-dashoffset:0"
       sodipodi:type="arc" />
    <path
       transform="matrix(0,-0.56379182,-0.70473975,0,758.52577,308.9401)"
       d="m 250,262.36218 a 25,20 0 1 1 -50,0 25,20 0 1 1 50,0 z"
       sodipodi:ry="20"
       sodipodi:rx="25"
       sodipodi:cy="262.36218"
       sodipodi:cx="225"
       id="path2987-8-8-0"
       style="fill:#ffffff;fill-opacity:1;stroke:#0000ff;stroke-width:3;stroke-miterlimit:4;stroke-opacity:1;stroke-dasharray:none;stroke-dashoffset:0"
       sodipodi:type="arc" />
    <path
       transform="matrix(0,-0.56379182,-0.70473975,0,758.52577,224.7144)"
       d="m 250,262.36218 a 25,20 0 1 1 -50,0 25,20 0 1 1 50,0 z"
       sodipodi:ry="20"
       sodipodi:rx="25"
       sodipodi:cy="262.36218"
       sodipodi:cx="225"
       id="path2987-4-0-6"
       style="fill:#00ff00;fill-opacity:1;stroke:#00ff00;stroke-width:3;stroke-miterlimit:4;stroke-opacity:1;stroke-dasharray:none;stroke-dashoffset:0"
       sodipodi:type="arc" />
    <path
       transform="matrix(0,-0.56379182,-0.70473975,0,674.30007,465.35925)"
       d="m 250,262.36218 a 25,20 0 1 1 -50,0 25,20 0 1 1 50,0 z"
       sodipodi:ry="20"
       sodipodi:rx="25"
       sodipodi:cy="262.36218"
       sodipodi:cx="225"
       id="path2987-90"
       style="fill:#ffffff;fill-opacity:1;stroke:#0000ff;stroke-width:3;stroke-miterlimit:4;stroke-opacity:1;stroke-dasharray:none;stroke-dashoffset:0"
       sodipodi:type="arc" />
    <path
       transform="matrix(0,-0.56379182,-0.70473975,0,674.30007,381.13356)"
       d="m 250,262.36218 a 25,20 0 1 1 -50,0 25,20 0 1 1 50,0 z"
       sodipodi:ry="20"
       sodipodi:rx="25"
       sodipodi:cy="262.36218"
       sodipodi:cx="225"
       id="path2987-8-2"
       style="fill:#ffffff;fill-opacity:1;stroke:#0000ff;stroke-width:3;stroke-miterlimit:4;stroke-opacity:1;stroke-dasharray:none;stroke-dashoffset:0"
       sodipodi:type="arc" />
    <path
       transform="matrix(0,-0.56379182,-0.70473975,0,674.30007,296.90786)"
       d="m 250,262.36218 a 25,20 0 1 1 -50,0 25,20 0 1 1 50,0 z"
       sodipodi:ry="20"
       sodipodi:rx="25"
       sodipodi:cy="262.36218"
       sodipodi:cx="225"
       id="path2987-4-22"
       style="fill:#ffffff;fill-opacity:1;stroke:#0000ff;stroke-width:3;stroke-miterlimit:4;stroke-opacity:1;stroke-dasharray:none;stroke-dashoffset:0"
       sodipodi:type="arc" />
    <path
       sodipodi:nodetypes="cc"
       inkscape:connector-curvature="0"
       id="path4891"
       d="m 136.2818,119.00765 c 47.31534,-57.837268 128.10895,-43.614077 166.60003,1.29218"
       style="fill:none;stroke:#ff0000;stroke-width:2.97795796;stroke-linecap:butt;stroke-linejoin:miter;stroke-miterlimit:4;stroke-opacity:1;stroke-dasharray:8.93387415, 2.97795804;stroke-dashoffset:0;marker-end:url(#Arrow1MendE)" />
    <path
       sodipodi:nodetypes="cc"
       inkscape:connector-curvature="0"
       id="path4891-3"
       d="M 365.29978,83.966671 C 412.61512,26.129408 521.89437,39.47612 560.38545,84.38237"
       style="stroke-linejoin:miter;marker-end:url(#Arrow1MendEK);stroke-opacity:1;stroke-dashoffset:0;stroke:#00ff00;stroke-linecap:butt;stroke-miterlimit:4;stroke-dasharray:8.93387414999999940, 2.97795803999999986;stroke-width:2.97795795999999990;fill:none" />
    <path
       inkscape:connector-curvature="0"
       id="path3865"
       d="m 213.97315,217.78113 26.25212,0 c 0,0 0,-5 0,-5 l 10.50084,10 -10.50084,10 0,-5 -26.25212,0 z"
       style="fill:#212024;fill-opacity:0.66321244;stroke:none" />
    <path
       inkscape:connector-curvature="0"
       id="path3865-4"
       d="m 419.28446,216.98244 26.56514,0 c 0,0 0,-5 0,-5 l 10.62606,10 -10.62606,10 0,-5 -26.56514,0 z"
       style="fill:#212024;fill-opacity:0.66321244;stroke:none" />
    <g
       style="font-style:normal;font-variant:normal;font-weight:normal;font-stretch:normal;letter-spacing:normal;word-spacing:normal;text-anchor:start;fill:none;stroke:#000000;stroke-linecap:butt;stroke-linejoin:miter;stroke-miterlimit:10.43299961;stroke-opacity:1;stroke-dasharray:none;stroke-dashoffset:0"
       id="g4662"
       transform="matrix(3.5954618,0,0,-3.5954618,-733.73748,2680.3623)"
       xml:space="preserve"
       stroke-miterlimit="10.433"
       font-style="normal"
       font-variant="normal"
       font-weight="normal"
       font-stretch="normal"
       font-size-adjust="none"
       letter-spacing="normal"
       word-spacing="normal"
       ns0:text="$x^m$"
       ns0:preamble="">
<path
   style="fill:#000000;stroke-width:0"
   inkscape:connector-curvature="0"
   d="m 226.76,710.12 0,0.03 0.01,0.03 0.01,0.03 0.01,0.04 0.01,0.04 0.01,0.04 0.01,0.04 0.02,0.05 0.01,0.04 0.02,0.05 0.02,0.05 0.02,0.05 0.02,0.05 0.03,0.05 0.02,0.05 0.03,0.05 0.03,0.05 0.03,0.04 0.03,0.05 0.04,0.04 0.04,0.05 0.04,0.04 0.04,0.04 0.04,0.03 0.05,0.03 0.05,0.03 0.02,0.01 0.03,0.02 0.02,0.01 0.03,0.01 0.03,0.01 0.03,0 0.03,0.01 0.02,0.01 0.04,0 0.03,0 0.03,0.01 0.03,0 c 0.05,0 0.29,0 0.5,-0.13 -0.28,-0.05 -0.48,-0.3 -0.48,-0.54 0,-0.16 0.11,-0.35 0.38,-0.35 0.22,0 0.54,0.18 0.54,0.58 0,0.52 -0.59,0.66 -0.93,0.66 -0.58,0 -0.93,-0.53 -1.04,-0.76 -0.25,0.66 -0.79,0.76 -1.08,0.76 -1.03,0 -1.6,-1.29 -1.6,-1.53 0,-0.1 0.1,-0.1 0.12,-0.1 0.08,0 0.11,0.02 0.13,0.11 0.34,1.05 0.99,1.3 1.33,1.3 0.19,0 0.54,-0.09 0.54,-0.67 0,-0.31 -0.17,-0.97 -0.54,-2.36 -0.16,-0.62 -0.51,-1.04 -0.94,-1.04 -0.06,0 -0.29,0 -0.5,0.13 0.25,0.05 0.47,0.26 0.47,0.54 0,0.27 -0.22,0.35 -0.37,0.35 -0.3,0 -0.55,-0.26 -0.55,-0.58 0,-0.46 0.5,-0.65 0.94,-0.65 0.65,0 1.01,0.69 1.04,0.75 0.12,-0.37 0.48,-0.75 1.07,-0.75 1.03,0 1.6,1.28 1.6,1.53 0,0.1 -0.09,0.1 -0.12,0.1 -0.09,0 -0.11,-0.05 -0.13,-0.11 -0.33,-1.07 -1.01,-1.31 -1.33,-1.31 -0.38,0 -0.54,0.32 -0.54,0.66 0,0.22 0.06,0.44 0.17,0.87 z"
   id="path4664" />
<path
   style="fill:#000000;stroke-width:0"
   inkscape:connector-curvature="0"
   d="m 232.15,711.3 0,-0.01 -0.01,-0.01 0,-0.02 -0.01,-0.01 0,-0.02 0,-0.01 -0.01,-0.03 -0.01,-0.04 -0.01,-0.03 -0.01,-0.03 0,-0.02 0,-0.01 -0.01,-0.02 0,-0.01 0,-0.01 -0.01,-0.02 0,-0.01 0,-0.01 -0.01,-0.02 0,-0.01 0,-0.01 0,-0.01 0,-0.01 -0.01,-0.01 0,0 0,-0.01 0,0 0,-0.01 c 0,-0.15 0.13,-0.22 0.24,-0.22 0.12,0 0.23,0.09 0.27,0.15 0.03,0.07 0.09,0.29 0.12,0.44 0.04,0.13 0.12,0.45 0.16,0.62 0.04,0.15 0.08,0.31 0.12,0.47 0.07,0.3 0.07,0.31 0.21,0.53 0.23,0.34 0.57,0.73 1.12,0.73 0.39,0 0.41,-0.32 0.41,-0.49 0,-0.41 -0.3,-1.18 -0.41,-1.48 -0.08,-0.19 -0.11,-0.25 -0.11,-0.37 0,-0.37 0.31,-0.6 0.66,-0.6 0.7,0 1.01,0.96 1.01,1.06 0,0.1 -0.09,0.1 -0.11,0.1 -0.1,0 -0.11,-0.05 -0.14,-0.12 -0.16,-0.56 -0.46,-0.85 -0.73,-0.85 -0.15,0 -0.18,0.1 -0.18,0.25 0,0.16 0.04,0.25 0.16,0.56 0.08,0.22 0.37,0.95 0.37,1.34 0,0.11 0,0.41 -0.26,0.61 -0.12,0.09 -0.32,0.19 -0.65,0.19 -0.62,0 -1.01,-0.41 -1.23,-0.71 -0.05,0.6 -0.55,0.71 -0.9,0.71 -0.58,0 -0.97,-0.36 -1.18,-0.64 -0.05,0.48 -0.46,0.64 -0.75,0.64 -0.29,0 -0.46,-0.22 -0.55,-0.38 -0.15,-0.26 -0.25,-0.65 -0.25,-0.69 0,-0.09 0.1,-0.09 0.12,-0.09 0.1,0 0.11,0.02 0.16,0.21 0.1,0.41 0.23,0.75 0.5,0.75 0.18,0 0.23,-0.15 0.23,-0.34 0,-0.13 -0.06,-0.39 -0.11,-0.58 -0.05,-0.18 -0.12,-0.47 -0.15,-0.62 l -0.22,-0.89 c -0.03,-0.09 -0.07,-0.27 -0.07,-0.29 0,-0.15 0.12,-0.22 0.23,-0.22 0.13,0 0.24,0.09 0.27,0.15 0.04,0.07 0.1,0.29 0.13,0.44 0.03,0.13 0.11,0.45 0.15,0.62 0.05,0.15 0.09,0.31 0.12,0.47 0.08,0.28 0.09,0.34 0.29,0.62 0.2,0.28 0.53,0.64 1.05,0.64 0.4,0 0.41,-0.35 0.41,-0.49 0,-0.17 -0.02,-0.26 -0.12,-0.65 z"
   id="path4666" />
</g>    <g
       ns0:preamble=""
       ns0:text="$x^{m+1}$"
       word-spacing="normal"
       letter-spacing="normal"
       font-size-adjust="none"
       font-stretch="normal"
       font-weight="normal"
       font-variant="normal"
       font-style="normal"
       stroke-miterlimit="10.433"
       xml:space="preserve"
       transform="matrix(3.315377,0,0,-3.315377,-409.36477,2489.6317)"
       id="g4866"
       style="font-style:normal;font-variant:normal;font-weight:normal;font-stretch:normal;letter-spacing:normal;word-spacing:normal;text-anchor:start;fill:none;stroke:#000000;stroke-linecap:butt;stroke-linejoin:miter;stroke-miterlimit:10.43299961;stroke-opacity:1;stroke-dasharray:none;stroke-dashoffset:0">
<path
   id="path4868"
   d="m 226.76,710.12 0,0.03 0.01,0.03 0.01,0.03 0.01,0.04 0.01,0.04 0.01,0.04 0.01,0.04 0.02,0.05 0.01,0.04 0.02,0.05 0.02,0.05 0.02,0.05 0.02,0.05 0.03,0.05 0.02,0.05 0.03,0.05 0.03,0.05 0.03,0.04 0.03,0.05 0.04,0.04 0.04,0.05 0.04,0.04 0.04,0.04 0.04,0.03 0.05,0.03 0.05,0.03 0.02,0.01 0.03,0.02 0.02,0.01 0.03,0.01 0.03,0.01 0.03,0 0.03,0.01 0.02,0.01 0.04,0 0.03,0 0.03,0.01 0.03,0 c 0.05,0 0.29,0 0.5,-0.13 -0.28,-0.05 -0.48,-0.3 -0.48,-0.54 0,-0.16 0.11,-0.35 0.38,-0.35 0.22,0 0.54,0.18 0.54,0.58 0,0.52 -0.59,0.66 -0.93,0.66 -0.58,0 -0.93,-0.53 -1.04,-0.76 -0.25,0.66 -0.79,0.76 -1.08,0.76 -1.03,0 -1.6,-1.29 -1.6,-1.53 0,-0.1 0.1,-0.1 0.12,-0.1 0.08,0 0.11,0.02 0.13,0.11 0.34,1.05 0.99,1.3 1.33,1.3 0.19,0 0.54,-0.09 0.54,-0.67 0,-0.31 -0.17,-0.97 -0.54,-2.36 -0.16,-0.62 -0.51,-1.04 -0.94,-1.04 -0.06,0 -0.29,0 -0.5,0.13 0.25,0.05 0.47,0.26 0.47,0.54 0,0.27 -0.22,0.35 -0.37,0.35 -0.3,0 -0.55,-0.26 -0.55,-0.58 0,-0.46 0.5,-0.65 0.94,-0.65 0.65,0 1.01,0.69 1.04,0.75 0.12,-0.37 0.48,-0.75 1.07,-0.75 1.03,0 1.6,1.28 1.6,1.53 0,0.1 -0.09,0.1 -0.12,0.1 -0.09,0 -0.11,-0.05 -0.13,-0.11 -0.33,-1.07 -1.01,-1.31 -1.33,-1.31 -0.38,0 -0.54,0.32 -0.54,0.66 0,0.22 0.06,0.44 0.17,0.87 z"
   inkscape:connector-curvature="0"
   style="fill:#000000;stroke-width:0" />
<path
   id="path4870"
   d="m 232.15,711.3 0,-0.01 -0.01,-0.01 0,-0.02 -0.01,-0.01 0,-0.02 0,-0.01 -0.01,-0.03 -0.01,-0.04 -0.01,-0.03 -0.01,-0.03 0,-0.02 0,-0.01 -0.01,-0.02 0,-0.01 0,-0.01 -0.01,-0.02 0,-0.01 0,-0.01 -0.01,-0.02 0,-0.01 0,-0.01 0,-0.01 0,-0.01 -0.01,-0.01 0,0 0,-0.01 0,0 0,-0.01 c 0,-0.15 0.13,-0.22 0.24,-0.22 0.12,0 0.23,0.09 0.27,0.15 0.03,0.07 0.09,0.29 0.12,0.44 0.04,0.13 0.12,0.45 0.16,0.62 0.04,0.15 0.08,0.31 0.12,0.47 0.07,0.3 0.07,0.31 0.21,0.53 0.23,0.34 0.57,0.73 1.12,0.73 0.39,0 0.41,-0.32 0.41,-0.49 0,-0.41 -0.3,-1.18 -0.41,-1.48 -0.08,-0.19 -0.11,-0.25 -0.11,-0.37 0,-0.37 0.31,-0.6 0.66,-0.6 0.7,0 1.01,0.96 1.01,1.06 0,0.1 -0.09,0.1 -0.11,0.1 -0.1,0 -0.11,-0.05 -0.14,-0.12 -0.16,-0.56 -0.46,-0.85 -0.73,-0.85 -0.15,0 -0.18,0.1 -0.18,0.25 0,0.16 0.04,0.25 0.16,0.56 0.08,0.22 0.37,0.95 0.37,1.34 0,0.11 0,0.41 -0.26,0.61 -0.12,0.09 -0.32,0.19 -0.65,0.19 -0.62,0 -1.01,-0.41 -1.23,-0.71 -0.05,0.6 -0.55,0.71 -0.9,0.71 -0.58,0 -0.97,-0.36 -1.18,-0.64 -0.05,0.48 -0.46,0.64 -0.75,0.64 -0.29,0 -0.46,-0.22 -0.55,-0.38 -0.15,-0.26 -0.25,-0.65 -0.25,-0.69 0,-0.09 0.1,-0.09 0.12,-0.09 0.1,0 0.11,0.02 0.16,0.21 0.1,0.41 0.23,0.75 0.5,0.75 0.18,0 0.23,-0.15 0.23,-0.34 0,-0.13 -0.06,-0.39 -0.11,-0.58 -0.05,-0.18 -0.12,-0.47 -0.15,-0.62 l -0.22,-0.89 c -0.03,-0.09 -0.07,-0.27 -0.07,-0.29 0,-0.15 0.12,-0.22 0.23,-0.22 0.13,0 0.24,0.09 0.27,0.15 0.04,0.07 0.1,0.29 0.13,0.44 0.03,0.13 0.11,0.45 0.15,0.62 0.05,0.15 0.09,0.31 0.12,0.47 0.08,0.28 0.09,0.34 0.29,0.62 0.2,0.28 0.53,0.64 1.05,0.64 0.4,0 0.41,-0.35 0.41,-0.49 0,-0.17 -0.02,-0.26 -0.12,-0.65 z"
   inkscape:connector-curvature="0"
   style="fill:#000000;stroke-width:0" />
<path
   id="path4872"
   d="m 239.42,712.31 h 2.13 c 0.09,0 0.26,0 0.26,0.17 0,0.17 -0.16,0.17 -0.26,0.17 h -2.13 v 2.14 c 0,0.09 0,0.25 -0.17,0.25 -0.17,0 -0.17,-0.16 -0.17,-0.25 v -2.14 h -2.14 c -0.09,0 -0.26,0 -0.26,-0.17 0,-0.17 0.16,-0.17 0.26,-0.17 h 2.14 v -2.13 c 0,-0.09 0,-0.26 0.17,-0.26 0.17,0 0.17,0.16 0.17,0.26 z"
   inkscape:connector-curvature="0"
   style="fill:#000000;stroke-width:0" />
<path
   id="path4874"
   d="m 244.65,715.16 -0.01,0.01 0,0.01 0,0.01 0,0.01 0,0 0,0.01 0,0.01 0,0.01 0,0 0,0.01 0,0 0,0.01 0,0.01 0,0 0,0.01 0,0 0,0.01 0,0 0,0.01 -0.01,0.01 0,0.01 0,0 -0.01,0.01 0,0.01 -0.01,0 0,0 -0.01,0.01 0,0 -0.01,0 -0.01,0.01 -0.01,0 -0.01,0 0,0 -0.01,0 0,0 -0.01,0 -0.01,0 0,0.01 -0.01,0 -0.01,0 0,0 -0.01,0 -0.01,0 0,0 -0.01,0 -0.01,0 -0.01,0 -0.01,0 0,0 -0.01,0 c -0.45,-0.44 -1.08,-0.45 -1.37,-0.45 v -0.25 c 0.17,0 0.63,0 1.01,0.2 v -3.55 c 0,-0.23 0,-0.32 -0.7,-0.32 h -0.26 v -0.25 c 0.12,0.01 0.98,0.03 1.24,0.03 0.22,0 1.09,-0.02 1.25,-0.03 v 0.25 h -0.27 c -0.69,0 -0.69,0.09 -0.69,0.32 z"
   inkscape:connector-curvature="0"
   style="fill:#000000;stroke-width:0" />
</g>    <g
       style="font-style:normal;font-variant:normal;font-weight:normal;font-stretch:normal;letter-spacing:normal;word-spacing:normal;text-anchor:start;fill:none;stroke:#000000;stroke-linecap:butt;stroke-linejoin:miter;stroke-miterlimit:10.43299961;stroke-opacity:1;stroke-dasharray:none;stroke-dashoffset:0"
       ns0:preamble=""
       ns0:text="$\\frac{P(X^{m+1})}{P(X^m)} = \\frac{P(x^{m+1}|\\cdot)}{P(x^m|\\cdot)}$"
       word-spacing="normal"
       letter-spacing="normal"
       font-size-adjust="none"
       font-stretch="normal"
       font-weight="normal"
       font-variant="normal"
       font-style="normal"
       stroke-miterlimit="10.433"
       xml:space="preserve"
       transform="matrix(4.0120749,0,0,-4.0120749,-737.5742,3272.5687)"
       id="content">
<path
   id="path5828"
   d="m 227,712.92 0.03,0.22 0.47,1.88 c 0.06,0.22 0.07,0.24 0.36,0.24 h 0.81 c 0.65,0 1.06,-0.2 1.06,-0.69 0,-0.22 -0.09,-0.76 -0.44,-1.08 -0.25,-0.22 -0.64,-0.35 -1.14,-0.35 h -1.12 L 227,712.92 h 1.26 c 1.18,0 2.18,0.75 2.18,1.5 0,0.59 -0.57,1.09 -1.53,1.09 h -2.44 c -0.14,0 -0.22,0 -0.22,-0.15 0,-0.1 0.08,-0.1 0.23,-0.1 0.11,0 0.14,0 0.26,-0.02 0.14,-0.01 0.16,-0.02 0.16,-0.09 0,-0.02 0,-0.05 -0.03,-0.16 l -0.92,-3.66 c -0.07,-0.27 -0.07,-0.32 -0.62,-0.32 -0.12,0 -0.21,0 -0.21,-0.15 0,-0.01 0,-0.1 0.11,-0.1 0.21,0 0.71,0.03 0.91,0.03 0.12,0 0.36,0 0.48,-0.01 0.14,-0.01 0.31,-0.02 0.45,-0.02 0.04,0 0.14,0 0.14,0.15 0,0.1 -0.08,0.1 -0.22,0.1 -0.01,0 -0.14,0 -0.27,0.01 -0.16,0.02 -0.16,0.04 -0.16,0.11 0,0.01 0,0.05 0.03,0.15 z"
   inkscape:connector-curvature="0"
   style="fill:#000000;stroke-width:0" />
<path
   id="path5830"
   d="m 233.24,715.97 -0.12,-0.08 -0.11,-0.1 -0.11,-0.09 -0.11,-0.1 -0.1,-0.1 -0.09,-0.1 -0.09,-0.1 -0.09,-0.11 -0.07,-0.11 -0.08,-0.11 -0.07,-0.11 -0.07,-0.11 -0.06,-0.12 -0.06,-0.11 -0.05,-0.11 -0.05,-0.12 -0.04,-0.12 -0.04,-0.11 -0.04,-0.12 -0.04,-0.12 -0.03,-0.11 -0.03,-0.12 -0.02,-0.11 -0.02,-0.12 -0.02,-0.11 -0.02,-0.11 -0.01,-0.11 -0.01,-0.11 -0.01,-0.11 0,-0.1 -0.01,-0.1 0,-0.1 c 0,-0.98 0.3,-2.51 1.67,-3.48 0.06,0 0.14,0 0.14,0.08 0,0.04 -0.02,0.06 -0.07,0.11 -0.92,0.83 -1.26,2.01 -1.26,3.28 0,1.88 0.71,2.79 1.29,3.31 0.02,0.03 0.04,0.05 0.04,0.08 0,0.08 -0.08,0.08 -0.14,0.08 z"
   inkscape:connector-curvature="0"
   style="fill:#000000;stroke-width:0" />
<path
   id="path5832"
   d="m 237.76,713.42 0.66,0.66 c 0.89,0.87 1.16,1.14 1.79,1.18 0.09,0.01 0.17,0.01 0.17,0.15 0,0.08 -0.07,0.1 -0.09,0.1 -0.21,0 -0.45,-0.03 -0.66,-0.03 -0.18,0 -0.62,0.03 -0.81,0.03 -0.05,0 -0.14,-0.02 -0.14,-0.15 0,-0.01 0,-0.09 0.11,-0.1 0.06,-0.01 0.24,-0.02 0.24,-0.17 0,-0.11 -0.11,-0.22 -0.18,-0.29 -0.05,-0.05 -0.94,-0.91 -1.2,-1.18 l -0.7,1.37 c -0.01,0.02 -0.03,0.07 -0.03,0.1 0,0.04 0.13,0.15 0.37,0.17 0.04,0 0.14,0.01 0.14,0.15 0,0.01 -0.01,0.1 -0.12,0.1 -0.14,0 -0.32,-0.02 -0.46,-0.02 -0.15,0 -0.31,-0.01 -0.46,-0.01 -0.12,0 -0.28,0 -0.41,0.01 -0.12,0 -0.26,0.02 -0.37,0.02 -0.04,0 -0.15,0 -0.15,-0.15 0,-0.1 0.09,-0.1 0.2,-0.1 0.41,0 0.44,-0.07 0.51,-0.21 l 0.98,-1.92 -0.39,-0.39 c -0.14,-0.12 -0.46,-0.44 -0.59,-0.57 -0.85,-0.84 -1.13,-1.13 -1.76,-1.16 -0.1,-0.01 -0.18,-0.01 -0.18,-0.15 0,-0.03 0.03,-0.1 0.1,-0.1 0.2,0 0.44,0.03 0.65,0.03 0.12,0 0.29,0 0.41,-0.01 0.13,-0.01 0.28,-0.02 0.4,-0.02 0.03,0 0.14,0 0.14,0.15 0,0.09 -0.08,0.1 -0.12,0.1 -0.07,0.01 -0.22,0.03 -0.22,0.17 0,0.11 0.09,0.21 0.25,0.36 l 1.41,1.38 0.84,-1.64 c 0.04,-0.07 0.04,-0.09 0.04,-0.1 0,-0.04 -0.12,-0.15 -0.37,-0.17 -0.06,-0.01 -0.15,-0.01 -0.15,-0.15 0,-0.01 0.01,-0.1 0.12,-0.1 0.15,0 0.32,0.02 0.47,0.02 0.14,0 0.3,0.01 0.45,0.01 0.12,0 0.28,0 0.41,-0.01 0.12,-0.01 0.26,-0.02 0.38,-0.02 0.03,0 0.14,0 0.14,0.15 0,0.1 -0.09,0.1 -0.2,0.1 -0.4,0 -0.44,0.08 -0.5,0.2 z"
   inkscape:connector-curvature="0"
   style="fill:#000000;stroke-width:0" />
<path
   id="path5834"
   d="m 243.64,714.2 0,-0.01 0,-0.01 -0.01,-0.01 0,-0.01 0,-0.01 0,-0.02 -0.01,-0.02 -0.01,-0.02 0,-0.03 -0.01,-0.02 0,-0.02 0,-0.01 -0.01,-0.02 0,-0.01 0,-0.01 0,-0.01 -0.01,-0.01 0,-0.01 0,0 0,-0.01 0,-0.01 0,-0.01 -0.01,0 0,-0.01 0,-0.01 0,0 0,0 c 0,-0.11 0.09,-0.18 0.19,-0.18 0.07,0 0.18,0.04 0.23,0.17 0.01,0.02 0.07,0.26 0.1,0.38 0.17,0.67 0.17,0.68 0.18,0.7 0.06,0.14 0.42,0.83 1.03,0.83 0.24,0 0.35,-0.13 0.35,-0.35 0,-0.29 -0.21,-0.8 -0.33,-1.08 -0.02,-0.06 -0.05,-0.13 -0.05,-0.21 0,-0.26 0.25,-0.44 0.55,-0.44 0.53,0 0.8,0.65 0.8,0.77 0,0.07 -0.08,0.07 -0.1,0.07 -0.09,0 -0.09,-0.02 -0.12,-0.11 -0.1,-0.3 -0.33,-0.56 -0.56,-0.56 -0.12,0 -0.15,0.08 -0.15,0.19 0,0.1 0.02,0.15 0.06,0.26 0.09,0.2 0.32,0.77 0.32,1.04 0,0.37 -0.27,0.59 -0.74,0.59 -0.46,0 -0.79,-0.28 -0.99,-0.54 -0.04,0.5 -0.53,0.54 -0.74,0.54 -0.48,0 -0.76,-0.3 -0.94,-0.49 -0.02,0.44 -0.48,0.49 -0.61,0.49 -0.49,0 -0.64,-0.76 -0.64,-0.77 0,-0.07 0.08,-0.07 0.11,-0.07 0.08,0 0.09,0.03 0.11,0.1 0.08,0.29 0.19,0.57 0.4,0.57 0.17,0 0.2,-0.15 0.2,-0.26 0,-0.07 -0.05,-0.26 -0.08,-0.39 -0.03,-0.13 -0.08,-0.34 -0.11,-0.44 l -0.11,-0.45 c -0.03,-0.12 -0.08,-0.34 -0.08,-0.36 0,-0.11 0.09,-0.18 0.18,-0.18 0.07,0 0.18,0.04 0.24,0.17 0,0.02 0.06,0.26 0.09,0.38 0.02,0.08 0.08,0.3 0.09,0.35 0.03,0.11 0.06,0.22 0.08,0.33 0.01,0.02 0.19,0.38 0.44,0.59 0.07,0.07 0.28,0.26 0.61,0.26 0.25,0 0.35,-0.14 0.35,-0.35 0,-0.11 -0.05,-0.31 -0.09,-0.47 z"
   inkscape:connector-curvature="0"
   style="fill:#000000;stroke-width:0" />
<path
   id="path5836"
   d="m 249.77,714.87 h 1.74 c 0.06,0 0.19,0 0.19,0.14 0,0.14 -0.13,0.14 -0.19,0.14 h -1.74 v 1.73 c 0,0.07 0,0.2 -0.14,0.2 -0.13,0 -0.13,-0.13 -0.13,-0.2 v -1.73 h -1.74 c -0.06,0 -0.2,0 -0.2,-0.14 0,-0.14 0.14,-0.14 0.2,-0.14 h 1.74 v -1.73 c 0,-0.07 0,-0.2 0.13,-0.2 0.14,0 0.14,0.13 0.14,0.2 z"
   inkscape:connector-curvature="0"
   style="fill:#000000;stroke-width:0" />
<path
   id="path5838"
   d="m 254.18,716.93 0,0 0,0.01 0,0.01 0,0 0,0.01 0,0 0,0.01 0,0.01 0,0 0,0.01 0,0 0,0.01 0,0 -0.01,0 0,0.01 0,0 0,0.01 0,0 0,0 0,0.01 0,0 -0.01,0.01 0,0 0,0.01 -0.01,0 0,0.01 0,0 -0.01,0 -0.01,0.01 0,0 -0.01,0 -0.01,0 -0.01,0 0,0 0,0 -0.01,0 0,0 -0.01,0 0,0 -0.01,0 0,0 -0.01,0 -0.01,0 0,0 -0.01,0 -0.01,0 0,0 -0.01,0 -0.01,0.01 0,0 -0.01,0 c -0.35,-0.32 -0.91,-0.32 -1.01,-0.32 h -0.08 v -0.22 h 0.08 c 0.12,0 0.44,0.01 0.73,0.14 v -2.49 c 0,-0.15 0,-0.2 -0.53,-0.2 h -0.25 v -0.22 c 0.28,0.02 0.72,0.02 1.01,0.02 0.29,0 0.73,0 1,-0.02 v 0.22 h -0.24 c -0.53,0 -0.53,0.05 -0.53,0.2 z"
   inkscape:connector-curvature="0"
   style="fill:#000000;stroke-width:0" />
<path
   id="path5840"
   d="m 256.71,715.97 0,0 -0.01,0 0,0 -0.01,0 0,0 -0.01,0 0,0 -0.01,0 0,0 -0.01,0 0,0 -0.01,0 -0.01,0 0,0 -0.01,0 0,-0.01 -0.01,0 0,0 -0.01,0 0,-0.01 0,0 -0.01,0 0,-0.01 0,0 -0.01,0 0,0 0,0 0,-0.01 0,0 0,0 0,0 0,-0.01 -0.01,0 0,0 0,-0.01 0,0 0,0 0,-0.01 0,0 0,0 0,-0.01 c 0,-0.03 0.02,-0.05 0.06,-0.1 0.6,-0.55 1.27,-1.49 1.27,-3.28 0,-1.46 -0.45,-2.56 -1.2,-3.24 -0.12,-0.12 -0.13,-0.12 -0.13,-0.16 0,-0.03 0.02,-0.08 0.09,-0.08 0.09,0 0.75,0.46 1.21,1.33 0.3,0.57 0.5,1.32 0.5,2.14 0,0.98 -0.29,2.5 -1.67,3.47 z"
   inkscape:connector-curvature="0"
   style="fill:#000000;stroke-width:0" />
<line
   id="line5842"
   y2="708.41998"
   x2="259.20001"
   y1="708.41998"
   x1="224.63"
   style="stroke-width:0.398" />
<path
   id="path5844"
   d="m 231.26,704.65 0.03,0.22 0.47,1.89 c 0.06,0.21 0.06,0.23 0.35,0.23 h 0.82 c 0.65,0 1.05,-0.19 1.05,-0.69 0,-0.21 -0.08,-0.76 -0.43,-1.07 -0.25,-0.23 -0.65,-0.36 -1.15,-0.36 h -1.11 l -0.03,-0.22 h 1.26 c 1.18,0 2.17,0.75 2.17,1.51 0,0.58 -0.57,1.08 -1.52,1.08 h -2.44 c -0.14,0 -0.22,0 -0.22,-0.15 0,-0.1 0.07,-0.1 0.23,-0.1 0.11,0 0.14,0 0.26,-0.01 0.14,-0.02 0.15,-0.03 0.15,-0.1 0,-0.01 0,-0.05 -0.02,-0.15 l -0.92,-3.67 c -0.07,-0.27 -0.08,-0.32 -0.62,-0.32 -0.13,0 -0.21,0 -0.21,-0.15 0,-0.01 0,-0.1 0.11,-0.1 0.2,0 0.7,0.03 0.9,0.03 0.12,0 0.37,0 0.49,-0.01 0.13,0 0.31,-0.02 0.44,-0.02 0.04,0 0.15,0 0.15,0.16 0,0.09 -0.09,0.09 -0.23,0.09 0,0 -0.14,0 -0.26,0.02 -0.16,0.01 -0.16,0.03 -0.16,0.1 0,0.01 0,0.05 0.03,0.15 z"
   inkscape:connector-curvature="0"
   style="fill:#000000;stroke-width:0" />
<path
   id="path5846"
   d="m 237.5,707.71 -0.12,-0.09 -0.12,-0.09 -0.11,-0.1 -0.1,-0.1 -0.1,-0.09 -0.1,-0.11 -0.09,-0.1 -0.08,-0.11 -0.08,-0.11 -0.07,-0.11 -0.08,-0.11 -0.06,-0.11 -0.06,-0.11 -0.06,-0.12 -0.05,-0.11 -0.05,-0.12 -0.05,-0.11 -0.04,-0.12 -0.04,-0.12 -0.03,-0.11 -0.03,-0.12 -0.03,-0.11 -0.03,-0.12 -0.02,-0.11 -0.02,-0.11 -0.01,-0.12 -0.01,-0.11 -0.01,-0.11 -0.01,-0.1 -0.01,-0.11 0,-0.1 0,-0.1 c 0,-0.98 0.29,-2.51 1.67,-3.48 0.05,0 0.14,0 0.14,0.08 0,0.05 -0.02,0.06 -0.07,0.11 -0.93,0.83 -1.27,2.02 -1.27,3.28 0,1.88 0.72,2.8 1.29,3.31 0.03,0.03 0.05,0.05 0.05,0.08 0,0.09 -0.09,0.09 -0.14,0.09 z"
   inkscape:connector-curvature="0"
   style="fill:#000000;stroke-width:0" />
<path
   id="path5848"
   d="m 242.01,705.15 0.67,0.66 c 0.89,0.88 1.16,1.15 1.78,1.18 0.09,0.01 0.18,0.01 0.18,0.15 0,0.08 -0.08,0.1 -0.1,0.1 -0.2,0 -0.44,-0.02 -0.65,-0.02 -0.18,0 -0.63,0.02 -0.81,0.02 -0.06,0 -0.14,-0.02 -0.14,-0.15 0,-0.01 0,-0.09 0.1,-0.1 0.07,-0.01 0.24,-0.02 0.24,-0.17 0,-0.11 -0.1,-0.22 -0.17,-0.29 -0.06,-0.05 -0.94,-0.91 -1.2,-1.17 l -0.7,1.36 c -0.02,0.02 -0.04,0.07 -0.04,0.1 0,0.05 0.13,0.16 0.37,0.17 0.05,0 0.15,0.01 0.15,0.16 0,0 -0.01,0.09 -0.12,0.09 -0.15,0 -0.32,-0.02 -0.47,-0.02 -0.14,0 -0.31,0 -0.45,0 -0.12,0 -0.29,0 -0.41,0 -0.12,0.01 -0.27,0.02 -0.38,0.02 -0.03,0 -0.15,0 -0.15,-0.15 0,-0.1 0.1,-0.1 0.21,-0.1 0.4,0 0.44,-0.07 0.51,-0.21 l 0.97,-1.92 -0.39,-0.39 c -0.13,-0.12 -0.46,-0.43 -0.58,-0.56 -0.85,-0.85 -1.14,-1.14 -1.77,-1.17 -0.09,0 -0.17,0 -0.17,-0.15 0,-0.03 0.02,-0.1 0.1,-0.1 0.2,0 0.44,0.03 0.64,0.03 0.12,0 0.3,0 0.42,-0.01 0.12,0 0.27,-0.02 0.39,-0.02 0.04,0 0.15,0 0.15,0.15 0,0.1 -0.09,0.1 -0.13,0.1 -0.07,0.01 -0.21,0.03 -0.21,0.18 0,0.11 0.09,0.2 0.24,0.35 l 1.42,1.39 0.84,-1.65 c 0.03,-0.07 0.04,-0.09 0.04,-0.09 0,-0.04 -0.13,-0.16 -0.37,-0.18 -0.06,0 -0.15,0 -0.15,-0.15 0,-0.01 0,-0.1 0.12,-0.1 0.14,0 0.32,0.02 0.46,0.02 0.15,0 0.31,0.01 0.45,0.01 0.12,0 0.29,0 0.42,-0.01 0.11,0 0.26,-0.02 0.37,-0.02 0.04,0 0.15,0 0.15,0.16 0,0.09 -0.09,0.09 -0.2,0.09 -0.41,0 -0.44,0.08 -0.51,0.2 z"
   inkscape:connector-curvature="0"
   style="fill:#000000;stroke-width:0" />
<path
   id="path5850"
   d="m 247.9,704.92 -0.01,-0.01 0,-0.01 0,-0.01 0,-0.01 -0.01,-0.02 0,-0.01 0,-0.02 -0.01,-0.02 -0.01,-0.03 0,-0.02 -0.01,-0.02 0,-0.02 0,-0.01 0,-0.01 -0.01,-0.01 0,-0.01 0,-0.01 0,-0.01 0,-0.01 -0.01,0 0,-0.01 0,-0.01 0,-0.01 0,0 0,-0.01 0,0 0,-0.01 c 0,-0.1 0.09,-0.17 0.18,-0.17 0.08,0 0.19,0.04 0.24,0.16 0.01,0.03 0.07,0.26 0.1,0.39 0.16,0.67 0.16,0.68 0.17,0.7 0.07,0.14 0.43,0.83 1.03,0.83 0.25,0 0.35,-0.13 0.35,-0.35 0,-0.29 -0.21,-0.8 -0.32,-1.08 -0.03,-0.06 -0.05,-0.13 -0.05,-0.21 0,-0.26 0.25,-0.44 0.54,-0.44 0.53,0 0.81,0.65 0.81,0.77 0,0.07 -0.09,0.07 -0.11,0.07 -0.08,0 -0.09,-0.02 -0.12,-0.11 -0.09,-0.3 -0.32,-0.56 -0.56,-0.56 -0.11,0 -0.15,0.08 -0.15,0.19 0,0.1 0.02,0.15 0.07,0.26 0.08,0.2 0.31,0.77 0.31,1.04 0,0.37 -0.26,0.59 -0.74,0.59 -0.46,0 -0.78,-0.28 -0.98,-0.54 -0.05,0.5 -0.54,0.54 -0.74,0.54 -0.49,0 -0.77,-0.3 -0.95,-0.49 -0.02,0.44 -0.48,0.49 -0.6,0.49 -0.5,0 -0.64,-0.76 -0.64,-0.77 0,-0.07 0.08,-0.07 0.1,-0.07 0.09,0 0.1,0.03 0.12,0.1 0.07,0.28 0.19,0.57 0.4,0.57 0.17,0 0.2,-0.16 0.2,-0.26 0,-0.07 -0.05,-0.26 -0.08,-0.39 -0.03,-0.13 -0.09,-0.34 -0.11,-0.45 l -0.11,-0.44 c -0.03,-0.12 -0.09,-0.34 -0.09,-0.37 0,-0.1 0.09,-0.17 0.19,-0.17 0.07,0 0.18,0.04 0.23,0.16 0.01,0.03 0.07,0.26 0.1,0.39 0.02,0.08 0.07,0.3 0.09,0.35 0.02,0.1 0.05,0.21 0.08,0.33 0.01,0.02 0.19,0.38 0.43,0.59 0.08,0.07 0.29,0.26 0.61,0.26 0.26,0 0.35,-0.14 0.35,-0.35 0,-0.11 -0.05,-0.31 -0.09,-0.47 z"
   inkscape:connector-curvature="0"
   style="fill:#000000;stroke-width:0" />
<path
   id="path5852"
   d="m 252.46,707.71 -0.01,0 0,0 -0.01,0 0,0 -0.01,0 0,0 -0.01,0 0,0 -0.01,0 0,0 -0.01,-0.01 -0.01,0 0,0 -0.01,0 0,0 -0.01,0 0,0 -0.01,-0.01 0,0 -0.01,0 0,-0.01 0,0 -0.01,0 0,0 0,-0.01 0,0 0,0 0,0 -0.01,-0.01 0,0 0,0 0,0 0,-0.01 0,0 0,0 0,-0.01 0,0 0,0 0,-0.01 0,0 0,-0.01 c 0,-0.03 0.02,-0.05 0.06,-0.1 0.6,-0.55 1.27,-1.49 1.27,-3.28 0,-1.46 -0.46,-2.55 -1.21,-3.23 -0.12,-0.12 -0.12,-0.13 -0.12,-0.17 0,-0.03 0.02,-0.08 0.09,-0.08 0.08,0 0.74,0.46 1.2,1.33 0.31,0.58 0.51,1.33 0.51,2.14 0,0.98 -0.29,2.5 -1.67,3.48 z"
   inkscape:connector-curvature="0"
   style="fill:#000000;stroke-width:0" />
<path
   id="path5854"
   d="m 270,709.18 0.03,0 0.03,0 0.02,0 0.02,0 0.01,0 0.02,0 0.01,0 0.02,0.01 0.01,0 0.01,0 0.02,0 0.01,0.01 0.01,0 0.02,0.01 0.01,0 0.01,0.01 0.01,0.01 0.01,0 0.01,0.01 0.01,0.01 0,0.01 0.01,0.01 0,0 0,0.01 0.01,0 0,0.01 0,0.01 0.01,0 0,0.01 0,0.01 0,0.01 0,0 0,0.01 0,0.01 0.01,0.01 0,0.01 0,0.01 c 0,0.2 -0.19,0.2 -0.33,0.2 h -5.96 c -0.14,0 -0.33,0 -0.33,-0.2 0,-0.2 0.19,-0.2 0.34,-0.2 z"
   inkscape:connector-curvature="0"
   style="fill:#000000;stroke-width:0" />
<path
   id="path5856"
   d="m 270.01,707.25 0.01,0 0.01,0 0.03,0 0.03,0 0.01,0 0.02,0 0.01,0 0.02,0.01 0.01,0 0.01,0 0.02,0 0.01,0.01 0.01,0 0.01,0 0.02,0.01 0.01,0.01 0.01,0 0.01,0.01 0.01,0.01 0.01,0 0.01,0.01 0,0.01 0,0 0.01,0.01 0,0 0,0.01 0.01,0.01 0,0 0,0.01 0.01,0.01 0,0 0,0.01 0,0.01 0,0.01 0,0 0,0.01 0.01,0.01 0,0.01 0,0.01 c 0,0.2 -0.19,0.2 -0.34,0.2 h -5.94 c -0.15,0 -0.34,0 -0.34,-0.2 0,-0.2 0.19,-0.2 0.33,-0.2 z"
   inkscape:connector-curvature="0"
   style="fill:#000000;stroke-width:0" />
<path
   id="path5858"
   d="m 277.25,712.92 0.03,0.22 0.47,1.88 c 0.06,0.22 0.06,0.24 0.36,0.24 h 0.81 c 0.65,0 1.05,-0.2 1.05,-0.69 0,-0.22 -0.08,-0.76 -0.43,-1.08 -0.25,-0.22 -0.65,-0.35 -1.15,-0.35 h -1.11 l -0.03,-0.22 h 1.26 c 1.18,0 2.17,0.75 2.17,1.5 0,0.59 -0.57,1.09 -1.52,1.09 h -2.44 c -0.14,0 -0.22,0 -0.22,-0.15 0,-0.1 0.07,-0.1 0.23,-0.1 0.11,0 0.14,0 0.26,-0.02 0.14,-0.01 0.15,-0.02 0.15,-0.09 0,-0.02 0,-0.05 -0.02,-0.16 l -0.92,-3.66 c -0.07,-0.27 -0.08,-0.32 -0.62,-0.32 -0.13,0 -0.21,0 -0.21,-0.15 0,-0.01 0,-0.1 0.11,-0.1 0.2,0 0.7,0.03 0.91,0.03 0.11,0 0.36,0 0.48,-0.01 0.14,-0.01 0.31,-0.02 0.44,-0.02 0.04,0 0.15,0 0.15,0.15 0,0.1 -0.09,0.1 -0.23,0.1 0,0 -0.13,0 -0.26,0.01 -0.16,0.02 -0.16,0.04 -0.16,0.11 0,0.01 0,0.05 0.03,0.15 z"
   inkscape:connector-curvature="0"
   style="fill:#000000;stroke-width:0" />
<path
   id="path5860"
   d="m 283.49,715.97 -0.12,-0.08 -0.12,-0.1 -0.11,-0.09 -0.1,-0.1 -0.1,-0.1 -0.09,-0.1 -0.09,-0.1 -0.09,-0.11 -0.08,-0.11 -0.07,-0.11 -0.07,-0.11 -0.07,-0.11 -0.06,-0.12 -0.06,-0.11 -0.05,-0.11 -0.05,-0.12 -0.05,-0.12 -0.04,-0.11 -0.04,-0.12 -0.03,-0.12 -0.03,-0.11 -0.03,-0.12 -0.02,-0.11 -0.02,-0.12 -0.02,-0.11 -0.02,-0.11 -0.01,-0.11 -0.01,-0.11 -0.01,-0.11 -0.01,-0.1 0,-0.1 0,-0.1 c 0,-0.98 0.29,-2.51 1.67,-3.48 0.06,0 0.14,0 0.14,0.08 0,0.04 -0.02,0.06 -0.07,0.11 -0.92,0.83 -1.27,2.01 -1.27,3.28 0,1.88 0.72,2.79 1.29,3.31 0.03,0.03 0.05,0.05 0.05,0.08 0,0.08 -0.08,0.08 -0.14,0.08 z"
   inkscape:connector-curvature="0"
   style="fill:#000000;stroke-width:0" />
<path
   id="path5862"
   d="m 285.87,711.5 -0.01,-0.03 -0.01,-0.02 -0.01,-0.02 -0.01,-0.03 -0.01,-0.02 -0.01,-0.03 -0.01,-0.02 -0.02,-0.03 -0.01,-0.02 -0.01,-0.03 -0.02,-0.03 -0.02,-0.02 -0.02,-0.03 -0.01,-0.02 -0.02,-0.02 -0.02,-0.03 -0.02,-0.02 -0.03,-0.02 -0.02,-0.02 -0.02,-0.02 -0.03,-0.02 -0.02,-0.02 -0.03,-0.02 -0.03,-0.01 -0.02,-0.02 -0.03,-0.01 -0.03,-0.01 -0.03,-0.01 -0.03,-0.01 -0.03,0 -0.04,0 -0.03,0 c -0.02,0 -0.23,0 -0.38,0.09 0.29,0.09 0.31,0.34 0.31,0.38 0,0.16 -0.12,0.26 -0.28,0.26 -0.19,0 -0.39,-0.16 -0.39,-0.42 0,-0.35 0.39,-0.51 0.73,-0.51 0.32,0 0.6,0.2 0.78,0.49 0.16,-0.36 0.55,-0.49 0.83,-0.49 0.8,0 1.22,0.87 1.22,1.06 0,0.09 -0.09,0.09 -0.11,0.09 -0.1,0 -0.1,-0.03 -0.13,-0.11 -0.15,-0.48 -0.57,-0.84 -0.96,-0.84 -0.27,0 -0.42,0.18 -0.42,0.45 0,0.18 0.17,0.81 0.36,1.58 0.14,0.54 0.45,0.71 0.68,0.71 0.02,0 0.23,0 0.38,-0.1 -0.22,-0.06 -0.31,-0.25 -0.31,-0.38 0,-0.15 0.12,-0.25 0.28,-0.25 0.16,0 0.39,0.13 0.39,0.42 0,0.39 -0.44,0.51 -0.72,0.51 -0.35,0 -0.63,-0.23 -0.78,-0.5 -0.13,0.29 -0.45,0.5 -0.84,0.5 -0.78,0 -1.22,-0.86 -1.22,-1.07 0,-0.09 0.09,-0.09 0.11,-0.09 0.09,0 0.1,0.03 0.14,0.12 0.17,0.54 0.61,0.84 0.95,0.84 0.23,0 0.42,-0.12 0.42,-0.46 0,-0.14 -0.08,-0.48 -0.15,-0.72 z"
   inkscape:connector-curvature="0"
   style="fill:#000000;stroke-width:0" />
<path
   id="path5864"
   d="m 291.33,714.2 0,-0.01 0,-0.01 -0.01,-0.01 0,-0.01 0,-0.01 0,-0.02 -0.01,-0.02 -0.01,-0.02 0,-0.03 -0.01,-0.02 0,-0.02 -0.01,-0.01 0,-0.02 0,-0.01 0,-0.01 0,-0.01 -0.01,-0.01 0,-0.01 0,0 0,-0.01 0,-0.01 -0.01,-0.01 0,0 0,-0.01 0,-0.01 0,0 0,0 c 0,-0.11 0.09,-0.18 0.19,-0.18 0.07,0 0.18,0.04 0.23,0.17 0.01,0.02 0.07,0.25 0.1,0.38 0.17,0.67 0.17,0.68 0.18,0.7 0.06,0.14 0.42,0.83 1.03,0.83 0.24,0 0.35,-0.13 0.35,-0.35 0,-0.29 -0.21,-0.8 -0.33,-1.08 -0.02,-0.06 -0.05,-0.13 -0.05,-0.21 0,-0.26 0.25,-0.44 0.55,-0.44 0.53,0 0.8,0.65 0.8,0.77 0,0.07 -0.08,0.07 -0.1,0.07 -0.09,0 -0.09,-0.02 -0.12,-0.11 -0.1,-0.3 -0.33,-0.56 -0.57,-0.56 -0.11,0 -0.14,0.08 -0.14,0.19 0,0.1 0.02,0.15 0.06,0.26 0.08,0.2 0.31,0.77 0.31,1.04 0,0.37 -0.26,0.59 -0.73,0.59 -0.47,0 -0.79,-0.28 -0.99,-0.54 -0.04,0.5 -0.54,0.54 -0.74,0.54 -0.49,0 -0.77,-0.3 -0.94,-0.49 -0.02,0.44 -0.48,0.49 -0.61,0.49 -0.49,0 -0.64,-0.76 -0.64,-0.77 0,-0.07 0.08,-0.07 0.11,-0.07 0.08,0 0.09,0.03 0.11,0.1 0.08,0.29 0.19,0.57 0.4,0.57 0.17,0 0.2,-0.15 0.2,-0.26 0,-0.07 -0.05,-0.26 -0.08,-0.39 -0.03,-0.13 -0.08,-0.34 -0.11,-0.44 l -0.11,-0.45 c -0.03,-0.12 -0.08,-0.34 -0.08,-0.36 0,-0.11 0.08,-0.18 0.18,-0.18 0.07,0 0.18,0.04 0.24,0.17 0,0.02 0.06,0.25 0.09,0.38 0.02,0.08 0.08,0.3 0.09,0.35 0.03,0.11 0.06,0.22 0.08,0.33 0.01,0.02 0.19,0.38 0.43,0.59 0.08,0.07 0.29,0.26 0.62,0.26 0.25,0 0.34,-0.14 0.34,-0.35 0,-0.11 -0.04,-0.31 -0.09,-0.47 z"
   inkscape:connector-curvature="0"
   style="fill:#000000;stroke-width:0" />
<path
   id="path5866"
   d="m 297.46,714.87 h 1.73 c 0.07,0 0.2,0 0.2,0.14 0,0.14 -0.13,0.14 -0.2,0.14 h -1.73 v 1.73 c 0,0.07 0,0.2 -0.14,0.2 -0.14,0 -0.14,-0.13 -0.14,-0.2 v -1.73 h -1.73 c -0.07,0 -0.2,0 -0.2,-0.14 0,-0.14 0.13,-0.14 0.2,-0.14 h 1.73 v -1.73 c 0,-0.07 0,-0.2 0.14,-0.2 0.14,0 0.14,0.13 0.14,0.2 z"
   inkscape:connector-curvature="0"
   style="fill:#000000;stroke-width:0" />
<path
   id="path5868"
   d="m 301.87,716.93 0,0 0,0.01 0,0.01 0,0 0,0.01 0,0 0,0.01 0,0.01 0,0 0,0.01 -0.01,0 0,0.01 0,0 0,0 0,0.01 0,0 0,0.01 0,0 0,0 0,0.01 0,0 -0.01,0.01 0,0 0,0.01 -0.01,0 0,0.01 -0.01,0 0,0 -0.01,0.01 0,0 -0.01,0 -0.01,0 -0.01,0 0,0 0,0 -0.01,0 0,0 -0.01,0 0,0 -0.01,0 -0.01,0 0,0 -0.01,0 0,0 -0.01,0 -0.01,0 0,0 -0.01,0 -0.01,0.01 0,0 -0.01,0 c -0.36,-0.32 -0.91,-0.32 -1.01,-0.32 h -0.08 v -0.22 h 0.08 c 0.12,0 0.44,0.01 0.73,0.14 v -2.49 c 0,-0.15 0,-0.2 -0.53,-0.2 h -0.25 v -0.22 c 0.28,0.02 0.72,0.02 1.01,0.02 0.29,0 0.73,0 1,-0.02 v 0.22 h -0.25 c -0.52,0 -0.52,0.05 -0.52,0.2 z"
   inkscape:connector-curvature="0"
   style="fill:#000000;stroke-width:0" />
<path
   id="path5870"
   d="m 305.13,715.7 0,0.01 0,0.01 0,0.01 0,0.02 -0.01,0.02 0,0.01 0,0.01 0,0.01 0,0.01 0,0.01 0,0.02 -0.01,0.01 0,0.01 0,0.01 0,0.01 -0.01,0.01 0,0.01 -0.01,0.01 0,0.01 -0.01,0.01 -0.01,0 -0.01,0.01 0,0 0,0.01 -0.01,0 0,0 -0.01,0.01 0,0 -0.01,0 0,0 -0.01,0.01 -0.01,0 0,0 -0.01,0 0,0 -0.01,0 -0.01,0 -0.01,0 0,0 -0.01,0 c -0.17,0 -0.17,-0.15 -0.17,-0.27 v -6.41 c 0,-0.1 0,-0.27 0.16,-0.27 0.18,0 0.18,0.16 0.18,0.27 z"
   inkscape:connector-curvature="0"
   style="fill:#000000;stroke-width:0" />
<path
   id="path5872"
   d="m 307.72,712.5 0,0.02 0,0.02 0,0.03 -0.01,0.02 0,0.02 -0.01,0.02 -0.01,0.02 0,0.02 -0.01,0.02 -0.01,0.01 -0.01,0.02 -0.01,0.02 -0.02,0.01 -0.01,0.02 -0.01,0.01 -0.02,0.01 -0.01,0.02 -0.02,0.01 -0.01,0.01 -0.02,0.01 -0.01,0.01 -0.02,0.01 -0.02,0.01 -0.01,0 -0.02,0.01 -0.02,0.01 -0.02,0 -0.01,0 -0.02,0.01 -0.02,0 -0.02,0 -0.01,0 c -0.23,0 -0.41,-0.19 -0.41,-0.39 0,-0.25 0.21,-0.41 0.4,-0.41 0.23,0 0.4,0.19 0.4,0.4 z"
   inkscape:connector-curvature="0"
   style="fill:#000000;stroke-width:0" />
<path
   id="path5874"
   d="m 309.13,715.97 0,0 -0.01,0 0,0 -0.01,0 0,0 -0.01,0 0,0 -0.01,0 0,0 -0.01,0 0,0 -0.01,0 -0.01,0 0,0 -0.01,0 0,-0.01 -0.01,0 0,0 -0.01,0 0,-0.01 0,0 -0.01,0 0,-0.01 0,0 -0.01,0 0,0 0,0 0,-0.01 0,0 0,0 0,0 0,-0.01 -0.01,0 0,0 0,-0.01 0,0 0,0 0,-0.01 0,0 0,0 0,-0.01 c 0,-0.03 0.02,-0.05 0.06,-0.1 0.6,-0.55 1.27,-1.49 1.27,-3.28 0,-1.46 -0.45,-2.56 -1.2,-3.24 -0.12,-0.12 -0.13,-0.12 -0.13,-0.16 0,-0.03 0.02,-0.08 0.09,-0.08 0.09,0 0.75,0.46 1.21,1.33 0.3,0.57 0.5,1.32 0.5,2.14 0,0.98 -0.29,2.5 -1.67,3.47 z"
   inkscape:connector-curvature="0"
   style="fill:#000000;stroke-width:0" />
<line
   id="line5876"
   y2="708.41998"
   x2="311.62"
   y1="708.41998"
   x1="274.87"
   style="stroke-width:0.398" />
<path
   id="path5878"
   d="m 281.5,704.65 0.03,0.22 0.48,1.89 c 0.05,0.21 0.06,0.23 0.35,0.23 h 0.81 c 0.65,0 1.06,-0.19 1.06,-0.69 0,-0.21 -0.09,-0.76 -0.43,-1.07 -0.25,-0.23 -0.65,-0.36 -1.15,-0.36 h -1.12 l -0.03,-0.22 h 1.26 c 1.18,0 2.18,0.75 2.18,1.51 0,0.58 -0.57,1.08 -1.53,1.08 h -2.43 c -0.15,0 -0.23,0 -0.23,-0.15 0,-0.1 0.08,-0.1 0.23,-0.1 0.11,0 0.14,0 0.27,-0.01 0.14,-0.02 0.15,-0.03 0.15,-0.1 0,-0.01 0,-0.05 -0.03,-0.15 l -0.92,-3.67 c -0.07,-0.27 -0.07,-0.32 -0.62,-0.32 -0.12,0 -0.21,0 -0.21,-0.15 0,-0.01 0,-0.1 0.11,-0.1 0.21,0 0.71,0.03 0.91,0.03 0.12,0 0.36,0 0.48,-0.01 0.14,0 0.31,-0.02 0.45,-0.02 0.04,0 0.14,0 0.14,0.16 0,0.09 -0.08,0.09 -0.22,0.09 -0.01,0 -0.14,0 -0.26,0.02 -0.16,0.01 -0.16,0.03 -0.16,0.1 0,0.01 0,0.05 0.02,0.15 z"
   inkscape:connector-curvature="0"
   style="fill:#000000;stroke-width:0" />
<path
   id="path5880"
   d="m 287.75,707.71 -0.13,-0.09 -0.11,-0.09 -0.11,-0.1 -0.11,-0.1 -0.1,-0.09 -0.09,-0.11 -0.09,-0.1 -0.08,-0.11 -0.08,-0.11 -0.08,-0.11 -0.07,-0.11 -0.06,-0.11 -0.07,-0.11 -0.05,-0.12 -0.06,-0.11 -0.05,-0.12 -0.04,-0.11 -0.04,-0.12 -0.04,-0.12 -0.04,-0.11 -0.03,-0.12 -0.02,-0.11 -0.03,-0.12 -0.02,-0.11 -0.02,-0.11 -0.01,-0.12 -0.02,-0.11 -0.01,-0.11 -0.01,-0.1 0,-0.11 0,-0.1 0,-0.1 c 0,-0.98 0.29,-2.51 1.67,-3.48 0.05,0 0.14,0 0.14,0.08 0,0.05 -0.03,0.06 -0.07,0.11 -0.93,0.83 -1.27,2.02 -1.27,3.28 0,1.88 0.72,2.8 1.29,3.31 0.02,0.03 0.05,0.05 0.05,0.08 0,0.09 -0.09,0.09 -0.14,0.09 z"
   inkscape:connector-curvature="0"
   style="fill:#000000;stroke-width:0" />
<path
   id="path5882"
   d="m 290.12,703.23 -0.01,-0.02 0,-0.03 -0.01,-0.02 -0.01,-0.02 -0.01,-0.03 -0.01,-0.02 -0.02,-0.03 -0.01,-0.03 -0.01,-0.02 -0.02,-0.03 -0.02,-0.02 -0.01,-0.03 -0.02,-0.02 -0.02,-0.03 -0.02,-0.02 -0.02,-0.02 -0.02,-0.03 -0.02,-0.02 -0.02,-0.02 -0.03,-0.02 -0.02,-0.02 -0.03,-0.02 -0.02,-0.01 -0.03,-0.02 -0.03,-0.01 -0.03,-0.02 -0.03,-0.01 -0.03,-0.01 -0.03,0 -0.03,-0.01 -0.03,0 -0.03,0 c -0.02,0 -0.23,0 -0.38,0.1 0.29,0.09 0.31,0.34 0.31,0.38 0,0.15 -0.12,0.25 -0.28,0.25 -0.2,0 -0.4,-0.16 -0.4,-0.42 0,-0.35 0.39,-0.51 0.73,-0.51 0.32,0 0.61,0.2 0.78,0.5 0.17,-0.37 0.55,-0.5 0.83,-0.5 0.8,0 1.23,0.87 1.23,1.07 0,0.09 -0.09,0.09 -0.11,0.09 -0.1,0 -0.11,-0.04 -0.14,-0.12 -0.14,-0.48 -0.56,-0.84 -0.95,-0.84 -0.28,0 -0.43,0.19 -0.43,0.45 0,0.18 0.17,0.81 0.37,1.59 0.14,0.53 0.45,0.7 0.68,0.7 0.01,0 0.23,0 0.37,-0.09 -0.22,-0.06 -0.3,-0.26 -0.3,-0.38 0,-0.16 0.12,-0.26 0.28,-0.26 0.16,0 0.39,0.13 0.39,0.42 0,0.39 -0.45,0.51 -0.73,0.51 -0.34,0 -0.62,-0.23 -0.78,-0.49 -0.12,0.28 -0.44,0.49 -0.83,0.49 -0.78,0 -1.23,-0.86 -1.23,-1.06 0,-0.09 0.1,-0.09 0.12,-0.09 0.09,0 0.1,0.02 0.13,0.11 0.18,0.55 0.61,0.84 0.96,0.84 0.23,0 0.41,-0.12 0.41,-0.45 0,-0.14 -0.08,-0.49 -0.14,-0.73 z"
   inkscape:connector-curvature="0"
   style="fill:#000000;stroke-width:0" />
<path
   id="path5884"
   d="m 295.59,704.92 -0.01,-0.01 0,-0.01 0,-0.01 0,-0.01 -0.01,-0.02 0,-0.01 -0.01,-0.02 0,-0.02 -0.01,-0.03 0,-0.02 -0.01,-0.02 0,-0.02 0,-0.01 -0.01,-0.01 0,-0.01 0,-0.01 0,-0.01 0,-0.01 -0.01,-0.01 0,0 0,-0.01 0,-0.01 0,-0.01 0,0 0,-0.01 0,0 0,-0.01 c 0,-0.1 0.09,-0.17 0.18,-0.17 0.07,0 0.19,0.04 0.24,0.16 0,0.03 0.06,0.26 0.09,0.39 0.17,0.67 0.17,0.68 0.18,0.7 0.07,0.14 0.43,0.83 1.03,0.83 0.25,0 0.35,-0.13 0.35,-0.35 0,-0.29 -0.21,-0.8 -0.32,-1.08 -0.03,-0.06 -0.05,-0.13 -0.05,-0.21 0,-0.26 0.25,-0.44 0.54,-0.44 0.53,0 0.81,0.65 0.81,0.77 0,0.07 -0.09,0.07 -0.11,0.07 -0.08,0 -0.09,-0.02 -0.12,-0.11 -0.09,-0.3 -0.32,-0.56 -0.56,-0.56 -0.11,0 -0.15,0.08 -0.15,0.19 0,0.1 0.02,0.15 0.07,0.26 0.08,0.2 0.31,0.77 0.31,1.04 0,0.37 -0.27,0.59 -0.74,0.59 -0.46,0 -0.78,-0.28 -0.98,-0.54 -0.05,0.5 -0.54,0.54 -0.74,0.54 -0.49,0 -0.77,-0.3 -0.95,-0.49 -0.02,0.44 -0.48,0.49 -0.6,0.49 -0.5,0 -0.64,-0.76 -0.64,-0.77 0,-0.07 0.08,-0.07 0.1,-0.07 0.09,0 0.1,0.03 0.12,0.1 0.07,0.28 0.19,0.57 0.4,0.57 0.16,0 0.2,-0.16 0.2,-0.26 0,-0.07 -0.05,-0.26 -0.08,-0.39 -0.04,-0.13 -0.09,-0.34 -0.11,-0.45 l -0.11,-0.44 c -0.03,-0.12 -0.09,-0.34 -0.09,-0.37 0,-0.1 0.09,-0.17 0.19,-0.17 0.07,0 0.18,0.04 0.23,0.16 0.01,0.03 0.07,0.26 0.1,0.39 0.02,0.08 0.07,0.3 0.09,0.35 0.02,0.1 0.05,0.21 0.08,0.33 0.01,0.02 0.19,0.38 0.43,0.59 0.08,0.07 0.29,0.26 0.61,0.26 0.25,0 0.35,-0.14 0.35,-0.35 0,-0.11 -0.05,-0.31 -0.09,-0.47 z"
   inkscape:connector-curvature="0"
   style="fill:#000000;stroke-width:0" />
<path
   id="path5886"
   d="m 300.87,707.44 0,0.01 0,0.01 0,0.01 0,0.01 0,0.02 0,0.01 0,0.01 0,0.01 0,0.02 -0.01,0.01 0,0.01 0,0.01 0,0.01 -0.01,0.01 0,0.01 0,0.01 -0.01,0.01 0,0.01 -0.01,0.01 -0.01,0.01 0,0.01 -0.01,0 -0.01,0.01 0,0 0,0 -0.01,0.01 0,0 -0.01,0 0,0 -0.01,0.01 0,0 -0.01,0 -0.01,0 0,0 -0.01,0.01 -0.01,0 0,0 -0.01,0 -0.01,0 -0.01,0 c -0.17,0 -0.17,-0.16 -0.17,-0.27 v -6.41 c 0,-0.11 0,-0.27 0.17,-0.27 0.17,0 0.17,0.15 0.17,0.27 z"
   inkscape:connector-curvature="0"
   style="fill:#000000;stroke-width:0" />
<path
   id="path5888"
   d="m 303.47,704.23 0,0.02 -0.01,0.03 0,0.02 0,0.02 -0.01,0.02 0,0.02 -0.01,0.02 -0.01,0.02 -0.01,0.02 -0.01,0.02 -0.01,0.01 -0.01,0.02 -0.01,0.01 -0.01,0.02 -0.02,0.01 -0.01,0.02 -0.02,0.01 -0.01,0.01 -0.02,0.01 -0.01,0.01 -0.02,0.01 -0.01,0.01 -0.02,0.01 -0.02,0.01 -0.02,0 -0.01,0.01 -0.02,0 -0.02,0.01 -0.02,0 -0.01,0 -0.02,0 -0.02,0.01 c -0.23,0 -0.4,-0.19 -0.4,-0.4 0,-0.25 0.21,-0.4 0.39,-0.4 0.23,0 0.41,0.18 0.41,0.39 z"
   inkscape:connector-curvature="0"
   style="fill:#000000;stroke-width:0" />
<path
   id="path5890"
   d="m 304.88,707.71 0,0 -0.01,0 0,0 -0.01,0 -0.01,0 0,0 -0.01,0 0,0 -0.01,0 0,0 -0.01,-0.01 0,0 -0.01,0 0,0 -0.01,0 0,0 -0.01,0 0,-0.01 -0.01,0 0,0 -0.01,-0.01 0,0 -0.01,0 0,0 0,-0.01 0,0 0,0 0,0 0,-0.01 -0.01,0 0,0 0,0 0,-0.01 0,0 0,0 0,-0.01 0,0 0,0 0,-0.01 0,0 0,-0.01 c 0,-0.03 0.02,-0.05 0.06,-0.1 0.6,-0.55 1.27,-1.49 1.27,-3.28 0,-1.46 -0.46,-2.55 -1.21,-3.23 -0.12,-0.12 -0.12,-0.13 -0.12,-0.17 0,-0.03 0.02,-0.08 0.09,-0.08 0.08,0 0.74,0.46 1.2,1.33 0.31,0.58 0.51,1.33 0.51,2.14 0,0.98 -0.29,2.5 -1.67,3.48 z"
   inkscape:connector-curvature="0"
   style="fill:#000000;stroke-width:0" />
</g>  </g>
</svg>
