<?xml version="1.0" encoding="UTF-8" standalone="no"?>
<!-- Created with Inkscape (http://www.inkscape.org/) -->

<svg
   xmlns:dc="http://purl.org/dc/elements/1.1/"
   xmlns:cc="http://creativecommons.org/ns#"
   xmlns:rdf="http://www.w3.org/1999/02/22-rdf-syntax-ns#"
   xmlns:svg="http://www.w3.org/2000/svg"
   xmlns="http://www.w3.org/2000/svg"
   xmlns:sodipodi="http://sodipodi.sourceforge.net/DTD/sodipodi-0.dtd"
   xmlns:inkscape="http://www.inkscape.org/namespaces/inkscape"
   width="744.09448819"
   height="1052.3622047"
   id="svg2"
   version="1.1"
   inkscape:version="0.48.3.1 r9886"
   sodipodi:docname="mrf.svg">
  <defs
     id="defs4" />
  <sodipodi:namedview
     id="base"
     pagecolor="#ffffff"
     bordercolor="#666666"
     borderopacity="1.0"
     inkscape:pageopacity="0.0"
     inkscape:pageshadow="2"
     inkscape:zoom="1.4"
     inkscape:cx="386.77777"
     inkscape:cy="641.98471"
     inkscape:document-units="px"
     inkscape:current-layer="layer1"
     showgrid="true"
     inkscape:snap-global="false"
     inkscape:window-width="1280"
     inkscape:window-height="977"
     inkscape:window-x="1680"
     inkscape:window-y="26"
     inkscape:window-maximized="1">
    <inkscape:grid
       type="xygrid"
       id="grid2985" />
  </sodipodi:namedview>
  <metadata
     id="metadata7">
    <rdf:RDF>
      <cc:Work
         rdf:about="">
        <dc:format>image/svg+xml</dc:format>
        <dc:type
           rdf:resource="http://purl.org/dc/dcmitype/StillImage" />
        <dc:title></dc:title>
      </cc:Work>
    </rdf:RDF>
  </metadata>
  <g
     inkscape:label="Layer 1"
     inkscape:groupmode="layer"
     id="layer1">
    <path
       style="fill:none;stroke:#000000;stroke-width:2;stroke-linecap:butt;stroke-linejoin:miter;stroke-miterlimit:4;stroke-opacity:1;stroke-dasharray:none"
       d="m 585,203.79076 0,360"
       id="path3851-0"
       inkscape:connector-curvature="0" />
    <path
       style="fill:none;stroke:#000000;stroke-width:2;stroke-linecap:butt;stroke-linejoin:miter;stroke-miterlimit:4;stroke-opacity:1;stroke-dasharray:none"
       d="m 425,203.79075 0,360"
       id="path3851-8"
       inkscape:connector-curvature="0" />
    <path
       style="fill:none;stroke:#000000;stroke-width:2;stroke-linecap:butt;stroke-linejoin:miter;stroke-miterlimit:4;stroke-opacity:1;stroke-dasharray:none"
       d="m 275,203.07647 0,360"
       id="path3851-2"
       inkscape:connector-curvature="0" />
    <path
       style="fill:none;stroke:#000000;stroke-width:2;stroke-linecap:butt;stroke-linejoin:miter;stroke-opacity:1;stroke-miterlimit:4;stroke-dasharray:none"
       d="m 140,202.36218 0,360"
       id="path3851"
       inkscape:connector-curvature="0" />
    <path
       style="fill:none;stroke:#000000;stroke-width:2;stroke-linecap:butt;stroke-linejoin:miter;stroke-miterlimit:4;stroke-opacity:1;stroke-dasharray:none"
       d="m 83.571429,247.36218 560.000001,0"
       id="path3789"
       inkscape:connector-curvature="0" />
    <path
       sodipodi:type="arc"
       style="fill:#ffffff;fill-opacity:1;stroke:#ff0000;stroke-width:4.80000019;stroke-miterlimit:4;stroke-opacity:1;stroke-dasharray:none"
       id="path2987"
       sodipodi:cx="160"
       sodipodi:cy="232.36218"
       sodipodi:rx="40"
       sodipodi:ry="40"
       d="m 200,232.36218 a 40,40 0 1 1 -80,0 40,40 0 1 1 80,0 z"
       transform="matrix(0.625,0,0,0.625,40,102.13582)" />
    <path
       sodipodi:type="arc"
       style="fill:#a9a9a8;fill-opacity:1;stroke:#ff0000;stroke-width:4.80000019000000044;stroke-miterlimit:4;stroke-opacity:1;stroke-dasharray:none"
       id="path2987-5"
       sodipodi:cx="160"
       sodipodi:cy="232.36218"
       sodipodi:rx="40"
       sodipodi:ry="40"
       d="m 200,232.36218 a 40,40 0 1 1 -80,0 40,40 0 1 1 80,0 z"
       transform="matrix(0.625,0,0,0.625,175,102.13582)" />
    <path
       sodipodi:type="arc"
       style="fill:#ffffff;fill-opacity:1;stroke:#ff0000;stroke-width:4.80000019;stroke-miterlimit:4;stroke-opacity:1;stroke-dasharray:none"
       id="path2987-7"
       sodipodi:cx="160"
       sodipodi:cy="232.36218"
       sodipodi:rx="40"
       sodipodi:ry="40"
       d="m 200,232.36218 a 40,40 0 1 1 -80,0 40,40 0 1 1 80,0 z"
       transform="matrix(0.625,0,0,0.625,325,102.13582)" />
    <path
       sodipodi:type="arc"
       style="fill:#ffffff;fill-opacity:1;stroke:#ff0000;stroke-width:4.80000019;stroke-miterlimit:4;stroke-opacity:1;stroke-dasharray:none"
       id="path2987-8"
       sodipodi:cx="160"
       sodipodi:cy="232.36218"
       sodipodi:rx="40"
       sodipodi:ry="40"
       d="m 200,232.36218 a 40,40 0 1 1 -80,0 40,40 0 1 1 80,0 z"
       transform="matrix(0.625,0,0,0.625,485,102.13582)" />
    <path
       style="fill:none;stroke:#000000;stroke-width:2;stroke-linecap:butt;stroke-linejoin:miter;stroke-miterlimit:4;stroke-opacity:1;stroke-dasharray:none"
       d="m 83.57143,337.36218 560,0"
       id="path3789-7"
       inkscape:connector-curvature="0" />
    <path
       sodipodi:type="arc"
       style="fill:#b2b2b0;fill-opacity:1;stroke:#ff0000;stroke-width:4.80000019000000044;stroke-miterlimit:4;stroke-opacity:1;stroke-dasharray:none"
       id="path2987-4"
       sodipodi:cx="160"
       sodipodi:cy="232.36218"
       sodipodi:rx="40"
       sodipodi:ry="40"
       d="m 200,232.36218 a 40,40 0 1 1 -80,0 40,40 0 1 1 80,0 z"
       transform="matrix(0.625,0,0,0.625,40,192.13582)" />
    <path
       sodipodi:type="arc"
       style="fill:#0000ff;fill-opacity:1;stroke:#0000ff;stroke-width:4.80000019000000044;stroke-miterlimit:4;stroke-opacity:1;stroke-dasharray:none"
       id="path2987-5-4"
       sodipodi:cx="160"
       sodipodi:cy="232.36218"
       sodipodi:rx="40"
       sodipodi:ry="40"
       d="m 200,232.36218 a 40,40 0 1 1 -80,0 40,40 0 1 1 80,0 z"
       transform="matrix(0.625,0,0,0.625,175,192.13582)" />
    <path
       sodipodi:type="arc"
       style="fill:#b1aeae;fill-opacity:1;stroke:#ff0000;stroke-width:4.80000019000000044;stroke-miterlimit:4;stroke-opacity:1;stroke-dasharray:none"
       id="path2987-7-1"
       sodipodi:cx="160"
       sodipodi:cy="232.36218"
       sodipodi:rx="40"
       sodipodi:ry="40"
       d="m 200,232.36218 a 40,40 0 1 1 -80,0 40,40 0 1 1 80,0 z"
       transform="matrix(0.625,0,0,0.625,325,192.13582)" />
    <path
       sodipodi:type="arc"
       style="fill:#ffffff;fill-opacity:1;stroke:#ff0000;stroke-width:4.80000019;stroke-miterlimit:4;stroke-opacity:1;stroke-dasharray:none"
       id="path2987-8-3"
       sodipodi:cx="160"
       sodipodi:cy="232.36218"
       sodipodi:rx="40"
       sodipodi:ry="40"
       d="m 200,232.36218 a 40,40 0 1 1 -80,0 40,40 0 1 1 80,0 z"
       transform="matrix(0.625,0,0,0.625,485,192.13582)" />
    <path
       style="fill:none;stroke:#000000;stroke-width:2;stroke-linecap:butt;stroke-linejoin:miter;stroke-miterlimit:4;stroke-opacity:1;stroke-dasharray:none"
       d="m 83.57143,427.36218 560,0"
       id="path3789-1"
       inkscape:connector-curvature="0" />
    <path
       sodipodi:type="arc"
       style="fill:#ffffff;fill-opacity:1;stroke:#ff0000;stroke-width:4.80000019;stroke-miterlimit:4;stroke-opacity:1;stroke-dasharray:none"
       id="path2987-42"
       sodipodi:cx="160"
       sodipodi:cy="232.36218"
       sodipodi:rx="40"
       sodipodi:ry="40"
       d="m 200,232.36218 a 40,40 0 1 1 -80,0 40,40 0 1 1 80,0 z"
       transform="matrix(0.625,0,0,0.625,40,282.13582)" />
    <path
       sodipodi:type="arc"
       style="fill:#a9adac;fill-opacity:1;stroke:#ff0000;stroke-width:4.80000019000000044;stroke-miterlimit:4;stroke-opacity:1;stroke-dasharray:none"
       id="path2987-5-5"
       sodipodi:cx="160"
       sodipodi:cy="232.36218"
       sodipodi:rx="40"
       sodipodi:ry="40"
       d="m 200,232.36218 a 40,40 0 1 1 -80,0 40,40 0 1 1 80,0 z"
       transform="matrix(0.625,0,0,0.625,175,282.13582)" />
    <path
       sodipodi:type="arc"
       style="fill:#ffffff;fill-opacity:1;stroke:#ff0000;stroke-width:4.80000019;stroke-miterlimit:4;stroke-opacity:1;stroke-dasharray:none"
       id="path2987-7-10"
       sodipodi:cx="160"
       sodipodi:cy="232.36218"
       sodipodi:rx="40"
       sodipodi:ry="40"
       d="m 200,232.36218 a 40,40 0 1 1 -80,0 40,40 0 1 1 80,0 z"
       transform="matrix(0.625,0,0,0.625,325,282.13582)" />
    <path
       sodipodi:type="arc"
       style="fill:#ffffff;fill-opacity:1;stroke:#ff0000;stroke-width:4.80000019;stroke-miterlimit:4;stroke-opacity:1;stroke-dasharray:none"
       id="path2987-8-0"
       sodipodi:cx="160"
       sodipodi:cy="232.36218"
       sodipodi:rx="40"
       sodipodi:ry="40"
       d="m 200,232.36218 a 40,40 0 1 1 -80,0 40,40 0 1 1 80,0 z"
       transform="matrix(0.625,0,0,0.625,485,282.13582)" />
    <path
       style="fill:none;stroke:#000000;stroke-width:2;stroke-linecap:butt;stroke-linejoin:miter;stroke-miterlimit:4;stroke-opacity:1;stroke-dasharray:none"
       d="m 83.57143,517.36218 560,0"
       id="path3789-79"
       inkscape:connector-curvature="0" />
    <path
       sodipodi:type="arc"
       style="fill:#ffffff;fill-opacity:1;stroke:#ff0000;stroke-width:4.80000019;stroke-miterlimit:4;stroke-opacity:1;stroke-dasharray:none"
       id="path2987-424"
       sodipodi:cx="160"
       sodipodi:cy="232.36218"
       sodipodi:rx="40"
       sodipodi:ry="40"
       d="m 200,232.36218 a 40,40 0 1 1 -80,0 40,40 0 1 1 80,0 z"
       transform="matrix(0.625,0,0,0.625,40,372.13582)" />
    <path
       sodipodi:type="arc"
       style="fill:#ffffff;fill-opacity:1;stroke:#ff0000;stroke-width:4.80000019;stroke-miterlimit:4;stroke-opacity:1;stroke-dasharray:none"
       id="path2987-5-9"
       sodipodi:cx="160"
       sodipodi:cy="232.36218"
       sodipodi:rx="40"
       sodipodi:ry="40"
       d="m 200,232.36218 a 40,40 0 1 1 -80,0 40,40 0 1 1 80,0 z"
       transform="matrix(0.625,0,0,0.625,175,372.13582)" />
    <path
       sodipodi:type="arc"
       style="fill:#ffffff;fill-opacity:1;stroke:#ff0000;stroke-width:4.80000019;stroke-miterlimit:4;stroke-opacity:1;stroke-dasharray:none"
       id="path2987-7-0"
       sodipodi:cx="160"
       sodipodi:cy="232.36218"
       sodipodi:rx="40"
       sodipodi:ry="40"
       d="m 200,232.36218 a 40,40 0 1 1 -80,0 40,40 0 1 1 80,0 z"
       transform="matrix(0.625,0,0,0.625,325,372.13582)" />
    <path
       sodipodi:type="arc"
       style="fill:#ffffff;fill-opacity:1;stroke:#ff0000;stroke-width:4.80000019;stroke-miterlimit:4;stroke-opacity:1;stroke-dasharray:none"
       id="path2987-8-6"
       sodipodi:cx="160"
       sodipodi:cy="232.36218"
       sodipodi:rx="40"
       sodipodi:ry="40"
       d="m 200,232.36218 a 40,40 0 1 1 -80,0 40,40 0 1 1 80,0 z"
       transform="matrix(0.625,0,0,0.625,485,372.13582)" />
  </g>
</svg>
