<?xml version="1.0" encoding="UTF-8" standalone="no"?>
<!-- Created with Inkscape (http://www.inkscape.org/) -->

<svg
   xmlns:ns0="http://www.iki.fi/pav/software/textext/"
   xmlns:dc="http://purl.org/dc/elements/1.1/"
   xmlns:cc="http://creativecommons.org/ns#"
   xmlns:rdf="http://www.w3.org/1999/02/22-rdf-syntax-ns#"
   xmlns:svg="http://www.w3.org/2000/svg"
   xmlns="http://www.w3.org/2000/svg"
   xmlns:xlink="http://www.w3.org/1999/xlink"
   xmlns:sodipodi="http://sodipodi.sourceforge.net/DTD/sodipodi-0.dtd"
   xmlns:inkscape="http://www.inkscape.org/namespaces/inkscape"
   width="744.09448819"
   height="1052.3622047"
   id="svg2"
   version="1.1"
   inkscape:version="0.48.3.1 r9886"
   sodipodi:docname="vmf.svg">
  <sodipodi:namedview
     id="base"
     pagecolor="#ffffff"
     bordercolor="#666666"
     borderopacity="1.0"
     inkscape:pageopacity="0.0"
     inkscape:pageshadow="2"
     inkscape:zoom="4"
     inkscape:cx="422.29735"
     inkscape:cy="874.95612"
     inkscape:document-units="px"
     inkscape:current-layer="layer1"
     showgrid="true"
     inkscape:snap-global="false"
     inkscape:window-width="1680"
     inkscape:window-height="1000"
     inkscape:window-x="0"
     inkscape:window-y="0"
     inkscape:window-maximized="1">
    <inkscape:grid
       id="grid2985"
       type="xygrid" />
  </sodipodi:namedview>
  <defs
     id="defs4">
    <marker
       style="overflow:visible"
       id="Arrow1Mstart"
       refX="0.0"
       refY="0.0"
       orient="auto"
       inkscape:stockid="Arrow1Mstart">
      <path
         transform="scale(0.4) translate(10,0)"
         style="fill-rule:evenodd;stroke:#000000;stroke-width:1.0pt"
         d="M 0.0,0.0 L 5.0,-5.0 L -12.5,0.0 L 5.0,5.0 L 0.0,0.0 z "
         id="path3771" />
    </marker>
    <marker
       style="overflow:visible;"
       id="Arrow1Mend"
       refX="0.0"
       refY="0.0"
       orient="auto"
       inkscape:stockid="Arrow1Mend">
      <path
         transform="scale(0.4) rotate(180) translate(10,0)"
         style="fill-rule:evenodd;stroke:#000000;stroke-width:1.0pt;"
         d="M 0.0,0.0 L 5.0,-5.0 L -12.5,0.0 L 5.0,5.0 L 0.0,0.0 z "
         id="path3774" />
    </marker>
    <marker
       style="overflow:visible;"
       id="Arrow1Lend"
       refX="0.0"
       refY="0.0"
       orient="auto"
       inkscape:stockid="Arrow1Lend">
      <path
         transform="scale(0.8) rotate(180) translate(12.5,0)"
         style="fill-rule:evenodd;stroke:#000000;stroke-width:1.0pt;"
         d="M 0.0,0.0 L 5.0,-5.0 L -12.5,0.0 L 5.0,5.0 L 0.0,0.0 z "
         id="path3768" />
    </marker>
  </defs>
  <metadata
     id="metadata7">
    <rdf:RDF>
      <cc:Work
         rdf:about="">
        <dc:format>image/svg+xml</dc:format>
        <dc:type
           rdf:resource="http://purl.org/dc/dcmitype/StillImage" />
        <dc:title />
      </cc:Work>
    </rdf:RDF>
  </metadata>
  <g
     id="layer1"
     inkscape:groupmode="layer"
     inkscape:label="Layer 1">
    <path
       transform="matrix(0.35582409,0,0,0.38319517,268.9275,90.801392)"
       d="m 410,212.36218 a 140,130 0 1 1 -280,0 140,130 0 1 1 280,0 z"
       sodipodi:ry="130"
       sodipodi:rx="140"
       sodipodi:cy="212.36218"
       sodipodi:cx="270"
       id="path2987"
       style="fill:none;fill-rule:evenodd;stroke:#000000;stroke-width:2.70814749;stroke-linecap:butt;stroke-linejoin:miter;stroke-opacity:1;stroke-miterlimit:4;stroke-dasharray:none"
       sodipodi:type="arc" />
    <path
       sodipodi:nodetypes="ccc"
       inkscape:connector-curvature="0"
       id="path3759"
       d="m 412.625,172.61218 c -5,0 -47.625,-0.25 -47.625,-0.25 l 29.125,-37.5"
       style="fill:none;stroke:#000000;stroke-width:1px;stroke-linecap:butt;stroke-linejoin:miter;stroke-opacity:1;marker-start:url(#Arrow1Mstart);marker-end:url(#Arrow1Mend)" />
    <path
       sodipodi:nodetypes="cc"
       inkscape:connector-curvature="0"
       id="path4951"
       d="m 377.5,157.11218 c 6.75,2.625 9.40272,7.90847 7.5,15.25"
       style="fill:none;stroke:#000000;stroke-width:1px;stroke-linecap:butt;stroke-linejoin:miter;stroke-opacity:1" />
    <path
       transform="matrix(0.63580589,0,0,0.32815788,132.19688,87.209482)"
       d="m 416.125,138.73718 a 2,3.875 0 1 1 -4,0 2,3.875 0 1 1 4,0 z"
       sodipodi:ry="3.875"
       sodipodi:rx="2"
       sodipodi:cy="138.73718"
       sodipodi:cx="414.125"
       id="path4955"
       style="fill:#0000ff;stroke:#0000ff;stroke-width:1;stroke-miterlimit:4;stroke-opacity:1;stroke-dasharray:none;fill-opacity:1"
       sodipodi:type="arc" />
    <path
       inkscape:transform-center-y="3"
       inkscape:transform-center-x="-0.75"
       transform="matrix(0.63580589,0,0,0.32815788,151.82189,127.20948)"
       d="m 416.125,138.73718 a 2,3.875 0 1 1 -4,0 2,3.875 0 1 1 4,0 z"
       sodipodi:ry="3.875"
       sodipodi:rx="2"
       sodipodi:cy="138.73718"
       sodipodi:cx="414.125"
       id="path4955-4"
       style="fill:#0000ff;fill-opacity:1;stroke:#0000ff;stroke-width:1;stroke-miterlimit:4;stroke-opacity:1;stroke-dasharray:none"
       sodipodi:type="arc" />
    <g
       transform="translate(175.25,-4.25)"
       ns0:text="$y_1$"
       ns0:preamble=""
       id="g3092">
      <defs
         id="defs3094">
        <g
           id="g3096">
          <symbol
             style="overflow:visible"
             overflow="visible"
             id="textext-afc44378-0">
            <path
               inkscape:connector-curvature="0"
               style="stroke:none"
               d="m 4.84375,-3.796875 c 0.046875,-0.140625 0.046875,-0.15625 0.046875,-0.234375 0,-0.171875 -0.140625,-0.265625 -0.296875,-0.265625 -0.09375,0 -0.25,0.0625 -0.34375,0.203125 -0.015625,0.0625 -0.109375,0.359375 -0.140625,0.546875 -0.078125,0.25 -0.140625,0.53125 -0.203125,0.796875 l -0.453125,1.796875 c -0.03125,0.140625 -0.46875,0.84375 -1.125,0.84375 -0.5,0 -0.609375,-0.4375 -0.609375,-0.8125 C 1.71875,-1.375 1.890625,-2 2.21875,-2.875 2.375,-3.28125 2.421875,-3.390625 2.421875,-3.59375 c 0,-0.4375 -0.3125,-0.8125 -0.8125,-0.8125 -0.953125,0 -1.3125,1.453125 -1.3125,1.53125 0,0.109375 0.09375,0.109375 0.109375,0.109375 0.109375,0 0.109375,-0.03125 0.15625,-0.1875 0.28125,-0.9375 0.671875,-1.234375 1.015625,-1.234375 0.078125,0 0.25,0 0.25,0.3125 0,0.25 -0.109375,0.515625 -0.171875,0.703125 -0.40625,1.0625 -0.578125,1.625 -0.578125,2.09375 0,0.890625 0.625,1.1875 1.21875,1.1875 0.390625,0 0.71875,-0.171875 1,-0.453125 -0.125,0.515625 -0.25,1.015625 -0.640625,1.546875 -0.265625,0.328125 -0.640625,0.625 -1.09375,0.625 -0.140625,0 -0.59375,-0.03125 -0.765625,-0.421875 0.15625,0 0.296875,0 0.421875,-0.125 C 1.328125,1.203125 1.421875,1.0625 1.421875,0.875 1.421875,0.5625 1.15625,0.53125 1.0625,0.53125 0.828125,0.53125 0.5,0.6875 0.5,1.171875 c 0,0.5 0.4375,0.875 1.0625,0.875 1.015625,0 2.046875,-0.90625 2.328125,-2.03125 z m 0,0"
               id="path3099" />
          </symbol>
          <symbol
             style="overflow:visible"
             overflow="visible"
             id="textext-afc44378-1">
            <path
               inkscape:connector-curvature="0"
               style="stroke:none"
               d="m 2.328125,-4.4375 c 0,-0.1875 0,-0.1875 -0.203125,-0.1875 -0.453125,0.4375 -1.078125,0.4375 -1.359375,0.4375 l 0,0.25 c 0.15625,0 0.625,0 1,-0.1875 l 0,3.546875 c 0,0.234375 0,0.328125 -0.6875,0.328125 l -0.265625,0 0,0.25 c 0.125,0 0.984375,-0.03125 1.234375,-0.03125 0.21875,0 1.09375,0.03125 1.25,0.03125 l 0,-0.25 -0.265625,0 c -0.703125,0 -0.703125,-0.09375 -0.703125,-0.328125 z m 0,0"
               id="path3102" />
          </symbol>
        </g>
      </defs>
      <g
         id="textext-afc44378-2">
        <g
           style="fill:#000000;fill-opacity:1"
           id="g3105">
          <use
             height="1052.3622"
             width="744.09448"
             xlink:href="#textext-afc44378-0"
             x="223.43201"
             y="134.765"
             id="use3107" />
        </g>
        <g
           style="fill:#000000;fill-opacity:1"
           id="g3109">
          <use
             height="1052.3622"
             width="744.09448"
             xlink:href="#textext-afc44378-1"
             x="228.317"
             y="136.259"
             id="use3111" />
        </g>
      </g>
    </g>
    <g
       id="g3169"
       ns0:preamble=""
       ns0:text="$y_2$"
       transform="translate(194.5,38.25)">
      <defs
         id="defs3171">
        <g
           id="g3173">
          <symbol
             id="textext-3fd33656-0"
             overflow="visible"
             style="overflow:visible">
            <path
               id="path3176"
               d="m 4.84375,-3.796875 c 0.046875,-0.140625 0.046875,-0.15625 0.046875,-0.234375 0,-0.171875 -0.140625,-0.265625 -0.296875,-0.265625 -0.09375,0 -0.25,0.0625 -0.34375,0.203125 -0.015625,0.0625 -0.109375,0.359375 -0.140625,0.546875 -0.078125,0.25 -0.140625,0.53125 -0.203125,0.796875 l -0.453125,1.796875 c -0.03125,0.140625 -0.46875,0.84375 -1.125,0.84375 -0.5,0 -0.609375,-0.4375 -0.609375,-0.8125 C 1.71875,-1.375 1.890625,-2 2.21875,-2.875 2.375,-3.28125 2.421875,-3.390625 2.421875,-3.59375 c 0,-0.4375 -0.3125,-0.8125 -0.8125,-0.8125 -0.953125,0 -1.3125,1.453125 -1.3125,1.53125 0,0.109375 0.09375,0.109375 0.109375,0.109375 0.109375,0 0.109375,-0.03125 0.15625,-0.1875 0.28125,-0.9375 0.671875,-1.234375 1.015625,-1.234375 0.078125,0 0.25,0 0.25,0.3125 0,0.25 -0.109375,0.515625 -0.171875,0.703125 -0.40625,1.0625 -0.578125,1.625 -0.578125,2.09375 0,0.890625 0.625,1.1875 1.21875,1.1875 0.390625,0 0.71875,-0.171875 1,-0.453125 -0.125,0.515625 -0.25,1.015625 -0.640625,1.546875 -0.265625,0.328125 -0.640625,0.625 -1.09375,0.625 -0.140625,0 -0.59375,-0.03125 -0.765625,-0.421875 0.15625,0 0.296875,0 0.421875,-0.125 C 1.328125,1.203125 1.421875,1.0625 1.421875,0.875 1.421875,0.5625 1.15625,0.53125 1.0625,0.53125 0.828125,0.53125 0.5,0.6875 0.5,1.171875 c 0,0.5 0.4375,0.875 1.0625,0.875 1.015625,0 2.046875,-0.90625 2.328125,-2.03125 z m 0,0"
               style="stroke:none"
               inkscape:connector-curvature="0" />
          </symbol>
          <symbol
             id="textext-3fd33656-1"
             overflow="visible"
             style="overflow:visible">
            <path
               id="path3179"
               d="m 3.515625,-1.265625 -0.234375,0 c -0.015625,0.15625 -0.09375,0.5625 -0.1875,0.625 -0.046875,0.046875 -0.578125,0.046875 -0.6875,0.046875 l -1.28125,0 c 0.734375,-0.640625 0.984375,-0.84375 1.390625,-1.171875 0.515625,-0.40625 1,-0.84375 1,-1.5 0,-0.84375 -0.734375,-1.359375 -1.625,-1.359375 -0.859375,0 -1.453125,0.609375 -1.453125,1.25 0,0.34375 0.296875,0.390625 0.375,0.390625 0.15625,0 0.359375,-0.125 0.359375,-0.375 0,-0.125 -0.046875,-0.375 -0.40625,-0.375 C 0.984375,-4.21875 1.453125,-4.375 1.78125,-4.375 c 0.703125,0 1.0625,0.546875 1.0625,1.109375 0,0.609375 -0.4375,1.078125 -0.65625,1.328125 L 0.515625,-0.265625 C 0.4375,-0.203125 0.4375,-0.1875 0.4375,0 l 2.875,0 z m 0,0"
               style="stroke:none"
               inkscape:connector-curvature="0" />
          </symbol>
        </g>
      </defs>
      <g
         id="textext-3fd33656-2">
        <g
           id="g3182"
           style="fill:#000000;fill-opacity:1">
          <use
             id="use3184"
             y="134.765"
             x="223.43201"
             xlink:href="#textext-3fd33656-0"
             width="744.09448"
             height="1052.3622" />
        </g>
        <g
           id="g3186"
           style="fill:#000000;fill-opacity:1">
          <use
             id="use3188"
             y="136.259"
             x="228.317"
             xlink:href="#textext-3fd33656-1"
             width="744.09448"
             height="1052.3622" />
        </g>
      </g>
    </g>
    <g
       id="g3506"
       transform="translate(103.25,54)"
       ns0:preamble=""
       ns0:text="$\\textrm{corr}(y_1, y_2) = y_1^T y_2$">
      <defs
         id="defs3508">
        <g
           id="g3510">
          <symbol
             id="textext-77362ee3-0"
             overflow="visible">
            <path
               id="path3513"
               d="M 1.171875 -2.171875 C 1.171875 -3.796875 1.984375 -4.21875 2.515625 -4.21875 C 2.609375 -4.21875 3.234375 -4.203125 3.578125 -3.84375 C 3.171875 -3.8125 3.109375 -3.515625 3.109375 -3.390625 C 3.109375 -3.125 3.296875 -2.9375 3.5625 -2.9375 C 3.828125 -2.9375 4.03125 -3.09375 4.03125 -3.40625 C 4.03125 -4.078125 3.265625 -4.46875 2.5 -4.46875 C 1.25 -4.46875 0.34375 -3.390625 0.34375 -2.15625 C 0.34375 -0.875 1.328125 0.109375 2.484375 0.109375 C 3.8125 0.109375 4.140625 -1.09375 4.140625 -1.1875 C 4.140625 -1.28125 4.03125 -1.28125 4 -1.28125 C 3.921875 -1.28125 3.890625 -1.25 3.875 -1.1875 C 3.59375 -0.265625 2.9375 -0.140625 2.578125 -0.140625 C 2.046875 -0.140625 1.171875 -0.5625 1.171875 -2.171875 Z M 1.171875 -2.171875 "
               style="stroke:none;" />
          </symbol>
          <symbol
             id="textext-77362ee3-1"
             overflow="visible">
            <path
               id="path3516"
               d="M 4.6875 -2.140625 C 4.6875 -3.40625 3.703125 -4.46875 2.5 -4.46875 C 1.25 -4.46875 0.28125 -3.375 0.28125 -2.140625 C 0.28125 -0.84375 1.3125 0.109375 2.484375 0.109375 C 3.6875 0.109375 4.6875 -0.875 4.6875 -2.140625 Z M 2.5 -0.140625 C 2.0625 -0.140625 1.625 -0.34375 1.359375 -0.8125 C 1.109375 -1.25 1.109375 -1.859375 1.109375 -2.21875 C 1.109375 -2.609375 1.109375 -3.140625 1.34375 -3.578125 C 1.609375 -4.03125 2.078125 -4.25 2.484375 -4.25 C 2.921875 -4.25 3.34375 -4.03125 3.609375 -3.59375 C 3.875 -3.171875 3.875 -2.59375 3.875 -2.21875 C 3.875 -1.859375 3.875 -1.3125 3.65625 -0.875 C 3.421875 -0.421875 2.984375 -0.140625 2.5 -0.140625 Z M 2.5 -0.140625 "
               style="stroke:none;" />
          </symbol>
          <symbol
             id="textext-77362ee3-2"
             overflow="visible">
            <path
               id="path3519"
               d="M 1.671875 -3.3125 L 1.671875 -4.40625 L 0.28125 -4.296875 L 0.28125 -3.984375 C 0.984375 -3.984375 1.0625 -3.921875 1.0625 -3.421875 L 1.0625 -0.75 C 1.0625 -0.3125 0.953125 -0.3125 0.28125 -0.3125 L 0.28125 0 C 0.671875 -0.015625 1.140625 -0.03125 1.421875 -0.03125 C 1.8125 -0.03125 2.28125 -0.03125 2.6875 0 L 2.6875 -0.3125 L 2.46875 -0.3125 C 1.734375 -0.3125 1.71875 -0.421875 1.71875 -0.78125 L 1.71875 -2.3125 C 1.71875 -3.296875 2.140625 -4.1875 2.890625 -4.1875 C 2.953125 -4.1875 2.984375 -4.1875 3 -4.171875 C 2.96875 -4.171875 2.765625 -4.046875 2.765625 -3.78125 C 2.765625 -3.515625 2.984375 -3.359375 3.203125 -3.359375 C 3.375 -3.359375 3.625 -3.484375 3.625 -3.796875 C 3.625 -4.109375 3.3125 -4.40625 2.890625 -4.40625 C 2.15625 -4.40625 1.796875 -3.734375 1.671875 -3.3125 Z M 1.671875 -3.3125 "
               style="stroke:none;" />
          </symbol>
          <symbol
             id="textext-77362ee3-3"
             overflow="visible">
            <path
               id="path3522"
               d="M 3.296875 2.390625 C 3.296875 2.359375 3.296875 2.34375 3.125 2.171875 C 1.890625 0.921875 1.5625 -0.96875 1.5625 -2.5 C 1.5625 -4.234375 1.9375 -5.96875 3.171875 -7.203125 C 3.296875 -7.328125 3.296875 -7.34375 3.296875 -7.375 C 3.296875 -7.453125 3.265625 -7.484375 3.203125 -7.484375 C 3.09375 -7.484375 2.203125 -6.796875 1.609375 -5.53125 C 1.109375 -4.4375 0.984375 -3.328125 0.984375 -2.5 C 0.984375 -1.71875 1.09375 -0.515625 1.640625 0.625 C 2.25 1.84375 3.09375 2.5 3.203125 2.5 C 3.265625 2.5 3.296875 2.46875 3.296875 2.390625 Z M 3.296875 2.390625 "
               style="stroke:none;" />
          </symbol>
          <symbol
             id="textext-77362ee3-4"
             overflow="visible">
            <path
               id="path3525"
               d="M 2.875 -2.5 C 2.875 -3.265625 2.765625 -4.46875 2.21875 -5.609375 C 1.625 -6.828125 0.765625 -7.484375 0.671875 -7.484375 C 0.609375 -7.484375 0.5625 -7.4375 0.5625 -7.375 C 0.5625 -7.34375 0.5625 -7.328125 0.75 -7.140625 C 1.734375 -6.15625 2.296875 -4.578125 2.296875 -2.5 C 2.296875 -0.78125 1.9375 0.96875 0.703125 2.21875 C 0.5625 2.34375 0.5625 2.359375 0.5625 2.390625 C 0.5625 2.453125 0.609375 2.5 0.671875 2.5 C 0.765625 2.5 1.671875 1.8125 2.25 0.546875 C 2.765625 -0.546875 2.875 -1.65625 2.875 -2.5 Z M 2.875 -2.5 "
               style="stroke:none;" />
          </symbol>
          <symbol
             id="textext-77362ee3-5"
             overflow="visible">
            <path
               id="path3528"
               d="M 6.84375 -3.265625 C 7 -3.265625 7.1875 -3.265625 7.1875 -3.453125 C 7.1875 -3.65625 7 -3.65625 6.859375 -3.65625 L 0.890625 -3.65625 C 0.75 -3.65625 0.5625 -3.65625 0.5625 -3.453125 C 0.5625 -3.265625 0.75 -3.265625 0.890625 -3.265625 Z M 6.859375 -1.328125 C 7 -1.328125 7.1875 -1.328125 7.1875 -1.53125 C 7.1875 -1.71875 7 -1.71875 6.84375 -1.71875 L 0.890625 -1.71875 C 0.75 -1.71875 0.5625 -1.71875 0.5625 -1.53125 C 0.5625 -1.328125 0.75 -1.328125 0.890625 -1.328125 Z M 6.859375 -1.328125 "
               style="stroke:none;" />
          </symbol>
          <symbol
             id="textext-77362ee3-6"
             overflow="visible">
            <path
               id="path3531"
               d="M 4.84375 -3.796875 C 4.890625 -3.9375 4.890625 -3.953125 4.890625 -4.03125 C 4.890625 -4.203125 4.75 -4.296875 4.59375 -4.296875 C 4.5 -4.296875 4.34375 -4.234375 4.25 -4.09375 C 4.234375 -4.03125 4.140625 -3.734375 4.109375 -3.546875 C 4.03125 -3.296875 3.96875 -3.015625 3.90625 -2.75 L 3.453125 -0.953125 C 3.421875 -0.8125 2.984375 -0.109375 2.328125 -0.109375 C 1.828125 -0.109375 1.71875 -0.546875 1.71875 -0.921875 C 1.71875 -1.375 1.890625 -2 2.21875 -2.875 C 2.375 -3.28125 2.421875 -3.390625 2.421875 -3.59375 C 2.421875 -4.03125 2.109375 -4.40625 1.609375 -4.40625 C 0.65625 -4.40625 0.296875 -2.953125 0.296875 -2.875 C 0.296875 -2.765625 0.390625 -2.765625 0.40625 -2.765625 C 0.515625 -2.765625 0.515625 -2.796875 0.5625 -2.953125 C 0.84375 -3.890625 1.234375 -4.1875 1.578125 -4.1875 C 1.65625 -4.1875 1.828125 -4.1875 1.828125 -3.875 C 1.828125 -3.625 1.71875 -3.359375 1.65625 -3.171875 C 1.25 -2.109375 1.078125 -1.546875 1.078125 -1.078125 C 1.078125 -0.1875 1.703125 0.109375 2.296875 0.109375 C 2.6875 0.109375 3.015625 -0.0625 3.296875 -0.34375 C 3.171875 0.171875 3.046875 0.671875 2.65625 1.203125 C 2.390625 1.53125 2.015625 1.828125 1.5625 1.828125 C 1.421875 1.828125 0.96875 1.796875 0.796875 1.40625 C 0.953125 1.40625 1.09375 1.40625 1.21875 1.28125 C 1.328125 1.203125 1.421875 1.0625 1.421875 0.875 C 1.421875 0.5625 1.15625 0.53125 1.0625 0.53125 C 0.828125 0.53125 0.5 0.6875 0.5 1.171875 C 0.5 1.671875 0.9375 2.046875 1.5625 2.046875 C 2.578125 2.046875 3.609375 1.140625 3.890625 0.015625 Z M 4.84375 -3.796875 "
               style="stroke:none;" />
          </symbol>
          <symbol
             id="textext-77362ee3-7"
             overflow="visible">
            <path
               id="path3534"
               d="M 2.03125 -0.015625 C 2.03125 -0.671875 1.78125 -1.0625 1.390625 -1.0625 C 1.0625 -1.0625 0.859375 -0.8125 0.859375 -0.53125 C 0.859375 -0.265625 1.0625 0 1.390625 0 C 1.5 0 1.640625 -0.046875 1.734375 -0.125 C 1.765625 -0.15625 1.78125 -0.15625 1.78125 -0.15625 C 1.796875 -0.15625 1.796875 -0.15625 1.796875 -0.015625 C 1.796875 0.734375 1.453125 1.328125 1.125 1.65625 C 1.015625 1.765625 1.015625 1.78125 1.015625 1.8125 C 1.015625 1.890625 1.0625 1.921875 1.109375 1.921875 C 1.21875 1.921875 2.03125 1.15625 2.03125 -0.015625 Z M 2.03125 -0.015625 "
               style="stroke:none;" />
          </symbol>
          <symbol
             id="textext-77362ee3-8"
             overflow="visible">
            <path
               id="path3537"
               d="M 2.328125 -4.4375 C 2.328125 -4.625 2.328125 -4.625 2.125 -4.625 C 1.671875 -4.1875 1.046875 -4.1875 0.765625 -4.1875 L 0.765625 -3.9375 C 0.921875 -3.9375 1.390625 -3.9375 1.765625 -4.125 L 1.765625 -0.578125 C 1.765625 -0.34375 1.765625 -0.25 1.078125 -0.25 L 0.8125 -0.25 L 0.8125 0 C 0.9375 0 1.796875 -0.03125 2.046875 -0.03125 C 2.265625 -0.03125 3.140625 0 3.296875 0 L 3.296875 -0.25 L 3.03125 -0.25 C 2.328125 -0.25 2.328125 -0.34375 2.328125 -0.578125 Z M 2.328125 -4.4375 "
               style="stroke:none;" />
          </symbol>
          <symbol
             id="textext-77362ee3-9"
             overflow="visible">
            <path
               id="path3540"
               d="M 3.515625 -1.265625 L 3.28125 -1.265625 C 3.265625 -1.109375 3.1875 -0.703125 3.09375 -0.640625 C 3.046875 -0.59375 2.515625 -0.59375 2.40625 -0.59375 L 1.125 -0.59375 C 1.859375 -1.234375 2.109375 -1.4375 2.515625 -1.765625 C 3.03125 -2.171875 3.515625 -2.609375 3.515625 -3.265625 C 3.515625 -4.109375 2.78125 -4.625 1.890625 -4.625 C 1.03125 -4.625 0.4375 -4.015625 0.4375 -3.375 C 0.4375 -3.03125 0.734375 -2.984375 0.8125 -2.984375 C 0.96875 -2.984375 1.171875 -3.109375 1.171875 -3.359375 C 1.171875 -3.484375 1.125 -3.734375 0.765625 -3.734375 C 0.984375 -4.21875 1.453125 -4.375 1.78125 -4.375 C 2.484375 -4.375 2.84375 -3.828125 2.84375 -3.265625 C 2.84375 -2.65625 2.40625 -2.1875 2.1875 -1.9375 L 0.515625 -0.265625 C 0.4375 -0.203125 0.4375 -0.1875 0.4375 0 L 3.3125 0 Z M 3.515625 -1.265625 "
               style="stroke:none;" />
          </symbol>
          <symbol
             id="textext-77362ee3-10"
             overflow="visible">
            <path
               id="path3543"
               d="M 3.390625 -4.21875 C 3.4375 -4.421875 3.453125 -4.4375 3.609375 -4.453125 C 3.640625 -4.453125 3.875 -4.453125 4.015625 -4.453125 C 4.453125 -4.453125 4.625 -4.453125 4.796875 -4.40625 C 5.109375 -4.3125 5.125 -4.109375 5.125 -3.859375 C 5.125 -3.75 5.125 -3.65625 5.078125 -3.296875 L 5.0625 -3.21875 C 5.0625 -3.140625 5.109375 -3.109375 5.1875 -3.109375 C 5.296875 -3.109375 5.296875 -3.171875 5.3125 -3.28125 L 5.5 -4.609375 C 5.5 -4.703125 5.421875 -4.703125 5.296875 -4.703125 L 1.015625 -4.703125 C 0.84375 -4.703125 0.828125 -4.703125 0.78125 -4.5625 L 0.328125 -3.328125 C 0.328125 -3.296875 0.296875 -3.234375 0.296875 -3.203125 C 0.296875 -3.171875 0.3125 -3.109375 0.421875 -3.109375 C 0.515625 -3.109375 0.515625 -3.140625 0.5625 -3.28125 C 0.96875 -4.390625 1.203125 -4.453125 2.265625 -4.453125 L 2.546875 -4.453125 C 2.765625 -4.453125 2.765625 -4.453125 2.765625 -4.390625 C 2.765625 -4.390625 2.765625 -4.34375 2.734375 -4.25 L 1.8125 -0.578125 C 1.75 -0.328125 1.734375 -0.25 1 -0.25 C 0.75 -0.25 0.6875 -0.25 0.6875 -0.09375 C 0.6875 -0.078125 0.703125 0 0.8125 0 C 1 0 1.21875 -0.015625 1.40625 -0.015625 C 1.609375 -0.015625 1.8125 -0.03125 2 -0.03125 C 2.203125 -0.03125 2.4375 -0.03125 2.640625 -0.015625 C 2.828125 -0.015625 3.03125 0 3.21875 0 C 3.28125 0 3.375 0 3.375 -0.15625 C 3.375 -0.25 3.3125 -0.25 3.09375 -0.25 C 2.96875 -0.25 2.828125 -0.265625 2.6875 -0.265625 C 2.453125 -0.28125 2.4375 -0.3125 2.4375 -0.390625 C 2.4375 -0.453125 2.4375 -0.453125 2.46875 -0.5625 Z M 3.390625 -4.21875 "
               style="stroke:none;" />
          </symbol>
        </g>
      </defs>
      <g
         id="textext-77362ee3-11">
        <g
           id="g3546"
           style="fill:rgb(0%,0%,0%);fill-opacity:1;">
          <use
             id="use3548"
             y="134.765"
             x="223.432"
             xlink:href="#textext-77362ee3-0" />
          <use
             id="use3550"
             y="134.765"
             x="227.859379"
             xlink:href="#textext-77362ee3-1" />
          <use
             id="use3552"
             y="134.765"
             x="232.840679"
             xlink:href="#textext-77362ee3-2" />
          <use
             id="use3554"
             y="134.765"
             x="236.74303"
             xlink:href="#textext-77362ee3-2" />
          <use
             id="use3556"
             y="134.765"
             x="240.64538"
             xlink:href="#textext-77362ee3-3" />
        </g>
        <g
           id="g3558"
           style="fill:rgb(0%,0%,0%);fill-opacity:1;">
          <use
             id="use3560"
             y="134.765"
             x="244.52"
             xlink:href="#textext-77362ee3-6" />
        </g>
        <g
           id="g3562"
           style="fill:rgb(0%,0%,0%);fill-opacity:1;">
          <use
             id="use3564"
             y="136.259"
             x="249.404"
             xlink:href="#textext-77362ee3-8" />
        </g>
        <g
           id="g3566"
           style="fill:rgb(0%,0%,0%);fill-opacity:1;">
          <use
             id="use3568"
             y="134.765"
             x="253.874"
             xlink:href="#textext-77362ee3-7" />
        </g>
        <g
           id="g3570"
           style="fill:rgb(0%,0%,0%);fill-opacity:1;">
          <use
             id="use3572"
             y="134.765"
             x="258.305364"
             xlink:href="#textext-77362ee3-6" />
        </g>
        <g
           id="g3574"
           style="fill:rgb(0%,0%,0%);fill-opacity:1;">
          <use
             id="use3576"
             y="136.259"
             x="263.186"
             xlink:href="#textext-77362ee3-9" />
        </g>
        <g
           id="g3578"
           style="fill:rgb(0%,0%,0%);fill-opacity:1;">
          <use
             id="use3580"
             y="134.765"
             x="267.655"
             xlink:href="#textext-77362ee3-4" />
        </g>
        <g
           id="g3582"
           style="fill:rgb(0%,0%,0%);fill-opacity:1;">
          <use
             id="use3584"
             y="134.765"
             x="274.299058"
             xlink:href="#textext-77362ee3-5" />
        </g>
        <g
           id="g3586"
           style="fill:rgb(0%,0%,0%);fill-opacity:1;">
          <use
             id="use3588"
             y="134.765"
             x="284.813"
             xlink:href="#textext-77362ee3-6" />
        </g>
        <g
           id="g3590"
           style="fill:rgb(0%,0%,0%);fill-opacity:1;">
          <use
             id="use3592"
             y="131.149"
             x="290.055"
             xlink:href="#textext-77362ee3-10" />
        </g>
        <g
           id="g3594"
           style="fill:rgb(0%,0%,0%);fill-opacity:1;">
          <use
             id="use3596"
             y="137.237"
             x="289.698"
             xlink:href="#textext-77362ee3-8" />
        </g>
        <g
           id="g3598"
           style="fill:rgb(0%,0%,0%);fill-opacity:1;">
          <use
             id="use3600"
             y="134.765"
             x="296.331"
             xlink:href="#textext-77362ee3-6" />
        </g>
        <g
           id="g3602"
           style="fill:rgb(0%,0%,0%);fill-opacity:1;">
          <use
             id="use3604"
             y="136.259"
             x="301.216"
             xlink:href="#textext-77362ee3-9" />
        </g>
      </g>
    </g>
  </g>
</svg>
