<?xml version="1.0" encoding="UTF-8" standalone="no"?>
<!-- Created with Inkscape (http://www.inkscape.org/) -->

<svg
   xmlns:dc="http://purl.org/dc/elements/1.1/"
   xmlns:cc="http://creativecommons.org/ns#"
   xmlns:rdf="http://www.w3.org/1999/02/22-rdf-syntax-ns#"
   xmlns:svg="http://www.w3.org/2000/svg"
   xmlns="http://www.w3.org/2000/svg"
   xmlns:sodipodi="http://sodipodi.sourceforge.net/DTD/sodipodi-0.dtd"
   xmlns:inkscape="http://www.inkscape.org/namespaces/inkscape"
   width="744.09448819"
   height="1052.3622047"
   id="svg2"
   version="1.1"
   inkscape:version="0.48.1 r9760"
   sodipodi:docname="hier3a.svg"
   inkscape:export-filename="/home/sci/weiliu/projects/proposal/sfig/hier3a.png"
   inkscape:export-xdpi="400"
   inkscape:export-ydpi="400">
  <defs
     id="defs4">
    <marker
       inkscape:stockid="Arrow2Lstart"
       orient="auto"
       refY="0.0"
       refX="0.0"
       id="Arrow2Lstart"
       style="overflow:visible">
      <path
         id="path3882"
         style="font-size:12.0;fill-rule:evenodd;stroke-width:0.62500000;stroke-linejoin:round"
         d="M 8.7185878,4.0337352 L -2.2072895,0.016013256 L 8.7185884,-4.0017078 C 6.9730900,-1.6296469 6.9831476,1.6157441 8.7185878,4.0337352 z "
         transform="scale(1.1) translate(1,0)" />
    </marker>
    <marker
       inkscape:stockid="Arrow1Lend"
       orient="auto"
       refY="0.0"
       refX="0.0"
       id="Arrow1Lend"
       style="overflow:visible;">
      <path
         id="path3867"
         d="M 0.0,0.0 L 5.0,-5.0 L -12.5,0.0 L 5.0,5.0 L 0.0,0.0 z "
         style="fill-rule:evenodd;stroke:#000000;stroke-width:1.0pt;marker-start:none;"
         transform="scale(0.8) rotate(180) translate(12.5,0)" />
    </marker>
    <marker
       inkscape:stockid="Arrow2Lend"
       orient="auto"
       refY="0.0"
       refX="0.0"
       id="Arrow2Lend"
       style="overflow:visible;">
      <path
         id="path3885"
         style="font-size:12.0;fill-rule:evenodd;stroke-width:0.62500000;stroke-linejoin:round;"
         d="M 8.7185878,4.0337352 L -2.2072895,0.016013256 L 8.7185884,-4.0017078 C 6.9730900,-1.6296469 6.9831476,1.6157441 8.7185878,4.0337352 z "
         transform="scale(1.1) rotate(180) translate(1,0)" />
    </marker>
    <marker
       inkscape:stockid="Arrow2Mend"
       orient="auto"
       refY="0.0"
       refX="0.0"
       id="Arrow2Mend"
       style="overflow:visible;">
      <path
         id="path3891"
         style="font-size:12.0;fill-rule:evenodd;stroke-width:0.62500000;stroke-linejoin:round;"
         d="M 8.7185878,4.0337352 L -2.2072895,0.016013256 L 8.7185884,-4.0017078 C 6.9730900,-1.6296469 6.9831476,1.6157441 8.7185878,4.0337352 z "
         transform="scale(0.6) rotate(180) translate(0,0)" />
    </marker>
    <marker
       inkscape:stockid="Arrow2Lend"
       orient="auto"
       refY="0"
       refX="0"
       id="Arrow2Lend-6"
       style="overflow:visible">
      <path
         inkscape:connector-curvature="0"
         id="path3885-8"
         style="font-size:12px;fill-rule:evenodd;stroke-width:0.625;stroke-linejoin:round"
         d="M 8.7185878,4.0337352 -2.2072895,0.01601326 8.7185884,-4.0017078 c -1.7454984,2.3720609 -1.7354408,5.6174519 -6e-7,8.035443 z"
         transform="matrix(-1.1,0,0,-1.1,-1.1,0)" />
    </marker>
  </defs>
  <sodipodi:namedview
     id="base"
     pagecolor="#ffffff"
     bordercolor="#666666"
     borderopacity="1.0"
     inkscape:pageopacity="0.0"
     inkscape:pageshadow="2"
     inkscape:zoom="1.4142136"
     inkscape:cx="355.09259"
     inkscape:cy="683.62755"
     inkscape:document-units="px"
     inkscape:current-layer="layer1"
     showgrid="true"
     inkscape:snap-global="true"
     showguides="true"
     inkscape:window-width="1680"
     inkscape:window-height="1027"
     inkscape:window-x="0"
     inkscape:window-y="0"
     inkscape:window-maximized="1"
     inkscape:guide-bbox="true">
    <inkscape:grid
       type="xygrid"
       id="grid3787" />
  </sodipodi:namedview>
  <metadata
     id="metadata7">
    <rdf:RDF>
      <cc:Work
         rdf:about="">
        <dc:format>image/svg+xml</dc:format>
        <dc:type
           rdf:resource="http://purl.org/dc/dcmitype/StillImage" />
        <dc:title></dc:title>
      </cc:Work>
    </rdf:RDF>
  </metadata>
  <g
     inkscape:label="Layer 1"
     inkscape:groupmode="layer"
     id="layer1">
    <text
       xml:space="preserve"
       style="font-size:20px;font-style:normal;font-weight:normal;line-height:125%;letter-spacing:0px;word-spacing:0px;fill:#000000;fill-opacity:1;stroke:none;font-family:Bitstream Vera Sans"
       x="83.571426"
       y="333.79074"
       id="text3755"
       sodipodi:linespacing="125%"><tspan
         sodipodi:role="line"
         id="tspan3757"
         x="83.571426"
         y="333.79074" /></text>
    <path
       style="fill:none;stroke:#000000;stroke-width:1.58008754px;stroke-linecap:butt;stroke-linejoin:miter;stroke-opacity:1"
       d="m 507.83423,304.67739 c -1.97511,0.98755 -58.97114,115.68498 -58.97114,115.68498"
       id="path4211-7-5"
       inkscape:connector-curvature="0"
       sodipodi:nodetypes="cc" />
    <path
       style="fill:none;stroke:#000000;stroke-width:1.58008754px;stroke-linecap:butt;stroke-linejoin:miter;stroke-opacity:1"
       d="m 428.12446,303.68983 c -1.97511,0.98756 -58.97115,115.68499 -58.97115,115.68499"
       id="path4211-4-2"
       inkscape:connector-curvature="0"
       sodipodi:nodetypes="cc" />
    <path
       style="fill:none;stroke:#000000;stroke-width:1.58008754px;stroke-linecap:butt;stroke-linejoin:miter;stroke-opacity:1"
       d="m 467.62665,303.68983 c -1.97511,0.98756 -58.97115,115.68499 -58.97115,115.68499"
       id="path4211-2"
       inkscape:connector-curvature="0"
       sodipodi:nodetypes="cc" />
    <path
       sodipodi:type="arc"
       style="fill:#0000ff;fill-opacity:1;fill-rule:nonzero;stroke:none"
       id="path3306-4"
       sodipodi:cx="550.35712"
       sodipodi:cy="269.86218"
       sodipodi:rx="8.5714283"
       sodipodi:ry="8.9285717"
       d="m 558.92854,269.86218 a 8.5714283,8.9285717 0 1 1 -17.14285,0 8.5714283,8.9285717 0 1 1 17.14285,0 z"
       transform="matrix(0.92171779,0,0,0.88484905,-92.97526,89.873563)" />
    <path
       sodipodi:type="arc"
       style="fill:#0000ff;fill-opacity:1;fill-rule:nonzero;stroke:none"
       id="path3306-9-53"
       sodipodi:cx="550.35712"
       sodipodi:cy="269.86218"
       sodipodi:rx="8.5714283"
       sodipodi:ry="8.9285717"
       d="m 558.92854,269.86218 a 8.5714283,8.9285717 0 1 1 -17.14285,0 8.5714283,8.9285717 0 1 1 17.14285,0 z"
       transform="matrix(0.92171779,0,0,0.88484905,-53.47307,89.873563)" />
    <path
       sodipodi:type="arc"
       style="fill:#0000ff;fill-opacity:1;fill-rule:nonzero;stroke:none"
       id="path3306-1-1"
       sodipodi:cx="550.35712"
       sodipodi:cy="269.86218"
       sodipodi:rx="8.5714283"
       sodipodi:ry="8.9285717"
       d="m 558.92854,269.86218 a 8.5714283,8.9285717 0 1 1 -17.14285,0 8.5714283,8.9285717 0 1 1 17.14285,0 z"
       transform="matrix(0.92171779,0,0,0.88484905,-13.970885,89.873563)" />
    <path
       style="fill:none;stroke:#000000;stroke-width:1.58008754px;stroke-linecap:butt;stroke-linejoin:miter;stroke-opacity:1"
       d="m 422.19913,328.66086 23.70131,0"
       id="path4142-95"
       inkscape:connector-curvature="0" />
    <path
       style="fill:none;stroke:#000000;stroke-width:1.58008754px;stroke-linecap:butt;stroke-linejoin:miter;stroke-opacity:1"
       d="m 461.70132,328.66086 23.70131,0"
       id="path4144-7"
       inkscape:connector-curvature="0" />
    <path
       style="fill:none;stroke:#000000;stroke-width:1.58008754px;stroke-linecap:butt;stroke-linejoin:miter;stroke-opacity:1"
       d="m 501.20351,328.66086 15.80087,0"
       id="path4146-10"
       inkscape:connector-curvature="0" />
    <path
       style="fill:none;stroke:#000000;stroke-width:1.58008754px;stroke-linecap:butt;stroke-linejoin:miter;stroke-opacity:1"
       d="m 390.59738,328.66086 15.80087,0"
       id="path4148-9"
       inkscape:connector-curvature="0" />
    <path
       sodipodi:type="arc"
       style="fill:#0000ff;fill-opacity:1;fill-rule:nonzero;stroke:none"
       id="path3306-93-3"
       sodipodi:cx="550.35712"
       sodipodi:cy="269.86218"
       sodipodi:rx="8.5714283"
       sodipodi:ry="8.9285717"
       d="m 558.92854,269.86218 a 8.5714283,8.9285717 0 1 1 -17.14285,0 8.5714283,8.9285717 0 1 1 17.14285,0 z"
       transform="matrix(0.92171779,0,0,0.88484905,-108.77613,121.47531)" />
    <path
       sodipodi:type="arc"
       style="fill:#0000ff;fill-opacity:1;fill-rule:nonzero;stroke:none"
       id="path3306-9-0-7"
       sodipodi:cx="550.35712"
       sodipodi:cy="269.86218"
       sodipodi:rx="8.5714283"
       sodipodi:ry="8.9285717"
       d="m 558.92854,269.86218 a 8.5714283,8.9285717 0 1 1 -17.14285,0 8.5714283,8.9285717 0 1 1 17.14285,0 z"
       transform="matrix(0.92171779,0,0,0.88484905,-69.27395,121.47531)" />
    <path
       sodipodi:type="arc"
       style="fill:#0000ff;fill-opacity:1;fill-rule:nonzero;stroke:none"
       id="path3306-1-4-7"
       sodipodi:cx="550.35712"
       sodipodi:cy="269.86218"
       sodipodi:rx="8.5714283"
       sodipodi:ry="8.9285717"
       d="m 558.92854,269.86218 a 8.5714283,8.9285717 0 1 1 -17.14285,0 8.5714283,8.9285717 0 1 1 17.14285,0 z"
       transform="matrix(0.92171779,0,0,0.88484905,-29.771755,121.47531)" />
    <path
       style="fill:none;stroke:#000000;stroke-width:1.58008754px;stroke-linecap:butt;stroke-linejoin:miter;stroke-opacity:1"
       d="m 406.39825,360.26261 23.70132,0"
       id="path4142-2-6"
       inkscape:connector-curvature="0" />
    <path
       style="fill:none;stroke:#000000;stroke-width:1.58008754px;stroke-linecap:butt;stroke-linejoin:miter;stroke-opacity:1"
       d="m 445.90044,360.26261 23.70132,0"
       id="path4144-9-7"
       inkscape:connector-curvature="0" />
    <path
       style="fill:none;stroke:#000000;stroke-width:1.58008754px;stroke-linecap:butt;stroke-linejoin:miter;stroke-opacity:1"
       d="m 485.40263,360.26261 15.80088,0"
       id="path4146-1-8"
       inkscape:connector-curvature="0" />
    <path
       style="fill:none;stroke:#000000;stroke-width:1.58008754px;stroke-linecap:butt;stroke-linejoin:miter;stroke-opacity:1"
       d="m 374.7965,360.26261 15.80088,0"
       id="path4148-3-6"
       inkscape:connector-curvature="0" />
    <path
       sodipodi:type="arc"
       style="fill:#0000ff;fill-opacity:1;fill-rule:nonzero;stroke:none"
       id="path3306-6-5"
       sodipodi:cx="550.35712"
       sodipodi:cy="269.86218"
       sodipodi:rx="8.5714283"
       sodipodi:ry="8.9285717"
       d="m 558.92854,269.86218 a 8.5714283,8.9285717 0 1 1 -17.14285,0 8.5714283,8.9285717 0 1 1 17.14285,0 z"
       transform="matrix(0.92171779,0,0,0.88484905,-124.57701,153.07706)" />
    <path
       sodipodi:type="arc"
       style="fill:#0000ff;fill-opacity:1;fill-rule:nonzero;stroke:none"
       id="path3306-9-9-2"
       sodipodi:cx="550.35712"
       sodipodi:cy="269.86218"
       sodipodi:rx="8.5714283"
       sodipodi:ry="8.9285717"
       d="m 558.92854,269.86218 a 8.5714283,8.9285717 0 1 1 -17.14285,0 8.5714283,8.9285717 0 1 1 17.14285,0 z"
       transform="matrix(0.92171779,0,0,0.88484905,-85.07482,153.07706)" />
    <path
       sodipodi:type="arc"
       style="fill:#0000ff;fill-opacity:1;fill-rule:nonzero;stroke:none"
       id="path3306-1-5-4"
       sodipodi:cx="550.35712"
       sodipodi:cy="269.86218"
       sodipodi:rx="8.5714283"
       sodipodi:ry="8.9285717"
       d="m 558.92854,269.86218 a 8.5714283,8.9285717 0 1 1 -17.14285,0 8.5714283,8.9285717 0 1 1 17.14285,0 z"
       transform="matrix(0.92171779,0,0,0.88484905,-45.572635,153.07706)" />
    <path
       style="fill:none;stroke:#000000;stroke-width:1.58008754px;stroke-linecap:butt;stroke-linejoin:miter;stroke-opacity:1"
       d="m 390.59738,391.86436 23.70131,0"
       id="path4142-1-3"
       inkscape:connector-curvature="0" />
    <path
       style="fill:none;stroke:#000000;stroke-width:1.58008754px;stroke-linecap:butt;stroke-linejoin:miter;stroke-opacity:1"
       d="m 430.09957,391.86436 23.70131,0"
       id="path4144-3-77"
       inkscape:connector-curvature="0" />
    <path
       style="fill:none;stroke:#000000;stroke-width:1.58008754px;stroke-linecap:butt;stroke-linejoin:miter;stroke-opacity:1"
       d="m 469.60176,391.86436 15.80087,0"
       id="path4146-5-5"
       inkscape:connector-curvature="0" />
    <path
       style="fill:none;stroke:#000000;stroke-width:1.58008754px;stroke-linecap:butt;stroke-linejoin:miter;stroke-opacity:1"
       d="m 358.99562,391.86436 15.80088,0"
       id="path4148-7-4"
       inkscape:connector-curvature="0" />
  </g>
  <g
     inkscape:groupmode="layer"
     id="layer2"
     inkscape:label="Layer2">
    <path
       style="fill:none;stroke:#000000;stroke-width:1.58008754px;stroke-linecap:butt;stroke-linejoin:miter;stroke-opacity:1"
       d="m 209.83423,304.67739 c -1.97511,0.98755 -58.97114,115.68499 -58.97114,115.68499"
       id="path4211-7"
       inkscape:connector-curvature="0"
       sodipodi:nodetypes="cc" />
    <path
       style="fill:none;stroke:#000000;stroke-width:1.58008754px;stroke-linecap:butt;stroke-linejoin:miter;stroke-opacity:1"
       d="m 130.12446,303.68983 c -1.97511,0.98756 -58.971151,115.685 -58.971151,115.685"
       id="path4211-4"
       inkscape:connector-curvature="0"
       sodipodi:nodetypes="cc" />
    <path
       style="fill:none;stroke:#000000;stroke-width:1.58008754px;stroke-linecap:butt;stroke-linejoin:miter;stroke-opacity:1"
       d="m 169.62665,303.68983 c -1.97511,0.98756 -58.97115,115.685 -58.97115,115.685"
       id="path4211"
       inkscape:connector-curvature="0"
       sodipodi:nodetypes="cc" />
    <path
       sodipodi:type="arc"
       style="fill:#0000ff;fill-opacity:1;fill-rule:nonzero;stroke:none"
       id="path3306"
       sodipodi:cx="550.35712"
       sodipodi:cy="269.86218"
       sodipodi:rx="8.5714283"
       sodipodi:ry="8.9285717"
       d="m 558.92854,269.86218 a 8.5714283,8.9285717 0 1 1 -17.14285,0 8.5714283,8.9285717 0 1 1 17.14285,0 z"
       transform="matrix(0.92171779,0,0,0.88484905,-390.97526,89.87357)" />
    <path
       sodipodi:type="arc"
       style="fill:#0000ff;fill-opacity:1;fill-rule:nonzero;stroke:none"
       id="path3306-9"
       sodipodi:cx="550.35712"
       sodipodi:cy="269.86218"
       sodipodi:rx="8.5714283"
       sodipodi:ry="8.9285717"
       d="m 558.92854,269.86218 a 8.5714283,8.9285717 0 1 1 -17.14285,0 8.5714283,8.9285717 0 1 1 17.14285,0 z"
       transform="matrix(0.92171779,0,0,0.88484905,-351.47307,89.87357)" />
    <path
       sodipodi:type="arc"
       style="fill:#0000ff;fill-opacity:1;fill-rule:nonzero;stroke:none"
       id="path3306-1"
       sodipodi:cx="550.35712"
       sodipodi:cy="269.86218"
       sodipodi:rx="8.5714283"
       sodipodi:ry="8.9285717"
       d="m 558.92854,269.86218 a 8.5714283,8.9285717 0 1 1 -17.14285,0 8.5714283,8.9285717 0 1 1 17.14285,0 z"
       transform="matrix(0.92171779,0,0,0.88484905,-311.97088,89.87357)" />
    <path
       style="fill:none;stroke:#000000;stroke-width:1.58008754px;stroke-linecap:butt;stroke-linejoin:miter;stroke-opacity:1"
       d="m 124.19913,328.66086 23.70131,0"
       id="path4142"
       inkscape:connector-curvature="0" />
    <path
       style="fill:none;stroke:#000000;stroke-width:1.58008754px;stroke-linecap:butt;stroke-linejoin:miter;stroke-opacity:1"
       d="m 163.70132,328.66086 23.70131,0"
       id="path4144"
       inkscape:connector-curvature="0" />
    <path
       style="fill:none;stroke:#000000;stroke-width:1.58008754px;stroke-linecap:butt;stroke-linejoin:miter;stroke-opacity:1"
       d="m 203.20351,328.66086 15.80087,0"
       id="path4146"
       inkscape:connector-curvature="0" />
    <path
       style="fill:none;stroke:#000000;stroke-width:1.58008754px;stroke-linecap:butt;stroke-linejoin:miter;stroke-opacity:1"
       d="m 92.597379,328.66086 15.800871,0"
       id="path4148"
       inkscape:connector-curvature="0" />
    <path
       sodipodi:type="arc"
       style="fill:#0000ff;fill-opacity:1;fill-rule:nonzero;stroke:none"
       id="path3306-93"
       sodipodi:cx="550.35712"
       sodipodi:cy="269.86218"
       sodipodi:rx="8.5714283"
       sodipodi:ry="8.9285717"
       d="m 558.92854,269.86218 a 8.5714283,8.9285717 0 1 1 -17.14285,0 8.5714283,8.9285717 0 1 1 17.14285,0 z"
       transform="matrix(0.92171779,0,0,0.88484905,-406.77613,121.47532)" />
    <path
       sodipodi:type="arc"
       style="fill:#0000ff;fill-opacity:1;fill-rule:nonzero;stroke:none"
       id="path3306-9-0"
       sodipodi:cx="550.35712"
       sodipodi:cy="269.86218"
       sodipodi:rx="8.5714283"
       sodipodi:ry="8.9285717"
       d="m 558.92854,269.86218 a 8.5714283,8.9285717 0 1 1 -17.14285,0 8.5714283,8.9285717 0 1 1 17.14285,0 z"
       transform="matrix(0.92171779,0,0,0.88484905,-367.27395,121.47532)" />
    <path
       sodipodi:type="arc"
       style="fill:#0000ff;fill-opacity:1;fill-rule:nonzero;stroke:none"
       id="path3306-1-4"
       sodipodi:cx="550.35712"
       sodipodi:cy="269.86218"
       sodipodi:rx="8.5714283"
       sodipodi:ry="8.9285717"
       d="m 558.92854,269.86218 a 8.5714283,8.9285717 0 1 1 -17.14285,0 8.5714283,8.9285717 0 1 1 17.14285,0 z"
       transform="matrix(0.92171779,0,0,0.88484905,-327.77175,121.47532)" />
    <path
       style="fill:none;stroke:#000000;stroke-width:1.58008754px;stroke-linecap:butt;stroke-linejoin:miter;stroke-opacity:1"
       d="m 108.39825,360.26261 23.70132,0"
       id="path4142-2"
       inkscape:connector-curvature="0" />
    <path
       style="fill:none;stroke:#000000;stroke-width:1.58008754px;stroke-linecap:butt;stroke-linejoin:miter;stroke-opacity:1"
       d="m 147.90044,360.26261 23.70132,0"
       id="path4144-9"
       inkscape:connector-curvature="0" />
    <path
       style="fill:none;stroke:#000000;stroke-width:1.58008754px;stroke-linecap:butt;stroke-linejoin:miter;stroke-opacity:1"
       d="m 187.40263,360.26261 15.80088,0"
       id="path4146-1"
       inkscape:connector-curvature="0" />
    <path
       style="fill:none;stroke:#000000;stroke-width:1.58008754px;stroke-linecap:butt;stroke-linejoin:miter;stroke-opacity:1"
       d="m 76.796499,360.26261 15.80088,0"
       id="path4148-3"
       inkscape:connector-curvature="0" />
    <path
       sodipodi:type="arc"
       style="fill:#0000ff;fill-opacity:1;fill-rule:nonzero;stroke:none"
       id="path3306-6"
       sodipodi:cx="550.35712"
       sodipodi:cy="269.86218"
       sodipodi:rx="8.5714283"
       sodipodi:ry="8.9285717"
       d="m 558.92854,269.86218 a 8.5714283,8.9285717 0 1 1 -17.14285,0 8.5714283,8.9285717 0 1 1 17.14285,0 z"
       transform="matrix(0.92171779,0,0,0.88484905,-422.57701,153.07707)" />
    <path
       sodipodi:type="arc"
       style="fill:#0000ff;fill-opacity:1;fill-rule:nonzero;stroke:none"
       id="path3306-9-9"
       sodipodi:cx="550.35712"
       sodipodi:cy="269.86218"
       sodipodi:rx="8.5714283"
       sodipodi:ry="8.9285717"
       d="m 558.92854,269.86218 a 8.5714283,8.9285717 0 1 1 -17.14285,0 8.5714283,8.9285717 0 1 1 17.14285,0 z"
       transform="matrix(0.92171779,0,0,0.88484905,-383.07482,153.07707)" />
    <path
       sodipodi:type="arc"
       style="fill:#0000ff;fill-opacity:1;fill-rule:nonzero;stroke:none"
       id="path3306-1-5"
       sodipodi:cx="550.35712"
       sodipodi:cy="269.86218"
       sodipodi:rx="8.5714283"
       sodipodi:ry="8.9285717"
       d="m 558.92854,269.86218 a 8.5714283,8.9285717 0 1 1 -17.14285,0 8.5714283,8.9285717 0 1 1 17.14285,0 z"
       transform="matrix(0.92171779,0,0,0.88484905,-343.57263,153.07707)" />
    <path
       style="fill:none;stroke:#000000;stroke-width:1.58008754px;stroke-linecap:butt;stroke-linejoin:miter;stroke-opacity:1"
       d="m 92.597379,391.86436 23.701311,0"
       id="path4142-1"
       inkscape:connector-curvature="0" />
    <path
       style="fill:none;stroke:#000000;stroke-width:1.58008754px;stroke-linecap:butt;stroke-linejoin:miter;stroke-opacity:1"
       d="m 132.09957,391.86436 23.70131,0"
       id="path4144-3"
       inkscape:connector-curvature="0" />
    <path
       style="fill:none;stroke:#000000;stroke-width:1.58008754px;stroke-linecap:butt;stroke-linejoin:miter;stroke-opacity:1"
       d="m 171.60176,391.86436 15.80087,0"
       id="path4146-5"
       inkscape:connector-curvature="0" />
    <path
       style="fill:none;stroke:#000000;stroke-width:1.58008754px;stroke-linecap:butt;stroke-linejoin:miter;stroke-opacity:1"
       d="m 60.995619,391.86436 15.80088,0"
       id="path4148-7"
       inkscape:connector-curvature="0" />
    <path
       style="fill:none;stroke:#000000;stroke-width:1.58008754px;stroke-linecap:butt;stroke-linejoin:miter;stroke-opacity:1"
       d="m 409.83422,154.67739 c -1.97511,0.98755 -58.97114,115.68499 -58.97114,115.68499"
       id="path4211-7-3"
       inkscape:connector-curvature="0"
       sodipodi:nodetypes="cc" />
    <path
       style="fill:none;stroke:#000000;stroke-width:1.58008754px;stroke-linecap:butt;stroke-linejoin:miter;stroke-opacity:1"
       d="m 330.12445,153.68983 c -1.97511,0.98756 -58.97115,115.685 -58.97115,115.685"
       id="path4211-4-9"
       inkscape:connector-curvature="0"
       sodipodi:nodetypes="cc" />
    <path
       style="fill:none;stroke:#000000;stroke-width:1.58008754px;stroke-linecap:butt;stroke-linejoin:miter;stroke-opacity:1"
       d="m 369.62664,153.68983 c -1.97511,0.98756 -58.97115,115.685 -58.97115,115.685"
       id="path4211-5"
       inkscape:connector-curvature="0"
       sodipodi:nodetypes="cc" />
    <path
       sodipodi:type="arc"
       style="fill:#ff0000;fill-opacity:1;fill-rule:nonzero;stroke:none"
       id="path3306-68"
       sodipodi:cx="550.35712"
       sodipodi:cy="269.86218"
       sodipodi:rx="8.5714283"
       sodipodi:ry="8.9285717"
       d="m 558.92854,269.86218 a 8.5714283,8.9285717 0 1 1 -17.14285,0 8.5714283,8.9285717 0 1 1 17.14285,0 z"
       transform="matrix(0.92171779,0,0,0.88484905,-190.97526,-60.126425)" />
    <path
       sodipodi:type="arc"
       style="fill:#ff0000;fill-opacity:1;fill-rule:nonzero;stroke:none"
       id="path3306-9-5"
       sodipodi:cx="550.35712"
       sodipodi:cy="269.86218"
       sodipodi:rx="8.5714283"
       sodipodi:ry="8.9285717"
       d="m 558.92854,269.86218 a 8.5714283,8.9285717 0 1 1 -17.14285,0 8.5714283,8.9285717 0 1 1 17.14285,0 z"
       transform="matrix(0.92171779,0,0,0.88484905,-151.47307,-60.126425)" />
    <path
       sodipodi:type="arc"
       style="fill:#ff0000;fill-opacity:1;fill-rule:nonzero;stroke:none"
       id="path3306-1-7"
       sodipodi:cx="550.35712"
       sodipodi:cy="269.86218"
       sodipodi:rx="8.5714283"
       sodipodi:ry="8.9285717"
       d="m 558.92854,269.86218 a 8.5714283,8.9285717 0 1 1 -17.14285,0 8.5714283,8.9285717 0 1 1 17.14285,0 z"
       transform="matrix(0.92171779,0,0,0.88484905,-111.97089,-60.126425)" />
    <path
       style="fill:none;stroke:#000000;stroke-width:1.58008754px;stroke-linecap:butt;stroke-linejoin:miter;stroke-opacity:1"
       d="m 324.19912,178.66086 23.70131,0"
       id="path4142-9"
       inkscape:connector-curvature="0" />
    <path
       style="fill:none;stroke:#000000;stroke-width:1.58008754px;stroke-linecap:butt;stroke-linejoin:miter;stroke-opacity:1"
       d="m 363.70131,178.66086 23.70131,0"
       id="path4144-6"
       inkscape:connector-curvature="0" />
    <path
       style="fill:none;stroke:#000000;stroke-width:1.58008754px;stroke-linecap:butt;stroke-linejoin:miter;stroke-opacity:1"
       d="m 403.2035,178.66086 15.80087,0"
       id="path4146-0"
       inkscape:connector-curvature="0" />
    <path
       style="fill:none;stroke:#000000;stroke-width:1.58008754px;stroke-linecap:butt;stroke-linejoin:miter;stroke-opacity:1"
       d="m 292.59737,178.66086 15.80087,0"
       id="path4148-5"
       inkscape:connector-curvature="0" />
    <path
       sodipodi:type="arc"
       style="fill:#ff0000;fill-opacity:1;fill-rule:nonzero;stroke:none"
       id="path3306-93-0"
       sodipodi:cx="550.35712"
       sodipodi:cy="269.86218"
       sodipodi:rx="8.5714283"
       sodipodi:ry="8.9285717"
       d="m 558.92854,269.86218 a 8.5714283,8.9285717 0 1 1 -17.14285,0 8.5714283,8.9285717 0 1 1 17.14285,0 z"
       transform="matrix(0.92171779,0,0,0.88484905,-206.77614,-28.524675)" />
    <path
       sodipodi:type="arc"
       style="fill:#ff0000;fill-opacity:1;fill-rule:nonzero;stroke:none"
       id="path3306-9-0-1"
       sodipodi:cx="550.35712"
       sodipodi:cy="269.86218"
       sodipodi:rx="8.5714283"
       sodipodi:ry="8.9285717"
       d="m 558.92854,269.86218 a 8.5714283,8.9285717 0 1 1 -17.14285,0 8.5714283,8.9285717 0 1 1 17.14285,0 z"
       transform="matrix(0.92171779,0,0,0.88484905,-167.27395,-28.524675)" />
    <path
       sodipodi:type="arc"
       style="fill:#ff0000;fill-opacity:1;fill-rule:nonzero;stroke:none"
       id="path3306-1-4-4"
       sodipodi:cx="550.35712"
       sodipodi:cy="269.86218"
       sodipodi:rx="8.5714283"
       sodipodi:ry="8.9285717"
       d="m 558.92854,269.86218 a 8.5714283,8.9285717 0 1 1 -17.14285,0 8.5714283,8.9285717 0 1 1 17.14285,0 z"
       transform="matrix(0.92171779,0,0,0.88484905,-127.77176,-28.524675)" />
    <path
       style="fill:none;stroke:#000000;stroke-width:1.58008754px;stroke-linecap:butt;stroke-linejoin:miter;stroke-opacity:1"
       d="m 308.39824,210.26261 23.70132,0"
       id="path4142-2-8"
       inkscape:connector-curvature="0" />
    <path
       style="fill:none;stroke:#000000;stroke-width:1.58008754px;stroke-linecap:butt;stroke-linejoin:miter;stroke-opacity:1"
       d="m 347.90043,210.26261 23.70132,0"
       id="path4144-9-8"
       inkscape:connector-curvature="0" />
    <path
       style="fill:none;stroke:#000000;stroke-width:1.58008754px;stroke-linecap:butt;stroke-linejoin:miter;stroke-opacity:1"
       d="m 387.40262,210.26261 15.80088,0"
       id="path4146-1-4"
       inkscape:connector-curvature="0" />
    <path
       style="fill:none;stroke:#000000;stroke-width:1.58008754px;stroke-linecap:butt;stroke-linejoin:miter;stroke-opacity:1"
       d="m 276.79649,210.26261 15.80088,0"
       id="path4148-3-9"
       inkscape:connector-curvature="0" />
    <path
       sodipodi:type="arc"
       style="fill:#ff0000;fill-opacity:1;fill-rule:nonzero;stroke:none"
       id="path3306-6-4"
       sodipodi:cx="550.35712"
       sodipodi:cy="269.86218"
       sodipodi:rx="8.5714283"
       sodipodi:ry="8.9285717"
       d="m 558.92854,269.86218 a 8.5714283,8.9285717 0 1 1 -17.14285,0 8.5714283,8.9285717 0 1 1 17.14285,0 z"
       transform="matrix(0.92171779,0,0,0.88484905,-222.57702,3.0770749)" />
    <path
       sodipodi:type="arc"
       style="fill:#ff0000;fill-opacity:1;fill-rule:nonzero;stroke:none"
       id="path3306-9-9-4"
       sodipodi:cx="550.35712"
       sodipodi:cy="269.86218"
       sodipodi:rx="8.5714283"
       sodipodi:ry="8.9285717"
       d="m 558.92854,269.86218 a 8.5714283,8.9285717 0 1 1 -17.14285,0 8.5714283,8.9285717 0 1 1 17.14285,0 z"
       transform="matrix(0.92171779,0,0,0.88484905,-183.07483,3.0770749)" />
    <path
       sodipodi:type="arc"
       style="fill:#ff0000;fill-opacity:1;fill-rule:nonzero;stroke:none"
       id="path3306-1-5-6"
       sodipodi:cx="550.35712"
       sodipodi:cy="269.86218"
       sodipodi:rx="8.5714283"
       sodipodi:ry="8.9285717"
       d="m 558.92854,269.86218 a 8.5714283,8.9285717 0 1 1 -17.14285,0 8.5714283,8.9285717 0 1 1 17.14285,0 z"
       transform="matrix(0.92171779,0,0,0.88484905,-143.57264,3.0770749)" />
    <path
       style="fill:none;stroke:#000000;stroke-width:1.58008754px;stroke-linecap:butt;stroke-linejoin:miter;stroke-opacity:1"
       d="m 292.59737,241.86436 23.70131,0"
       id="path4142-1-4"
       inkscape:connector-curvature="0" />
    <path
       style="fill:none;stroke:#000000;stroke-width:1.58008754px;stroke-linecap:butt;stroke-linejoin:miter;stroke-opacity:1"
       d="m 332.09956,241.86436 23.70131,0"
       id="path4144-3-7"
       inkscape:connector-curvature="0" />
    <path
       style="fill:none;stroke:#000000;stroke-width:1.58008754px;stroke-linecap:butt;stroke-linejoin:miter;stroke-opacity:1"
       d="m 371.60175,241.86436 15.80087,0"
       id="path4146-5-6"
       inkscape:connector-curvature="0" />
    <path
       style="fill:none;stroke:#000000;stroke-width:1.58008754px;stroke-linecap:butt;stroke-linejoin:miter;stroke-opacity:1"
       d="m 260.99561,241.86436 15.80088,0"
       id="path4148-7-0"
       inkscape:connector-curvature="0" />
  </g>
</svg>
