<?xml version="1.0" encoding="UTF-8" standalone="no"?>
<!-- Created with Inkscape (http://www.inkscape.org/) -->

<svg
   xmlns:dc="http://purl.org/dc/elements/1.1/"
   xmlns:cc="http://creativecommons.org/ns#"
   xmlns:rdf="http://www.w3.org/1999/02/22-rdf-syntax-ns#"
   xmlns:svg="http://www.w3.org/2000/svg"
   xmlns="http://www.w3.org/2000/svg"
   xmlns:sodipodi="http://sodipodi.sourceforge.net/DTD/sodipodi-0.dtd"
   xmlns:inkscape="http://www.inkscape.org/namespaces/inkscape"
   width="744.09448819"
   height="1052.3622047"
   id="svg2"
   version="1.1"
   inkscape:version="0.48.1 r9760"
   sodipodi:docname="vari.svg"
   inkscape:export-filename="/home/sci/weiliu/projects/proposal/sfig/vari.png"
   inkscape:export-xdpi="400"
   inkscape:export-ydpi="400">
  <defs
     id="defs4" />
  <sodipodi:namedview
     id="base"
     pagecolor="#ffffff"
     bordercolor="#666666"
     borderopacity="1.0"
     inkscape:pageopacity="0.0"
     inkscape:pageshadow="2"
     inkscape:zoom="2.8"
     inkscape:cx="485.01254"
     inkscape:cy="520"
     inkscape:document-units="px"
     inkscape:current-layer="layer1"
     showgrid="true"
     inkscape:snap-global="true"
     inkscape:window-width="1680"
     inkscape:window-height="1027"
     inkscape:window-x="0"
     inkscape:window-y="0"
     inkscape:window-maximized="1">
    <inkscape:grid
       type="xygrid"
       id="grid2985" />
  </sodipodi:namedview>
  <metadata
     id="metadata7">
    <rdf:RDF>
      <cc:Work
         rdf:about="">
        <dc:format>image/svg+xml</dc:format>
        <dc:type
           rdf:resource="http://purl.org/dc/dcmitype/StillImage" />
        <dc:title></dc:title>
      </cc:Work>
    </rdf:RDF>
  </metadata>
  <g
     inkscape:label="Layer 1"
     inkscape:groupmode="layer"
     id="layer1">
    <path
       style="fill:#9a9c9e;fill-opacity:1;stroke:none"
       d="m 555,487.36218 c -15,20 -20,30 -20,55 0,25 34.63602,38.945 60,40 26.32955,1.09517 49.59153,1.37811 65,-20 15.59227,-21.63312 4.79201,-52.81199 -10,-75 -12.0185,-18.02775 -23.35844,-18.95723 -45,-20 -22.64285,-1.09101 -36.39853,1.86471 -50,20 z"
       id="path3937-8"
       inkscape:connector-curvature="0"
       sodipodi:nodetypes="sssssss" />
    <path
       style="fill:#9a9c9e;fill-opacity:1;stroke:none"
       d="m 410,487.36218 c -15,20 -20,30 -20,55 0,25 34.63602,38.945 60,40 26.32955,1.09517 49.59153,1.37811 65,-20 15.59227,-21.63312 4.79201,-52.81199 -10,-75 -12.0185,-18.02775 -23.35844,-18.95723 -45,-20 -22.64285,-1.09101 -36.39853,1.86471 -50,20 z"
       id="path3937-1"
       inkscape:connector-curvature="0"
       sodipodi:nodetypes="sssssss" />
    <path
       style="fill:#9a9c9e;stroke:none;stroke-width:1px;stroke-linecap:butt;stroke-linejoin:miter;stroke-opacity:1;fill-opacity:1"
       d="m 255,487.36218 c -15,20 -20,30 -20,55 0,25 34.63602,38.945 60,40 26.32955,1.09517 49.59153,1.37811 65,-20 15.59227,-21.63312 4.79201,-52.81199 -10,-75 -12.0185,-18.02775 -23.35844,-18.95723 -45,-20 -22.64285,-1.09101 -36.39853,1.86471 -50,20 z"
       id="path3937"
       inkscape:connector-curvature="0"
       sodipodi:nodetypes="sssssss" />
    <path
       sodipodi:type="arc"
       style="fill:#6364ff;stroke:none;stroke-width:3;stroke-miterlimit:4;stroke-opacity:1;stroke-dasharray:none;stroke-dashoffset:0;fill-opacity:1"
       id="path2987"
       sodipodi:cx="300"
       sodipodi:cy="492.36218"
       sodipodi:rx="10"
       sodipodi:ry="10"
       d="m 310,492.36218 a 10,10 0 1 1 -20,0 10,10 0 1 1 20,0 z" />
    <path
       transform="translate(-45,55)"
       sodipodi:type="arc"
       style="fill:#6262ff;fill-opacity:1;stroke:none"
       id="path2987-3"
       sodipodi:cx="300"
       sodipodi:cy="492.36218"
       sodipodi:rx="10"
       sodipodi:ry="10"
       d="m 310,492.36218 a 10,10 0 1 1 -20,0 10,10 0 1 1 20,0 z" />
    <path
       transform="translate(0,55)"
       sodipodi:type="arc"
       style="fill:#5151ff;fill-opacity:1;stroke:none"
       id="path2987-7"
       sodipodi:cx="300"
       sodipodi:cy="492.36218"
       sodipodi:rx="10"
       sodipodi:ry="10"
       d="m 310,492.36218 a 10,10 0 1 1 -20,0 10,10 0 1 1 20,0 z" />
    <path
       transform="translate(45,55)"
       sodipodi:type="arc"
       style="fill:#5758ff;fill-opacity:1;stroke:none"
       id="path2987-34"
       sodipodi:cx="300"
       sodipodi:cy="492.36218"
       sodipodi:rx="10"
       sodipodi:ry="10"
       d="m 310,492.36218 a 10,10 0 1 1 -20,0 10,10 0 1 1 20,0 z" />
    <text
       xml:space="preserve"
       style="font-size:8px;font-style:normal;font-weight:normal;line-height:125%;letter-spacing:0px;word-spacing:0px;fill:#000000;fill-opacity:1;stroke:none;font-family:Bitstream Vera Sans"
       x="288.48477"
       y="495.84695"
       id="text3789"
       sodipodi:linespacing="125%"><tspan
         sodipodi:role="line"
         id="tspan3791"
         x="288.48477"
         y="495.84695">MPFC</tspan></text>
    <text
       xml:space="preserve"
       style="font-size:8px;font-style:normal;font-weight:normal;line-height:125%;letter-spacing:0px;word-spacing:0px;fill:#000000;fill-opacity:1;stroke:none;font-family:Bitstream Vera Sans"
       x="291.2627"
       y="550.59442"
       id="text3793"
       sodipodi:linespacing="125%"><tspan
         sodipodi:role="line"
         id="tspan3795"
         x="291.2627"
         y="550.59442">PCC</tspan></text>
    <text
       xml:space="preserve"
       style="font-size:8px;font-style:normal;font-weight:normal;line-height:125%;letter-spacing:0px;word-spacing:0px;fill:#000000;fill-opacity:1;stroke:none;font-family:Bitstream Vera Sans"
       x="248.245"
       y="550.06384"
       id="text3797"
       sodipodi:linespacing="125%"><tspan
         sodipodi:role="line"
         id="tspan3799"
         x="248.245"
         y="550.06384">MTL</tspan></text>
    <text
       xml:space="preserve"
       style="font-size:8px;font-style:normal;font-weight:normal;line-height:125%;letter-spacing:0px;word-spacing:0px;fill:#000000;fill-opacity:1;stroke:none;font-family:Bitstream Vera Sans"
       x="338.14856"
       y="549.81128"
       id="text3801"
       sodipodi:linespacing="125%"><tspan
         sodipodi:role="line"
         x="338.14856"
         y="549.81128"
         id="tspan3805">MTL</tspan></text>
    <path
       transform="matrix(0.5,0,0,1.9999999,305,-492.36215)"
       sodipodi:type="arc"
       style="fill:#6364ff;fill-opacity:1;stroke:none"
       id="path2987-1"
       sodipodi:cx="300"
       sodipodi:cy="492.36218"
       sodipodi:rx="10"
       sodipodi:ry="10"
       d="m 310,492.36218 a 10,10 0 1 1 -20,0 10,10 0 1 1 20,0 z" />
    <path
       transform="matrix(1.5,0,0,1,-40,55)"
       sodipodi:type="arc"
       style="fill:#6262ff;fill-opacity:1;stroke:none"
       id="path2987-3-9"
       sodipodi:cx="300"
       sodipodi:cy="492.36218"
       sodipodi:rx="10"
       sodipodi:ry="10"
       d="m 310,492.36218 a 10,10 0 1 1 -20,0 10,10 0 1 1 20,0 z" />
    <path
       transform="translate(155,55)"
       sodipodi:type="arc"
       style="fill:#5151ff;fill-opacity:1;stroke:none"
       id="path2987-7-4"
       sodipodi:cx="300"
       sodipodi:cy="492.36218"
       sodipodi:rx="10"
       sodipodi:ry="10"
       d="m 310,492.36218 a 10,10 0 1 1 -20,0 10,10 0 1 1 20,0 z" />
    <path
       transform="matrix(1.5,0,0,1,50,55)"
       sodipodi:type="arc"
       style="fill:#5758ff;fill-opacity:1;stroke:none"
       id="path2987-34-1"
       sodipodi:cx="300"
       sodipodi:cy="492.36218"
       sodipodi:rx="10"
       sodipodi:ry="10"
       d="m 310,492.36218 a 10,10 0 1 1 -20,0 10,10 0 1 1 20,0 z" />
    <text
       xml:space="preserve"
       style="font-size:8px;font-style:normal;font-weight:normal;line-height:125%;letter-spacing:0px;word-spacing:0px;fill:#000000;fill-opacity:1;stroke:none;font-family:Bitstream Vera Sans"
       x="443.48474"
       y="495.84695"
       id="text3789-4"
       sodipodi:linespacing="125%"><tspan
         sodipodi:role="line"
         id="tspan3791-1"
         x="443.48474"
         y="495.84695">MPFC</tspan></text>
    <text
       xml:space="preserve"
       style="font-size:8px;font-style:normal;font-weight:normal;line-height:125%;letter-spacing:0px;word-spacing:0px;fill:#000000;fill-opacity:1;stroke:none;font-family:Bitstream Vera Sans"
       x="446.26266"
       y="550.59436"
       id="text3793-5"
       sodipodi:linespacing="125%"><tspan
         sodipodi:role="line"
         id="tspan3795-7"
         x="446.26266"
         y="550.59436">PCC</tspan></text>
    <text
       xml:space="preserve"
       style="font-size:8px;font-style:normal;font-weight:normal;line-height:125%;letter-spacing:0px;word-spacing:0px;fill:#000000;fill-opacity:1;stroke:none;font-family:Bitstream Vera Sans"
       x="403.24496"
       y="550.06378"
       id="text3797-1"
       sodipodi:linespacing="125%"><tspan
         sodipodi:role="line"
         id="tspan3799-2"
         x="403.24496"
         y="550.06378">MTL</tspan></text>
    <text
       xml:space="preserve"
       style="font-size:8px;font-style:normal;font-weight:normal;line-height:125%;letter-spacing:0px;word-spacing:0px;fill:#000000;fill-opacity:1;stroke:none;font-family:Bitstream Vera Sans"
       x="493.14853"
       y="549.81122"
       id="text3801-5"
       sodipodi:linespacing="125%"><tspan
         sodipodi:role="line"
         x="493.14853"
         y="549.81122"
         id="tspan3805-7">MTL</tspan></text>
    <path
       transform="matrix(1.5,0,0,0.49999978,150,246.1812)"
       sodipodi:type="arc"
       style="fill:#6364ff;fill-opacity:1;stroke:none"
       id="path2987-8"
       sodipodi:cx="300"
       sodipodi:cy="492.36218"
       sodipodi:rx="10"
       sodipodi:ry="10"
       d="m 310,492.36218 a 10,10 0 1 1 -20,0 10,10 0 1 1 20,0 z" />
    <path
       transform="matrix(1.5,0,0,0.49999978,105,301.1812)"
       sodipodi:type="arc"
       style="fill:#6262ff;fill-opacity:1;stroke:none"
       id="path2987-3-3"
       sodipodi:cx="300"
       sodipodi:cy="492.36218"
       sodipodi:rx="10"
       sodipodi:ry="10"
       d="m 310,492.36218 a 10,10 0 1 1 -20,0 10,10 0 1 1 20,0 z" />
    <path
       transform="matrix(1.5,0,0,0.49999978,150,301.1812)"
       sodipodi:type="arc"
       style="fill:#5151ff;fill-opacity:1;stroke:none"
       id="path2987-7-3"
       sodipodi:cx="300"
       sodipodi:cy="492.36218"
       sodipodi:rx="10"
       sodipodi:ry="10"
       d="m 310,492.36218 a 10,10 0 1 1 -20,0 10,10 0 1 1 20,0 z" />
    <path
       transform="matrix(0.5,0,0,1.5,495,-191.1811)"
       sodipodi:type="arc"
       style="fill:#5758ff;fill-opacity:1;stroke:none"
       id="path2987-34-7"
       sodipodi:cx="300"
       sodipodi:cy="492.36218"
       sodipodi:rx="10"
       sodipodi:ry="10"
       d="m 310,492.36218 a 10,10 0 1 1 -20,0 10,10 0 1 1 20,0 z" />
    <text
       xml:space="preserve"
       style="font-size:8px;font-style:normal;font-weight:normal;line-height:125%;letter-spacing:0px;word-spacing:0px;fill:#000000;fill-opacity:1;stroke:none;font-family:Bitstream Vera Sans"
       x="588.48474"
       y="495.84695"
       id="text3789-7"
       sodipodi:linespacing="125%"><tspan
         sodipodi:role="line"
         id="tspan3791-4"
         x="588.48474"
         y="495.84695">MPFC</tspan></text>
    <text
       xml:space="preserve"
       style="font-size:8px;font-style:normal;font-weight:normal;line-height:125%;letter-spacing:0px;word-spacing:0px;fill:#000000;fill-opacity:1;stroke:none;font-family:Bitstream Vera Sans"
       x="591.2627"
       y="550.59442"
       id="text3793-0"
       sodipodi:linespacing="125%"><tspan
         sodipodi:role="line"
         id="tspan3795-0"
         x="591.2627"
         y="550.59442">PCC</tspan></text>
    <text
       xml:space="preserve"
       style="font-size:8px;font-style:normal;font-weight:normal;line-height:125%;letter-spacing:0px;word-spacing:0px;fill:#000000;fill-opacity:1;stroke:none;font-family:Bitstream Vera Sans"
       x="548.245"
       y="550.06384"
       id="text3797-5"
       sodipodi:linespacing="125%"><tspan
         sodipodi:role="line"
         id="tspan3799-7"
         x="548.245"
         y="550.06384">MTL</tspan></text>
    <text
       xml:space="preserve"
       style="font-size:8px;font-style:normal;font-weight:normal;line-height:125%;letter-spacing:0px;word-spacing:0px;fill:#000000;fill-opacity:1;stroke:none;font-family:Bitstream Vera Sans"
       x="638.14856"
       y="549.81128"
       id="text3801-4"
       sodipodi:linespacing="125%"><tspan
         sodipodi:role="line"
         x="638.14856"
         y="549.81128"
         id="tspan3805-4">MTL</tspan></text>
  </g>
</svg>
